<?xml version="1.0" standalone="no"?>
<!DOCTYPE svg PUBLIC "-//W3C//DTD SVG 1.1//EN" "http://www.w3.org/Graphics/SVG/1.1/DTD/svg11.dtd" >
<svg xmlns="http://www.w3.org/2000/svg">
<metadata></metadata>
<defs>
<font id="splendid_esregular" horiz-adv-x="491" >
<font-face units-per-em="2048" ascent="1638" descent="-410" />
<missing-glyph horiz-adv-x="425" />
<glyph horiz-adv-x="2048" />
<glyph horiz-adv-x="2048" />
<glyph unicode="&#xd;" horiz-adv-x="425" />
<glyph unicode=" "  horiz-adv-x="425" />
<glyph unicode="&#x09;" horiz-adv-x="425" />
<glyph unicode="&#xa0;" horiz-adv-x="425" />
<glyph unicode="!" horiz-adv-x="628" d="M51 39q1 59 60 59t59 -59t-59 -59t-60 59zM223 266q627 809 871 1159q49 0 90 25q-8 -51 18 -74q-559 -610 -952 -1122q-6 -10 -19 -4q-14 8 -8 16z" />
<glyph unicode="&#x22;" horiz-adv-x="710" d="M565 887q82 63 109 127q16 40 16 112q0 59 53 60q53 0 54 -58q0 -55 -76 -131q-16 -16 -143 -123zM756 887q82 63 108 127q17 40 17 112q0 59 53 60q53 0 53 -58q0 -55 -76 -131q-16 -16 -143 -123z" />
<glyph unicode="#" horiz-adv-x="1226" d="M127 2l393 510h-237l12 37h252l299 391h-254l14 37h271l348 455h49l-348 -455h401l348 455h49l-348 -455h203l-14 -37h-219l-297 -391h221l-15 -37h-235l-393 -510h-49l393 510h-402l-393 -510h-49zM596 549h401l299 391h-401z" />
<glyph unicode="$" horiz-adv-x="835" d="M-127 -268l221 272q-68 37 -67 111q0 150 106 149q41 0 41 -45q0 -25 -31.5 -45t-83.5 -20q-12 -12 -12 -45q0 -63 59 -91l435 537v35q0 160 73 250q106 131 265 133l208 258h25l-209 -258q41 -4 72 -19l225 277h25l-234 -287q57 -41 58 -119q0 -156 -105 -155 q-41 0 -41 39q0 25 31 51t80 26q12 12 12 45q0 62 -47 97l-350 -432q12 -90 12 -138q0 -195 -156 -295q-115 -76 -272 -81l-203 -250h-24l202 250q-45 4 -75 14l-215 -264h-25zM123 10q35 -12 78 -12l344 424v53q-2 37 -2 53zM225 -2q182 10 279 207q37 75 41 186zM614 616 q3 -30 11 -96l338 418q-35 14 -74 16zM614 647l250 307q-131 -6 -215 -157q-35 -62 -35 -150z" />
<glyph unicode="%" horiz-adv-x="1247" d="M-432 -332l1876 1673q-195 -113 -340 -112q-53 0 -84 12q-74 -152 -242 -291q-174 -143 -291 -143q-94 0 -94 92q0 182 205 373q199 182 365 182q96 0 96 -86q0 -51 -31 -111q37 -8 76 -8q170 0 418 162l342 305h71l-2293 -2048h-74zM418 899q0 -72 69 -72q109 0 275 142 q162 135 237 278q-45 23 -45 70q0 65 78 88q-16 29 -69 29q-111 0 -324 -199q-221 -205 -221 -336zM520 84q0 182 205 373q199 182 365 182q96 0 96 -86q0 -147 -212 -354t-360 -207q-94 0 -94 92zM545 84q0 -72 69 -72q139 0 345 204t206 337q1 65 -75 65q-111 0 -324 -198 q-221 -205 -221 -336z" />
<glyph unicode="&#x26;" horiz-adv-x="1171" d="M51 199q0 186 209 358q160 133 553 332q72 37 137 74q113 446 238 585q106 119 225 119q141 0 141 -131q0 -246 -522 -553q-33 -195 -108 -561q154 188 307 377q168 186 285 186q100 0 100 -100q0 -43 -25.5 -77t-70.5 -34q-51 0 -52 43q0 76 107 76q4 8 4 16 q0 55 -63 56q-90 0 -263 -185q-168 -197 -335 -393q-82 -338 -216 -520q-164 -227 -432 -260v20q328 39 508 619q-268 -272 -514 -273q-213 0 -213 226zM94 168q0 -174 174 -174q244 -1 516 282q39 129 84 330q39 164 76 328q-39 -23 -123 -66q-346 -176 -545 -379 q-182 -184 -182 -321zM1038 1012q492 295 492 522q0 111 -115 111q-123 0 -221 -138q-84 -116 -156 -495z" />
<glyph unicode="'" horiz-adv-x="464" d="M565 887q82 63 109 127q16 40 16 112q0 59 53 60q53 0 54 -58q0 -55 -76 -131q-16 -16 -143 -123z" />
<glyph unicode="(" horiz-adv-x="667" d="M0 -207q0 330 291 744q297 422 743 712q498 321 1000 350v-20q-500 -27 -979 -348q-426 -285 -709 -709q-272 -408 -272 -733q0 -203 121 -317q129 -123 383 -123l-9 -21q-287 0 -434 131q-135 119 -135 334z" />
<glyph unicode=")" horiz-adv-x="708" d="M-1151 -653q500 27 979 348q426 285 709 708q272 408 272 734q0 203 -119 317q-131 123 -385 123l8 20q287 0 435 -131q135 -119 135 -333q0 -330 -291 -744q-297 -422 -744 -713q-497 -321 -999 -350v21z" />
<glyph unicode="*" horiz-adv-x="833" d="M385 909q0 57 92 58q106 0 211 -45q-27 113 -125 170q-35 20 -35 49q0 45 41 45q57 0 103 -109q29 -72 39 -153q86 76 86 194q0 61 49 62q43 0 43 -60q0 -39 -62 -112q-51 -61 -102 -103q41 -12 80 -12q68 0 131 37q23 12 37 12q47 0 47 -45q0 -57 -90 -57q-98 0 -213 45 q27 -113 125 -170q35 -20 35 -49q0 -45 -41 -45q-93 0 -142 262q-86 -76 -86 -195q0 -61 -49 -61q-43 0 -43 59q0 39 62 113q51 59 102 100q-37 14 -82 14q-63 0 -129 -36q-20 -12 -37 -13q-47 0 -47 45z" />
<glyph unicode="+" horiz-adv-x="3176" d="M-12 305q240 264 657 264q299 0 649 -80q180 -41 594 -165q672 246 922 245q131 0 204.5 -55t73.5 -141q0 -94 -79 -162q-96 -80 -279 -80q-309 0 -885 154q-172 -66 -514 -189q123 -45 531 -221q393 154 587 154q92 0 152 -37q68 -43 68 -119q0 -74 -73 -122t-179 -48 q-176 0 -572 145l-397 -157q190 -100 381 -201q205 -104 311 -104q92 0 158 32q16 0 16 -6t-8 -12q-68 -37 -180 -37q-147 0 -352 109q-180 104 -361 206q-262 -92 -401 -92q-84 0 -130 34t-46 81q0 115 184 115q168 0 403 -113q72 27 394 156q-186 72 -560 213 q-449 -150 -675 -150q-119 0 -187.5 44t-68.5 112q0 164 323 164q274 0 649 -133q111 39 512 186q-469 125 -610 156q-348 74 -616 73q-373 0 -580 -231q-4 -4 -10 -4t-6 16zM344 78q0 -57 57 -94q63 -43 181 -43q217 0 641 143q-393 137 -613 137q-109 0 -182 -35 q-84 -41 -84 -108zM854 -299q0 -41 43 -68.5t115 -27.5q127 0 377 86q-211 109 -379 108q-72 0 -114 -27.5t-42 -70.5zM1888 -135q344 -143 529 -144q111 0 176 48q57 43 57 104q0 55 -53 96t-148 41q-184 0 -561 -145zM1921 313q532 -164 809 -163q162 0 256 71 q84 61 84 150q0 76 -64 125q-72 55 -196 55q-234 0 -889 -238z" />
<glyph unicode="," horiz-adv-x="415" d="M-82 -186q82 0 147.5 56.5t73.5 117.5q-14 -8 -30 -8q-57 0 -58 59q0 59 60 59q59 0 59 -78q0 -94 -78 -159.5t-174 -65.5v19z" />
<glyph unicode="-" horiz-adv-x="661" d="M143 338l15 37h420l-15 -37h-420z" />
<glyph unicode="." horiz-adv-x="395" d="M51 39q1 59 60 59t59 -59t-59 -59t-60 59z" />
<glyph unicode="/" horiz-adv-x="4874" d="M-8 303q340 408 923 408q436 0 949 -205q440 -190 880 -381q537 -205 1028 -205q487 0 768 184q244 162 244 388q0 193 -173 310.5t-441 117.5q-256 0 -424 -86q-174 -92 -174 -240q0 -123 106.5 -191.5t290.5 -68.5q109 0 217.5 44t149.5 109q6 6 10 2q6 -4 0 -12 q-43 -68 -154.5 -121t-222.5 -53q-188 0 -300 82t-112 207q0 141 154 242q172 113 459 112q287 0 465 -139q164 -129 163 -318q0 -233 -245 -397q-283 -186 -779 -186q-526 0 -1110 203q-463 186 -927 374q-506 203 -840 203q-565 0 -891 -397z" />
<glyph unicode="0" horiz-adv-x="3348" d="M-12 305q274 305 714 305q346 0 762 -139q336 -129 670 -260q367 -139 596 -139q410 0 631 247q4 4 10 5q6 0 6 -17q-119 -133 -244 -188q-152 -68 -403 -68q-272 0 -670 129q-348 119 -694 240q-414 129 -723 129q-166 0 -326 -55q-195 -68 -313 -201q-4 -4 -10 -4 t-6 16z" />
<glyph unicode="1" horiz-adv-x="3452" d="M59 -61q0 266 184.5 436t479.5 170q293 0 715 -121q360 -111 723 -223q420 -121 708 -121q377 0 580 225q4 4 10 4t6 -16q-236 -266 -618 -266q-356 0 -785 127q-346 117 -694 233q-387 127 -645 127q-287 0 -465 -158.5t-178 -416.5q0 -354 287 -580q254 -199 577 -199 q229 0 373 115q158 125 158 352q0 10 10 11q10 -1 10 -11q0 -225 -155.5 -355t-395.5 -130q-367 0 -620 217q-264 227 -265 580z" />
<glyph unicode="2" horiz-adv-x="2967" d="M113 872q0 121 86 207q94 94 239 95q84 0 176 -33q6 -2 7 -11q0 -8 -15 -8q-86 35 -170 35q-133 0 -216 -82t-83 -192q0 -133 119 -224q104 158 317 263q201 98 383 98q205 0 205 -137q182 51 357 51q203 0 249 -115q127 31 248 31q360 0 361 -270q0 -188 -170 -390 q-184 -215 -492 -346q-350 -150 -782 -149q-139 0 -240 20q12 -182 158 -286q162 -115 453 -115q823 0 1663 991q4 6 12 6q4 0 4 -12q-395 -485 -754 -727q-453 -305 -942 -305q-295 0 -459 131q-152 123 -155 321q-346 74 -346 363q0 53 12 104q-160 74 -160 234 q0 104 60 211q-125 94 -125 241zM199 430q0 -139 149 -209q51 164 205 314q-186 8 -301 86q-53 -96 -53 -191zM270 649q121 -80 320 -80q233 211 553 308v6q0 51 -48 86t-137 35q-178 0 -376 -99q-210 -102 -312 -256zM348 84q0 -248 326 -317q12 184 119 364 q-78 -4 -117 -4q-197 0 -318 49q-10 -51 -10 -92zM369 213q113 -45 303 -45q74 0 147 6q147 225 408 401q250 170 520 238q-41 102 -231 102q-178 0 -357 -53q-14 -119 -158 -215q-168 -113 -409 -112h-14q-160 -154 -209 -322zM616 569q223 6 375 101q131 84 150 186 q-304 -90 -525 -287zM692 -238q123 -20 260 -20q354 0 693 133q311 125 510.5 321.5t199.5 383.5q0 252 -340 251q-119 0 -241 -30q4 -29 4 -45q0 -195 -269 -385q-289 -205 -692 -238q-117 -185 -125 -371zM846 178q371 41 647 221q264 176 264 357q0 14 -4 39 q-258 -68 -506 -234q-254 -170 -401 -383z" />
<glyph unicode="3" horiz-adv-x="3696" d="M-641 1597q131 147 235 205q141 80 345 80q256 0 563 -164q117 -63 547 -352q348 -236 587 -328q94 375 471 665t766 290q266 0 316 -203q143 35 260 35q403 0 403 -361q0 -244 -209 -499q-215 -260 -561 -424q-379 -178 -807 -179q-193 0 -325 44q12 -252 172 -396 q172 -156 495 -155q623 0 1088 458q8 6 12 -2t-2 -16q-203 -207 -481 -338q-310 -145 -617 -145q-336 0 -514 168q-166 158 -176 434q-313 111 -313 438q0 70 12 133q-266 94 -610 332q-492 340 -537 366q-297 172 -542 172q-197 0 -336 -79q-88 -51 -228 -193q-4 -8 -12 0 t-2 14zM1632 854q0 -299 295 -403q2 225 113 448q-188 10 -395 80q-12 -61 -13 -125zM1655 1030q215 -78 405 -92q164 303 486 541q303 221 626 307q-47 188 -299 188q-377 0 -749 -286q-379 -291 -469 -658zM1948 444q147 -45 350 -45q401 0 772 174q338 158 549 409 t211 484q0 338 -381 338q-117 0 -256 -35q6 -31 6 -63q0 -188 -148.5 -377.5t-386.5 -308.5q-254 -125 -524 -125q-51 0 -76 2q-117 -223 -116 -448v-5zM2087 938q20 -2 61 -2q391 0 715 250q317 244 318 520q0 23 -5 59q-311 -84 -610 -305q-315 -233 -479 -522z" />
<glyph unicode="4" horiz-adv-x="2422" d="M-989 1223q100 135 205 194q115 61 280 62q231 0 475 -125q117 -59 414 -267q260 -180 430 -247q90 279 384 492.5t583 213.5q213 0 243 -137q90 25 173 25q309 0 309 -277q0 -188 -162 -391q-164 -209 -430 -340q-293 -145 -621 -145q-109 0 -207 20v-31 q0 -416 449 -415q438 0 891 458q8 6 12 -2t-2 -16q-246 -252 -444 -367q-221 -127 -455 -127q-471 0 -471 478v28q-283 78 -283 350q0 61 17 131q-193 72 -447 256q-326 236 -405 281q-233 133 -455 133q-291 0 -469 -248q-4 -4 -8 -4q-6 0 -6 17zM803 659q0 -231 268 -303 q18 176 117 363q-186 0 -371 63q-14 -72 -14 -123zM831 834q182 -70 365 -70h18q135 227 357 403q215 174 434 238q-27 125 -223 125q-279 0 -571 -212t-380 -484zM1092 352q100 -23 219 -22q289 0 571 137q262 125 433 320.5t171 369.5q0 258 -288 258q-82 0 -168 -24 q2 -10 2 -37q0 -229 -251 -428t-567 -207q-102 -189 -122 -367zM1243 766q274 16 514 186q254 180 254 400q0 23 -2 32q-211 -61 -422 -230t-344 -388z" />
<glyph unicode="5" horiz-adv-x="4980" d="M0 817q262 500 717 852q522 403 1065 404q307 0 483 -175q160 -160 172 -415q313 -111 313 -441q0 -65 -14 -145q223 -78 565 -311q453 -309 555 -369q317 -176 572 -176q197 0 336 80q88 51 227 192q4 8 12 0t2 -14q-131 -147 -235 -205q-141 -80 -344 -80 q-279 0 -596 166q-141 76 -551 352q-338 231 -555 314q-100 -373 -475 -664t-758 -291q-289 0 -322 213q-141 -33 -254 -32q-403 0 -403 360q0 244 212 502t558 422q379 178 807 178q184 0 326 -43q-12 236 -168 373q-166 145 -461 145q-522 0 -1018 -354 q-461 -330 -752 -848q-4 -4 -10 -4t-6 14zM535 430q0 -336 376 -336q117 0 256 35q-2 8 -2 29q0 309 320 569q327 268 739 268q47 0 70 -2q119 238 121 439q-147 45 -349 45q-375 0 -745 -170q-342 -158 -564 -405t-222 -472zM1188 135q309 82 602 297q309 225 475 510h-49 q-244 0 -490 -123q-233 -115 -383 -295q-156 -186 -155 -364v-25zM1192 111q29 -201 295 -201q371 0 745.5 288.5t472.5 653.5q-201 76 -411 88q-166 -295 -486 -528q-299 -217 -616 -301zM2320 991q201 -16 400 -88q12 66 12 137q0 281 -295 383q-8 -213 -117 -432z" />
<glyph unicode="6" horiz-adv-x="3317" d="M-8 297q424 492 649 666q371 289 776 288q236 0 371 -129q121 -119 129 -313q242 -86 242 -338q-1 -48 -11 -109q182 -72 437 -256q309 -225 405 -276q233 -131 459 -131q291 0 469 248q4 4 8 4q6 0 6 -17q-100 -135 -205 -194q-115 -61 -280 -62q-236 0 -477 123 q-123 63 -412 265q-256 180 -422 247q-80 -283 -379 -498.5t-596 -215.5q-209 0 -243 145q-84 -20 -173 -20q-309 0 -309 276q0 188 163 387t429 324q293 137 621 137q137 0 245 -33q-12 176 -133 277q-133 111 -381 110q-385 0 -743 -278q-203 -158 -627 -635q-4 -4 -8 -4 q-10 0 -10 12zM457 0q0 -258 288 -258q86 0 168 20q-2 12 -2 41q0 236 261.5 435.5t580.5 199.5q37 0 55 -2q86 168 88 328q-111 35 -264 35q-289 0 -571 -129q-264 -121 -434 -308.5t-170 -361.5zM932 -195q0 -27 2 -38q242 59 475 227q246 176 375 399h-37 q-291 0 -553 -189.5t-262 -398.5zM938 -252q31 -133 223 -133q287 0 583 215.5t376 491.5q-164 61 -314 69q-131 -233 -383 -414q-238 -170 -485 -229zM1831 436q150 -12 299 -67q10 57 10 100q0 209 -223 289q-8 -164 -86 -322z" />
<glyph unicode="7" horiz-adv-x="3452" d="M-8 305q244 274 635 275q350 0 772 -129q346 -119 690 -238q385 -129 645 -129q287 0 457 163t170 441q0 336 -277 551q-250 195 -567 195q-229 0 -375 -113q-160 -125 -160 -350q0 -10 -10 -10t-10 10q0 225 160 358q152 127 391 127q358 0 613 -222t255 -546 q0 -287 -175 -457t-472 -170q-293 0 -715 121q-362 113 -727 228q-422 121 -717 120q-354 0 -567 -237q-4 -4 -10 -4t-6 16z" />
<glyph unicode="8" horiz-adv-x="2727" d="M-12 305q115 129 309 205q213 86 475 86q473 0 1108 -113q549 338 883 338q166 0 254 -65q80 -59 80 -156q0 -106 -86 -172q-106 -80 -322 -80q-285 0 -838 82q-203 -133 -596 -381q168 -70 412 -231q276 -182 375 -232q211 -106 405 -106q29 0 58 2q14 2 14 -8 q0 -11 -14 -13q-33 -2 -68 -2q-201 0 -432 101q-150 63 -410 223q-283 172 -403 229q-322 -178 -522 -178q-256 0 -256 148q0 172 329 172q246 0 482 -93q193 125 583 377q-735 111 -1122 111q-172 0 -348 -55q-217 -70 -334 -201q-4 -4 -10 -4t-6 16zM434 -18q0 -51 55 -86 q63 -41 181 -41q190 0 493 172q-233 106 -422 106q-307 0 -307 -151zM1923 475q567 -106 768 -106q193 0 297 71q88 61 88 154q0 86 -70 141q-84 61 -243 62q-316 0 -840 -322z" />
<glyph unicode="9" horiz-adv-x="3080" d="M0 309q395 485 754 727q453 305 942 305q295 0 458 -131q152 -123 156 -321q346 -74 346 -363q0 -51 -12 -104q160 -74 160 -234q0 -104 -60 -211q125 -94 125 -241q0 -121 -86 -207q-94 -94 -239 -94q-85 0 -177 33q-6 2 -6 10t15 8q88 -35 170 -35q133 0 219 84 q80 80 80 191q0 133 -119 223q-104 -158 -318 -262q-201 -98 -383 -99q-205 0 -204 138q-182 -51 -357 -52q-203 0 -250 115q-125 -31 -247 -31q-360 0 -361 271q0 188 170 389q184 215 492 346q350 150 782 149q139 0 240 -20q-12 182 -158 287q-162 115 -453 114 q-823 0 -1663 -991q-4 -6 -12 -6q-4 0 -4 12zM627 29q0 -252 340 -252q119 0 241 30q-4 29 -4 46q0 195 269 385q289 205 692 237q117 185 125 365q-117 23 -260 22q-354 0 -693 -133q-311 -123 -510.5 -318.5t-199.5 -381.5zM1225 -147q0 -14 4 -39q258 68 509 235.5 t398 380.5q-371 -41 -647 -221q-264 -176 -264 -356zM1235 -205q41 -102 231 -102q178 0 357 53q14 119 157 215q168 113 410 113h14q160 153 209 321q-113 45 -303 45q-74 0 -147 -6q-147 -225 -408 -401q-250 -170 -520 -238zM1839 -268v-6q0 -51 48 -86t136 -35 q178 0 377 98q210 102 312 256q-121 80 -320 80q-233 -211 -553 -307zM1841 -248q303 90 524 287q-223 -6 -374 -100q-131 -84 -150 -187zM2189 477q78 4 117 4q196 0 317 -49q10 51 11 92q0 242 -326 312q-12 -176 -119 -359zM2429 74q186 -8 301 -86q53 96 53 190 q0 139 -149 209q-51 -164 -205 -313z" />
<glyph unicode=":" horiz-adv-x="516" d="M41 39q0 59 59 59t60 -59q0 -59 -60 -59q-59 0 -59 59zM463 653q0 60 59 60t60 -60q0 -59 -60 -59q-59 0 -59 59z" />
<glyph unicode=";" horiz-adv-x="516" d="M-82 -186q82 0 147.5 56.5t73.5 117.5q-14 -8 -30 -8q-57 0 -58 59q0 59 60 59q59 0 59 -78q0 -94 -78 -159.5t-174 -65.5v19zM473 653q0 60 59 60t60 -60q0 -59 -60 -59q-59 0 -59 59z" />
<glyph unicode="&#x3c;" horiz-adv-x="610" d="M-1962 35q-4 8 4 8q94 16 166 16q182 0 528 -98t469 -98q250 0 424 90q-66 66 -65 180q0 104 68.5 193.5t156.5 89.5q109 0 109 -127q0 -78 -58 -164q-66 -98 -180 -170q76 -63 227 -64q348 0 719 418l15 -14q-381 -426 -754 -426q-147 0 -227 74q-190 -100 -435 -101 q-231 0 -537 100.5t-460 100.5q-70 0 -162 -16q-6 0 -8 8zM-420 137q0 -111 70 -174q119 68 182 170q53 84 53 156q0 115 -96 114q-76 0 -142.5 -79.5t-66.5 -186.5z" />
<glyph unicode="=" horiz-adv-x="3219" d="M-12 305q328 369 837 369q242 0 557 -78q152 -39 555 -166q680 246 942 246q115 0 185.5 -57.5t70.5 -141.5q0 -94 -81 -162q-96 -80 -279 -79q-319 0 -885 153q-168 -63 -501 -182q123 -45 481 -195q430 143 624 144q104 0 164 -46.5t60 -113.5q0 -68 -64 -115 q-72 -51 -196 -51q-178 0 -617 154q-219 -78 -381 -129q94 -43 383 -203q270 84 373 84q96 0 145 -41t49 -101q0 -55 -44 -97t-115 -42q-109 0 -434 170q-111 -37 -328 -102q31 -20 225 -160q147 45 221 45q80 0 124 -35t44 -86q0 -88 -116 -88q-86 0 -293 142 q-90 -31 -178 -60q80 -86 157 -172q90 -88 150 -88q20 0 37 8q6 0 6 -6q0 -2 -2 -3t-2 -3q-16 -8 -41 -8q-76 0 -174 90q-6 6 -162 174q-78 -20 -133 -21q-129 0 -129 84q0 70 82 70q86 0 198 -113q55 16 174 58q-39 25 -117.5 79t-117.5 81q-168 -43 -264 -43 q-61 0 -95 29.5t-34 70.5q0 37 30.5 65.5t83.5 28.5q119 0 312 -129q82 25 321 102q-131 70 -393 201q-274 -82 -410 -82q-84 0 -130 33t-46 78q0 51 45 87t133 36q173 0 439 -121q125 41 378 127q-172 61 -512 182q-449 -150 -673 -149q-121 0 -188.5 44t-67.5 109 q0 72 67 117q78 53 228 53q303 0 688 -131q109 37 499 180q-467 125 -581 152q-324 72 -559 72q-412 0 -709 -330q-4 -4 -10 -4t-6 16zM391 182q0 -57 55 -94q63 -41 181 -41q209 0 637 141q-422 139 -609 140q-109 0 -182 -37q-82 -41 -82 -109zM836 -135q0 -39 43 -65.5 t114 -26.5q133 0 381 75q-256 119 -395 119q-143 0 -143 -102zM1065 -432q0 -86 115 -86q87 0 247 39q-188 125 -268 125q-94 0 -94 -78zM1237 -659q0 -74 117 -74q39 0 121 18q-104 109 -170 109q-68 0 -68 -53zM1729 -649q190 -135 266 -135q92 0 92 73q0 45 -43 75 t-107 30q-75 0 -208 -43zM1864 -358q293 -168 383 -168q66 0 104.5 35.5t38.5 84.5q0 51 -41 84q-47 39 -129 39q-102 1 -356 -75zM1898 2q373 -154 564 -154q115 0 176 43t61 107q0 55 -49 94q-57 45 -156 45q-186 0 -596 -135zM1972 418q526 -164 803 -164q162 0 258 72 q84 63 84 151q0 74 -61 125q-68 55 -177 55q-254 1 -907 -239z" />
<glyph unicode="&#x3e;" horiz-adv-x="927" d="M-2853 -745q0 229 234 391q262 182 696 182q307 0 913.5 -93t911.5 -93q506 0 774 198q225 168 225 420q0 147 -92 247.5t-248 100.5q-283 0 -557 -317l-14 14q287 322 571 322q166 0 264 -109q92 -102 93 -256q0 -264 -234 -440q-274 -209 -795 -209q-391 0 -974.5 92 t-843.5 92q-434 0 -684 -170q-223 -154 -223 -372q0 -193 171 -311t439 -118q256 0 422 87q174 92 174 239q0 123 -106.5 191.5t-288.5 68.5q-109 0 -217.5 -44t-149.5 -109q-10 0 -10 10q41 66 158.5 117t230.5 51q188 0 293.5 -78t105.5 -207q0 -143 -153 -244 q-170 -109 -459 -108q-287 0 -463 137q-164 129 -164 318z" />
<glyph unicode="?" horiz-adv-x="778" d="M51 39q1 59 60 59t59 -59t-59 -59t-60 59zM213 313q0 135 336 320q322 176 512 375q166 176 166 292q0 88 -94 89q-170 0 -338 -143.5t-168 -307.5q0 -72 55 -72q47 0 129 52q74 47 135 108l10 -18q-164 -160 -276 -160q-74 0 -74 90q0 170 178 324q170 147 349 147 q137 0 137 -145t-129 -285q-109 -119 -576 -369q-332 -178 -332 -297q0 -37 31 -37q51 0 85 58.5t57 58.5t22 -26q0 -39 -49 -75t-109 -36q-57 0 -57 57z" />
<glyph unicode="@" horiz-adv-x="6539" d="M215 455q0 233 246 397q283 186 778 186q152 0 330 -20q186 236 577 235q225 0 383 -106q166 -111 166 -279q0 -90 -49 -163q139 -57 295 -125q88 49 209 118q-340 145 -340 318q0 186 332 186q143 0 308 -65.5t284 -173.5q117 31 190 36q12 121 145 197t324 76 q270 0 455 -115q170 -106 221 -280q309 88 594 88q377 0 618 -179q215 -160 215 -362q0 -186 -172 -313q-190 -143 -514 -144q-297 0 -469 103q-154 92 -153 225q0 125 129 221q143 109 366 109q240 0 365 -101q94 -76 94 -168q0 -6 -8 -6q-6 0 -8 6q0 86 -88 152 q-117 84 -355 84q-199 0 -341 -85t-142 -212q0 -131 171 -220t439 -89q279 0 469 114q205 125 205 324q0 195 -221 332q-227 143 -565 143q-244 0 -613 -92q2 -12 2 -39q0 -221 -213 -365q-250 -168 -735 -167q-231 0 -471 47q-129 -53 -315 -54q-289 0 -682 191 q-299 -141 -555 -141q-303 0 -484 145q-160 131 -159 317q0 150 86 267q-154 18 -320 18q-487 0 -768 -184q-244 -162 -244 -387q0 -193 173 -310.5t442 -117.5q256 0 422 86q174 92 174 239q0 123 -106.5 191.5t-289.5 68.5q-109 0 -213 -43q-113 -45 -153 -110 q-6 -6 -10 -2q-6 4 0 12q43 68 154.5 121t221.5 53q186 0 297 -83t111 -208q0 -141 -152 -239q-170 -113 -456 -113q-287 0 -463 139q-164 127 -164 316zM1485 741q0 -188 174 -317t457 -129q247 0 540 133q-39 20 -118.5 60t-116.5 59q-88 -31 -207 -31q-158 0 -258 43 q-92 39 -92 92q0 61 114 62q180 0 467 -142q104 41 166 111q-582 268 -1036 322q-90 -111 -90 -263zM1585 1016q463 -59 1049 -305q47 72 47 157q0 147 -150.5 246.5t-384.5 99.5q-387 0 -561 -198zM1876 651q0 -45 88 -80q98 -39 248 -39q104 0 190 25q-279 141 -424 141 q-102 0 -102 -47zM2464 561q73 -37 227 -117q78 39 201 107q-174 84 -269 123q-61 -72 -159 -113zM2703 436q397 -195 652 -194q159 0 292 47q-330 68 -741 254q-90 -51 -203 -107zM2826 1016q0 -160 342 -307q319 182 543 247q-117 100 -281 164q-156 59 -288 60 q-154 0 -235 -45t-81 -119zM2957 571q465 -190 752 -252q157 84 184 246h-43q-369 0 -686 125q-18 -10 -207 -119zM3181 700q299 -121 661 -120h53q2 16 2 34q0 174 -170 330q-242 -68 -546 -244zM3727 313q252 -51 461 -51q440 0 678 154q209 137 209 352q0 23 -2 35 q-281 -76 -563 -150q-336 -80 -604 -88q-23 -162 -179 -252zM3750 950q160 -156 160 -336q0 -18 -2 -34q270 12 600 112q274 88 551 178q-51 164 -220 263q-182 109 -446 108q-205 0 -322.5 -64.5t-132.5 -175.5q63 8 152 9q154 0 248 -39q88 -39 88 -97q0 -96 -197 -96 q-121 0 -207 51q-98 57 -98 156q-88 -10 -174 -35zM3938 987q0 -84 86 -135t205 -51q184 0 184 71q0 49 -79 84q-90 39 -240 39q-93 0 -156 -8z" />
<glyph unicode="A" horiz-adv-x="2068" d="M-102 291q0 236 174 463q164 213 427 349t523 136q342 0 342 -252q0 -53 -21 -119q129 -37 386 -108q225 233 450 467q272 279 481 450q10 6 17 6q14 0 14 -12q0 -8 -14 -20q-268 -295 -631 -944q201 2 321 100q4 4 9 4q8 0 8 -8q0 -4 -6 -8q-136 -123 -355 -127 q-219 -395 -344 -570q-201 -276 -422 -403q-10 0 -10 4q2 6 6 10q205 152 394 418q113 160 333 543q-80 4 -208 41q-342 -395 -607 -568q-358 -237 -788 -237h-4q-244 0 -367 112q-109 98 -108 273zM-80 303q0 -336 436 -336q340 0 699 223q278 174 647 543 q-117 41 -369 115q-82 -217 -332 -402q-261 -192 -502 -192h-3q-199 0 -199 154q0 170 186 321q215 176 549 176q139 0 287 -33q25 61 24 121q0 225 -321 226q-395 0 -746 -285q-356 -291 -356 -631zM315 410q0 -135 181 -136q184 0 453.5 187.5t361.5 392.5 q-156 33 -277 33q-326 0 -536 -170q-182 -145 -183 -307zM1798 741q113 -26 205 -32q326 557 577 864q4 4 5 8q0 2 -2 2q-4 0 -9 -4q-190 -168 -409 -414q-184 -211 -367 -424z" />
<glyph unicode="B" horiz-adv-x="1863" d="M0 948q0 164 180 281q18 0 19 -6q0 -6 -6 -11q-176 -102 -177 -262q0 -84 60.5 -139t169.5 -55q238 0 545 170q-4 45 -5 69q0 295 274.5 547t588.5 252q356 0 356 -301q0 -168 -127 -333t-322 -249q205 -84 205 -305q0 -100 -49 -209q90 -39 158 -84q4 -4 4 -8 q0 -10 -10 -10q-78 51 -158 86q-88 -178 -264 -293q-197 -127 -436 -127q-258 0 -258 154q0 127 163 241q180 127 422 127q127 0 285 -51q55 115 55 217q0 180 -155 248q-119 -45 -246 -45q-84 0 -84 45q0 57 125 57q111 0 203 -26q176 84 294 264q113 172 113 332 q0 113 -63 178q-70 72 -205 72q-305 0 -577.5 -244t-272.5 -531q0 -23 4 -63q78 45 487 328q258 178 371 178q23 0 23 -15q0 -18 -33 -18q-100 0 -316 -213q-158 -158 -436 -496q37 -49 92 -98q6 -2 7 -10q0 -10 -9 -10q-6 0 -12 6q-47 43 -90 98q-199 -246 -569 -686h-166 q90 92 692 750q-39 68 -55 161q-311 -176 -549 -176q-115 0 -183 64q-63 57 -63 149zM764 117q0 -119 186 -119q211 0 400 127q170 117 260 293q-139 47 -277 47q-236 0 -409 -121q-160 -111 -160 -227zM811 922q12 -84 53 -156q524 567 735 645q1 1 1 2q0 2 -3 4 q-96 -27 -337 -196q-311 -221 -449 -299zM1210 897q0 -27 62 -27q105 0 209 41q-70 25 -170 25t-101 -39z" />
<glyph unicode="C" horiz-adv-x="1583" d="M-205 758q0 236 282.5 400.5t704.5 164.5q115 0 230 -14q209 186 424 303q201 110 315 110h2q195 0 195 -211q0 -264 -219 -557q33 -35 61 -94q6 -8 -2 -14q-10 -4 -12 10q-10 25 -56 90q-133 -178 -302 -299t-277 -121q-135 0 -166 123q-174 -98 -367 -147 q-59 -158 -59 -281q0 -152 123 -219q82 -47 190 -47q326 0 715 352l14 -14q-397 -358 -729 -359q-381 0 -381 404q1 59 11 135q-115 -29 -279 -29q-162 0 -283 82q-135 90 -135 232zM-86 561q117 -96 303 -96q134 0 279 27q80 406 497 800q-100 12 -211 13q-401 0 -680 -156 q-286 -159 -286 -389q0 -117 98 -199zM614 518q180 49 359 144q-6 25 -6 53q0 279 272 528q-86 23 -137 33q-133 -143 -264 -342q-152 -228 -224 -416zM991 674q74 43 142 88q256 176 391 354q-78 53 -217 107q-66 -66 -123 -142q-193 -253 -193 -407zM993 659 q18 -116 146 -116h2q104 0 271 120.5t298 294.5q-74 88 -172 150q-201 -265 -545 -449zM1116 1290q47 -10 137 -35q96 82 199 138q92 49 137 49q68 0 68 -72q0 -98 -111 -250q102 -65 170 -151q215 283 215 542q0 190 -178 191q-115 0 -287 -110.5t-350 -301.5zM1317 1233 q121 -44 217 -105q106 145 106 242q0 51 -51 51q-84 0 -272 -188z" />
<glyph unicode="D" horiz-adv-x="2095" d="M0 49q0 106 182 107q154 0 353 -70q193 117 417 375q59 68 391 483q236 297 396 440q-138 146 -367 177q-74 -307 -326.5 -569.5t-480.5 -262.5q-160 0 -159 160q0 244 247 461q269 235 630 235h3q47 0 72 -2q12 49 12 127q0 227 -254 227q-244 0 -493 -180 q-233 -168 -387 -429t-154 -499q0 -287 264 -358q6 -2 6 -8q0 -10 -12 -10q-276 78 -277 376q0 248 158 517q156 262 393 432q254 180 502 180q272 0 273 -248q0 -76 -13 -129q254 -20 408 -160q172 143 354 217q14 0 14 -10q-2 -6 -8 -6q-182 -80 -334 -223 q221 -219 222 -580q0 -342 -209 -590q-254 -297 -715 -297q-227 0 -516 109q-174 -92 -408 -92q-184 0 -184 100zM20 49q0 -74 160 -74q152 1 324 97q-194 65 -318 65h-4q-162 0 -162 -88zM422 889q0 -141 143 -141q201 0 465 284q256 275 322 531q-20 2 -66 2 q-248 0 -461 -117q-184 -102 -297 -268q-106 -154 -106 -291zM627 53q279 -98 481 -98q401 0 629 278q197 240 196 578q0 350 -170 547q-127 -127 -282 -346q-133 -190 -264 -381q-307 -430 -590 -578z" />
<glyph unicode="E" horiz-adv-x="1374" d="M-205 995q0 236 282.5 401t704.5 165q258 0 473 -68q92 82 193 137q90 49 131 49q78 0 78 -71q0 -104 -111 -250q170 -113 244 -260q0 -14 -6 -15q-6 0 -8 11q-70 139 -240 249q-197 -252 -524 -436q0 -39 12 -80q80 16 135 17q129 0 129 -76q0 -68 -110 -68 q-107 1 -168 97q-174 -63 -328 -256q-168 -205 -168 -398q0 -190 201 -190q315 0 655 354l14 -14q-340 -360 -667 -361q-305 0 -305 271q0 231 213 420q176 158 372 196q-14 31 -24 68q-379 -205 -760 -205q-162 0 -283 82q-135 90 -135 231zM-184 995q0 -125 114.5 -209 t286.5 -84q392 0 754 197q-4 29 -4 45q0 293 272 537q-209 61 -457 61q-416 0 -696 -166q-270 -160 -270 -381zM1012 924q338 199 512 430q-113 72 -209 100q-293 -317 -303 -530zM1034 805q41 -86 144 -86q88 0 88 49q0 57 -107 57q-66 0 -125 -20zM1329 1468 q105 -43 205 -102q106 145 106 242q0 51 -51 51q-76 0 -260 -191z" />
<glyph unicode="F" horiz-adv-x="1607" d="M-205 309q0 176 152 326q168 166 473 239q23 295 217 584q182 266 447.5 439.5t500.5 173.5q256 0 295 -226q23 2 68 2q225 0 381 -80q84 -43 198 -147q86 -80 139 -80q16 0 32 7t22 7q16 0 16 -14q0 -29 -70 -29q-74 0 -262 160q-100 86 -186 119q-106 39 -270 39h-33 q-21 -2 -33 -2q2 -14 2 -45q0 -272 -228.5 -535.5t-463.5 -263.5q-168 0 -168 168q0 233 242 444q250 217 589 248q-33 207 -270 207q-225 0 -483 -165t-436 -423q-195 -283 -226 -583q178 43 400 43q10 0 10 -11q0 -10 -10 -10q-209 0 -402 -43q-2 -18 -2 -53 q0 -336 297 -455q10 0 10 -8q0 -10 -18 -10q-307 121 -307 471v51q-285 -70 -451 -231q-151 -144 -151 -310q0 -158 135 -256q145 -106 405 -106q434 0 822 336q252 219 583 698q-238 0 -467 -215q-14 0 -14 8t8 10q233 244 467 244q25 0 37 -2q195 276 281 375 q145 172 266 217q18 0 18 -10q0 -8 -10 -8q-133 -61 -262 -226q-90 -117 -225 -356q41 -10 127 -31q66 68 145 68q74 0 74 -47q0 -57 -99 -58q-63 0 -118 7q-43 -53 -76 -127q-2 -6 -8 -7q-6 0 -7 13q18 45 64 123q-41 8 -127 18q-197 -342 -311 -496q-205 -270 -447 -409 q-295 -172 -680 -172q-283 0 -448 121q-154 111 -154 284zM1044 1151q0 -147 138 -147q225 0 452 268q225 262 226 512q0 27 -2 41q-340 -29 -586 -254q-227 -207 -228 -420zM2011 985q57 -10 103 -10q71 0 71 36q0 29 -50 29h-3q-62 0 -121 -55z" />
<glyph unicode="G" horiz-adv-x="1759" d="M-102 193q0 6 14 10q55 14 123 41q-14 66 -15 114q0 147 91 310q133 240 405 385q279 149 615 149h4q41 0 61 -2q39 55 96 125q178 213 463 432q326 254 481 254q106 0 107 -90q0 -127 -197 -362q-211 -254 -557 -519q76 -70 119 -155q10 10 35 28q301 244 434 336 q8 8 18 8q14 0 15 -12q0 -6 -12 -12q-33 -27 -269 -258q-53 -53 -180 -211q16 -55 16 -143q0 -199 -116 -355q-121 -164 -326 -217q-14 0 -14 10t10 11q203 51 317 213q109 150 109 340q0 61 -12 122q-356 -449 -551 -579q-348 -236 -647 -236q-184 0 -315.5 80t-178.5 215 q-39 -14 -125 -41q-18 -2 -18 9zM49 350q0 -51 12 -98q516 176 947 424q-10 35 -11 67q0 176 183 437q-14 2 -45 2q-319 0 -582 -140q-233 -123 -373 -323q-131 -188 -131 -369zM68 233q72 -221 381 -221q313 0 686 269q221 162 581 526q-4 14 -14 37q-324 -270 -572 -271 q-84 0 -118 86q-420 -248 -944 -426zM1032 690q274 160 527 352q-115 94 -281 127q-246 -311 -246 -479zM1034 672q18 -78 109 -78q215 0 549 274q-47 96 -119 160q-238 -180 -539 -356zM1292 1188q164 -35 283 -133q6 4 41 30q313 246 516 496q186 229 186 338q0 57 -59 57 q-266 0 -819 -616q-84 -94 -148 -172zM1718 860q2 -6 7.5 -18.5t7.5 -18.5q178 182 264 254l-6 8q-43 -29 -273 -225z" />
<glyph unicode="H" horiz-adv-x="2072" d="M-102 385q0 338 303 590q291 242 647 242q338 0 338 -271v-31q72 -18 162 -53q0 215 114 445q106 215 268 361.5t302 146.5q74 0 73 -78q0 -100 -129 -375q-152 -322 -364 -608q156 -66 260 -80q233 309 430 491q215 203 334 203q29 0 53 -10q90 129 250 129q16 0 16 -17 q0 -16 -24 -16q-150 0 -226 -104q45 -33 45 -93q0 -75 -56 -75h-1q-49 0 -49 65q0 47 33 94q-18 6 -41 7q-199 0 -686 -682q211 0 338 100q4 4 8 4q8 0 8 -8q0 -4 -6 -8q-147 -127 -375 -127q-223 -313 -401 -627h-105q180 309 426 637q-90 18 -248 92q-564 -749 -1190 -749 h-2q-242 0 -373.5 109.5t-131.5 295.5zM-82 387q0 -156 102 -248q115 -104 349 -104q469 0 999 588q-22 108 -22 217q-94 39 -162 55q-35 -256 -299 -438q-238 -164 -471 -164q-207 0 -207 170q0 186 224 334.5t491 148.5q131 0 245 -26v26q0 117 -83 184.5t-236 67.5 q-344 0 -631 -235q-299 -246 -299 -576zM225 463q0 -152 189 -152q207 0 450 170q268 187 301 418q-109 29 -243 29q-260 0 -476 -142q-221 -143 -221 -323zM1366 831q0 -98 18 -190q39 47 113 133q-43 20 -131 57zM1366 856l147 -61q262 326 416 591q145 248 146 353 q0 55 -43 55q-248 0 -463 -344q-193 -309 -203 -594zM2662 1249q0 -47 31 -47q37 0 37 58q0 50 -37 73q-31 -49 -31 -84z" />
<glyph unicode="I" horiz-adv-x="1724" d="M-141 389q0 213 194 371q215 174 557 174q428 0 764 -238q41 287 164 539q119 246 289 399q178 162 313 162q90 0 90 -102q0 -90 -73 -258q-233 -535 -566 -936q80 -86 154 -197q0 -16 -8 -16q-2 0 -6 4q-80 119 -152 192q-107 -123 -203 -207q12 -154 47 -280 q0 -16 -10 -16q-2 0 -6 4q-39 141 -47 278q-383 -319 -838 -319q-322 0 -502 137q-162 123 -161 309zM-113 397q0 -168 140 -276q156 -121 434 -121q459 0 893 424q0 121 18 246q-337 243 -759 243h-3q-330 0 -536 -165q-186 -150 -187 -351zM1372 442q39 43 121 129 q-66 57 -104 86q-17 -111 -17 -215zM1391 682q69 -53 116 -94q406 457 611 866q82 164 82 244q0 74 -66 74q-121 0 -290 -155t-288 -396q-123 -252 -165 -539z" />
<glyph unicode="J" horiz-adv-x="2164" d="M-410 -66q0 324 277 629q313 346 807 445q137 377 459 675q344 319 675 320q276 0 312 -264q182 -2 329 -45q143 -49 287 -97q82 53 164 54q102 0 102 -52q0 -51 -102 -51q-70 0 -164 23q-260 -166 -749 -1012q47 -111 47 -231q0 -229 -166 -455q-2 -10 -13 -10 q-10 0 -10 16q164 223 164 447q0 98 -37 204q-636 -1132 -1710 -1132h-2q-330 0 -508 158q-162 143 -162 378zM-381 -61q0 -225 150 -361q165 -149 467 -149h4q502 0 931 327q365 276 760 860q-78 137 -227 234q-281 -281 -526 -281q-162 0 -162 164q0 127 86 295h-53 q-186 0 -365 -37q-61 -172 -61 -317q0 -336 297 -455q10 0 10 -8q0 -10 -19 -10q-307 121 -307 471q0 137 62 317q-471 -104 -772 -430q-274 -301 -275 -620zM692 1012q96 37 357 37q43 0 63 -2q141 268 393 462q287 223 586 230q-33 243 -281 243h-2q-313 0 -653 -307 q-322 -291 -463 -663zM1036 737q0 -147 142 -147h2q224 0 493 280q-227 137 -545 156q-92 -166 -92 -289zM1139 1044q311 -18 547 -159q174 182 291.5 403t117.5 367q0 45 -2 63q-281 -4 -563 -221q-244 -188 -391 -453zM1720 864q148 -96 226 -229q96 133 198 276 q211 297 273 375q164 205 290 295q-135 45 -270 88q-147 47 -315 49q2 -20 2 -63q0 -172 -115 -395q-113 -215 -289 -396zM2767 1589q66 -16 133 -16q72 0 72 26q0 27 -72 27q-61 0 -133 -37z" />
<glyph unicode="K" horiz-adv-x="2146" d="M-193 389q0 238 252 430q272 207 662 207q334 0 508 -147l155 143q315 295 482 430q61 51 299 219q121 86 153 86q29 0 29 -28q0 -12 -39 -31q-59 -29 -110 -70q-141 -115 -377 -459q-307 -449 -428 -594q4 -45 4 -65q0 -139 -71 -256t-183 -170q-12 0 -13 12q0 2 5 6 q111 51 175 162t64 242q0 31 -2 45q-475 -565 -1012 -565q-264 0 -408.5 108.5t-144.5 294.5zM-168 389q0 -156 113 -246q123 -98 366 -98q270 0 547 188q221 150 483 451q-39 92 -114 166q-444 -403 -791 -582l-10 17q326 164 786 579q-170 141 -491 142 q-362 0 -625.5 -188.5t-263.5 -428.5zM1243 864q74 -68 115 -164q8 8 420 512q244 299 407 433l-8 10q-223 -147 -485 -379q-223 -207 -449 -412zM1667 72q0 104 103.5 381.5t103.5 365.5q0 16 -4 37q-37 -6 -82 -6q-106 0 -107 53q0 47 84 47q96 0 131 -67q133 33 297 155 q84 63 293 252q203 182 320 258q178 115 327 115q156 0 156 -70q0 -25 -24 -24q-23 0 -66 25.5t-100 25.5q-147 0 -361 -174q-197 -170 -391 -340q-243 -201 -440 -242q14 -41 14 -100q0 -143 -101.5 -432t-101.5 -312q0 -27 25 -26q90 0 399 313l15 -14 q-315 -319 -416 -320q-74 0 -74 99zM1706 903q0 -35 82 -35q41 1 76 9q-23 57 -105 57q-53 0 -53 -31z" />
<glyph unicode="L" horiz-adv-x="1683" d="M-143 49q0 106 225 107q139 0 324 -54q258 164 651 652q-195 -72 -453 -72q-190 0 -297 72q-121 80 -121 237q0 231 284 400.5t704 169.5q258 0 483 -72q184 190 313 190q78 0 78 -71q0 -100 -111 -250q168 -106 244 -260q0 -14 -6 -15q-6 0 -8 11q-70 141 -238 252 q-250 -328 -696 -527q-389 -547 -733 -743q221 -68 274 -82q162 -39 299 -39q188 0 338 100q92 61 268 252l15 -14q-365 -406 -678 -406q-135 0 -295 54q-49 16 -272 106q-193 -98 -408 -98q-184 0 -184 100zM-123 49q0 -74 160 -74q155 1 325 105q-162 57 -280 57 q-205 0 -205 -88zM207 991q0 -291 397 -291q236 0 469 76q147 188 295 377q168 211 274 322q-206 67 -461 67h-7q-401 0 -680 -156q-287 -160 -287 -395zM1249 844q135 59 275 155q256 177 391 355q-82 51 -223 106q-80 -90 -207 -274q-119 -172 -236 -342zM1704 1475 q108 -37 221 -109q106 143 107 242q0 51 -52 51q-119 0 -276 -184z" />
<glyph unicode="M" horiz-adv-x="2297" d="M-410 276q0 262 267 465q303 233 798 234q420 0 709 -193q174 195 483 584q334 416 477 582q10 6 17 6q14 0 14 -12q0 -10 -12 -21q-221 -272 -492 -823q-78 -170 -254 -537q47 -68 74 -125q203 223 406 449q242 260 497 495q150 137 244 195q102 61 195 61q33 0 32 -20 q0 -23 -41 -23q-221 0 -471 -350q-231 -326 -450 -728t-219 -495q0 -27 24 -26q55 0 172 96q70 57 234 217l14 -14q-168 -164 -240 -223q-119 -96 -182 -97q-68 0 -67 70q0 238 282 672q193 295 473 622q4 4 4 9q0 4 -12 4q-147 -133 -414 -424q-233 -258 -469 -516 q53 -115 66 -250q0 -12 -8 -13q-10 0 -10 11q-13 120 -62 235q-332 -356 -532 -516q-6 -6 -17 -6q-14 0 -14 12q0 10 14 19q211 197 447 665q-59 78 -140 146q-303 -383 -591 -574q-358 -235 -777 -235h-4q-223 0 -350 110q-115 100 -115 262zM-387 287q0 -141 98 -230 q109 -94 301 -94q342 0 699 232q297 194 641 575q-279 188 -697 188q-481 0 -782 -227q-260 -197 -260 -444zM1278 45q0 -10 4 -10q2 0 10 4q203 201 365 383q-23 49 -70 119q-176 -360 -309 -496zM1440 727q69 -53 137 -139q84 172 248 514q238 487 438 735q0 9 -3 9 q-2 0 -5 -3q-150 -180 -406 -547q-283 -408 -409 -569z" />
<glyph unicode="N" horiz-adv-x="2021" d="M-207 375q0 236 207 401q262 211 774 211q410 0 758 -182q27 39 309 467q178 270 299 405q6 6 14 6q16 0 17 -16q0 -6 -6 -16q-109 -188 -180 -402q-49 -141 -119 -422l-56 -221q61 -55 113 -123q121 211 245 421t230 302q131 117 291 117q156 0 156 -70q0 -25 -25 -24 q-23 0 -65.5 25.5t-100.5 25.5q-131 0 -246 -102q-94 -86 -219 -285l-254 -426q55 -72 95 -164q4 -4 4 -8q0 -12 -13 -12q-6 0 -6 10q-39 88 -90 156q-199 -324 -395 -572q-6 -6 -12 -6q-18 0 -19 16q0 8 6 15q170 260 275 706q-80 70 -174 131q-223 -389 -461 -579 q-317 -256 -754 -256q-219 0 -389 108q-209 131 -209 363zM-55 92q145 -129 401 -129q348 0 664 248q242 190 512 577q-336 178 -748 179q-496 0 -754 -205q-204 -163 -204 -385q0 -170 129 -285zM1610 37q2 0 5 -4l3 -4q141 184 293 438q-49 63 -107 117 q-94 -371 -194 -547zM1616 756q102 -66 170 -127q76 319 108 428q80 266 201 516q-2 0 -4 4q-1 3 -3 3l-1 -1q-100 -123 -234 -375q-119 -223 -237 -448z" />
<glyph unicode="O" horiz-adv-x="1908" d="M-20 266q0 25 8 25q4 0 6 -8q57 -160 282 -160q59 0 117 14q-28 72 -28 164v6q0 326 253 686q238 336 594 563q369 233 689 234q213 0 213 -172q0 -115 -107 -272q41 -78 41 -201q0 -326 -221 -627q-197 -264 -506 -436q-297 -164 -553 -164q-279 0 -367 201 q-63 -14 -122 -15q-236 0 -299 162zM444 264q1 -65 15 -110q186 57 440 211q-96 63 -96 204q0 217 153 443q143 207 359.5 346t400.5 139q203 0 283 -133q96 147 96 254q0 151 -168 151h-2q-223 0 -573 -223q-369 -233 -619 -557q-289 -375 -289 -725zM465 135 q66 -190 323 -190q242 0 529 159q301 168 493 428q217 293 218 613q0 111 -33 182q-162 -233 -458 -502.5t-599 -457.5q49 -18 104 -19q213 0 396 189q6 6 10 6q8 0 8 -15q-194 -198 -416 -198h-2q-66 0 -118 24q-267 -164 -455 -219zM842 526q0 -102 78 -149 q315 199 614 471t453 498q-70 133 -271 133q-172 0 -387 -170q-199 -160 -340 -383q-147 -231 -147 -400z" />
<glyph unicode="P" horiz-adv-x="1378" d="M-205 266q0 129 107.5 240.5t298.5 169.5q-35 92 -35 264q0 262 166 504q156 225 387 340q188 94 336 94q199 0 268 -162q205 -2 326 -110q106 -96 129 -258q45 18 141 41q20 0 20 -15q0 -6 -16 -6q-82 -18 -141 -41q0 -8 2 -29v-30q0 -260 -176 -443 q-155 -163 -334 -163h-2q-33 0 -45 2q-20 -43 -62 -121q143 -98 221 -232q6 -2 7 -10q0 -8 -11 -8q-6 0 -12 10q-80 133 -215 223q-135 -252 -270 -368q-262 -223 -637 -224q-182 0 -317.5 94.5t-135.5 237.5zM-182 266q0 -119 102 -192q111 -78 307 -78q268 0 478 162 q167 129 362 424q-229 123 -535 123q-166 0 -307 -41q10 -23 35 -60q4 -4 4 -8q0 -8 -10 -8q-4 0 -8 4q-27 39 -39 67q-180 -53 -284.5 -160.5t-104.5 -232.5zM182 940q0 -160 35 -258q139 41 315 41q314 0 545 -127q25 33 66 94q-61 39 -62 103q0 51 38 92t91 41 q18 0 37 -6q6 0 6 -9q0 -10 -12 -10q-14 6 -31 6q-41 0 -75.5 -31.5t-34.5 -82.5q0 -55 51 -88q72 106 143 213q100 143 193 233q123 123 254 178q-12 176 -129 275q-109 90 -283 94q20 -66 21 -135q0 -305 -226 -539q-209 -219 -440 -219q-209 0 -209 207q0 250 261 474 t567 230q-59 143 -246 144q-143 0 -332 -95q-225 -113 -379 -335q-164 -238 -164 -490zM496 1008q0 -176 180 -177q205 0 403 220q248 272 248 530q0 66 -18 117q-289 -2 -551 -226.5t-262 -463.5zM1235 680h25q139 0 310 199.5t171 412.5v17q-78 -35 -164 -105 q-149 -121 -342 -524z" />
<glyph unicode="Q" horiz-adv-x="2035" d="M41 475q0 47 47 79t127 32q121 0 254 -58q63 270 336 572q258 287 590 479q344 201 606 201q194 0 194 -156q0 -53 -22 -117q96 -86 96 -276q0 -356 -338 -721q-319 -342 -739 -496q281 -236 489 -352q279 -154 510 -154q246 0 449 99q14 0 14 -10q0 -6 -6 -9 q-74 -59 -188 -100q-139 -49 -285 -49q-266 0 -557 170q-199 119 -496 381q-172 -53 -313 -53q-365 0 -373 358q-197 4 -301 59q-94 47 -94 121zM61 473q0 -61 86 -104q102 -53 289 -56q0 87 27 189q-123 65 -248 65h-4q-68 0 -109 -27.5t-41 -66.5zM516 240q0 -115 64 -187 q80 -94 249 -94q115 0 275 47q-129 119 -387 334q-100 -33 -197 -43q-4 -37 -4 -57zM522 317q82 10 176 37q-84 66 -143 101q-27 -78 -33 -138zM565 483q80 -41 178 -112q147 42 340 153q-59 55 -59 158q0 217 154 436q141 201 357 333t402 132q139 0 222 -63q18 47 18 94 q0 147 -176 147q-213 0 -524 -213q-289 -197 -547 -495q-264 -305 -365 -570zM764 356q64 -46 410 -327q412 139 737 487q338 365 338 709q0 180 -86 262q-90 -213 -389 -488.5t-648 -474.5q40 -30 107 -30h4q109 0 252 68.5t268 176.5q10 12 21 13q8 0 8 -9q-2 -8 -8 -12 q-129 -115 -277 -184q-154 -74 -272 -74q-74 0 -127 37q-160 -88 -338 -154zM1110 539q317 166 629 448q322 293 411 512q-74 66 -213 66q-166 0 -378 -152q-203 -145 -347 -350q-149 -214 -149 -379q0 -100 47 -145z" />
<glyph unicode="R" horiz-adv-x="1910" d="M-209 348q0 174 175 297t419 123q346 0 612 -258q92 111 308 410q193 270 311 401q182 201 360 293q-53 104 -163.5 164.5t-256.5 60.5q-27 0 -40 -2q22 -55 22 -134v-7q0 -326 -231 -572q-215 -229 -449 -229q-192 0 -192 209q0 164 102 323q94 150 254 256 q211 141 465 172q-61 141 -242 142q-164 0 -352 -119q-197 -125 -320 -322q-139 -221 -139 -466q0 -10 -8 -11q-8 0 -8 11q0 256 141 481q125 199 326 323q190 121 362 121q195 0 262 -157h43q315 0 455 -232q78 37 170 55q10 0 10 -12q0 -8 -6 -8q-86 -16 -164 -53 q51 -96 51 -205q0 -172 -114 -340q-103 -150 -281 -195q18 -43 19 -104q0 -143 -104.5 -432t-104.5 -312q0 -27 24 -26q90 0 400 313l14 -14q-315 -319 -416 -320q-74 0 -73 99q0 104 106.5 381.5t106.5 365.5q0 16 -5 41q-51 -10 -81 -10q-106 0 -107 53q0 47 84 47 q86 0 125 -57q141 61 246 215q112 163 112 325q0 93 -32 160q-168 -88 -332 -299q-90 -119 -279 -426q-184 -297 -299 -442q248 -299 332 -807q0 -14 -6 -14t-10 4q-92 504 -334 797q-346 -418 -815 -418q-186 0 -316 96q-137 102 -137 264zM-186 346q0 -137 105.5 -217 t303.5 -80q387 1 758 443q-258 256 -602 256q-231 0 -398 -119t-167 -283zM686 1106q0 -188 172 -188q190 0 420 253q240 266 240 525q0 80 -23 141q-248 -25 -461 -170q-156 -106 -250 -254q-98 -154 -98 -307zM1477 903q0 -35 82 -35q34 1 73 13q-23 53 -102 53 q-53 0 -53 -31z" />
<glyph unicode="S" horiz-adv-x="1519" d="M-307 199q0 8 6 8q119 18 238 49q-8 35 -9 78q0 215 205 371.5t518 156.5q250 0 479 -117q162 90 312 189q219 549 403 772q150 182 293 182q121 0 121 -123q0 -121 -139 -282q-217 -254 -582 -506q-70 -213 -156 -412q119 -123 156 -248q0 -25 -8 -24q-10 0 -10 16 q-35 123 -148 236q-152 -324 -358 -467q-215 -147 -549 -148q-199 0 -339 85t-183 223q-129 -31 -236 -50q-14 0 -14 11zM-49 338q0 -35 10 -76q532 131 1151 473q-209 106 -461 107q-309 0 -512 -162q-188 -150 -188 -342zM-33 244q84 -248 479 -248q522 0 846 622 q-70 55 -159 107q-588 -331 -1166 -481zM1151 735q95 -51 152 -98q72 137 122 264q-139 -90 -274 -166zM1548 1008q358 252 555 485q133 160 133 270q0 104 -98 105q-129 0 -270 -180q-173 -217 -320 -680z" />
<glyph unicode="T" horiz-adv-x="1726" d="M-205 309q0 86 41 170q78 160 264.5 269.5t452.5 150.5q23 256 198 540.5t423 469.5q269 198 527 198h3q258 0 305 -223q33 4 62 4q231 0 395 -100q55 -35 182 -150q83 -77 148 -77h2q20 0 34.5 10t22.5 10q12 0 12 -16q0 -10 -8 -15q-31 -14 -61 -14q-72 0 -168 76 q-168 131 -195 147q-172 106 -367 107q-33 0 -53 -2q10 -55 10 -111q0 -223 -186 -510t-428 -428q55 -27 164 -88q203 281 403 561q211 276 361 334q12 6 16 -4q2 -10 -8 -14q-178 -82 -365 -371q-166 -279 -331 -559q131 -104 207 -230q2 -4 2 -6q0 -14 -13 -14q-8 0 -8 10 q-76 127 -199 223q-227 -350 -479 -526q-326 -227 -764 -227q-283 0 -448 121q-154 111 -154 284zM-184 311q0 -156 135 -254q145 -106 405 -106q367 0 695 233q246 177 512 527q-90 59 -174 92q-145 -78 -267 -78q-162 0 -161 172q-78 4 -121 4q-143 0 -271 -18v-27 q-2 -16 -2 -27q0 -336 297 -454q10 0 8 -10t-10 -11q-4 0 -6 2q-307 121 -307 471q0 33 2 52q-344 -53 -549 -226q-186 -156 -186 -342zM571 903q123 18 269 19q41 0 123 -4q4 152 153 370q154 227 373 389q252 185 498 205q-20 92 -95 148.5t-188 56.5q-258 0 -543 -217 q-295 -225 -467 -572q-104 -211 -123 -395zM981 895q0 -150 137 -150q80 0 207 80q-152 55 -344 70zM983 918q197 -16 365 -76q240 156 428 395q223 283 223 516q0 66 -8 109q-387 -31 -742 -437q-256 -293 -266 -507z" />
<glyph unicode="U" horiz-adv-x="1626" d="M102 936q0 240 146 465q131 203 336 334q199 129 368 129q201 0 256 -166q291 -14 291 -314q0 -221 -239 -479q-82 -90 -535 -504q-293 -270 -293 -358q0 -51 51 -51q176 0 789 616q340 354 678 709q150 137 243 194q102 61 195 62q33 0 33 -21q0 -23 -41 -22 q-221 0 -471 -350q-698 -981 -699 -1160q0 -27 25 -26q121 0 387 313l14 -14q-272 -319 -403 -320q-68 0 -68 66q0 203 297 620q139 197 488 615q4 4 4 8t-12 4q-319 -340 -642 -678q-625 -637 -817 -637q-80 0 -80 86q0 141 279 432q256 254 514 508q260 270 260 453 q0 215 -244 233q14 -49 15 -118q0 -299 -242 -555q-227 -242 -457 -242q-197 0 -196 215q0 285 295 508q268 203 547 207q-45 149 -222 149h-2q-164 0 -358 -127q-201 -131 -330 -329q-143 -223 -143 -455q0 -156 78 -262q4 -4 4 -8q0 -8 -11 -9q-4 0 -8 5q-80 109 -80 274z M352 983q0 -90 48.5 -142.5t129.5 -52.5q197 0 431 285q229 279 229 498q0 63 -10 112q-270 -2 -533 -196q-295 -215 -295 -504z" />
<glyph unicode="V" horiz-adv-x="1228" d="M0 733q0 170 154 404q158 244 393 413q266 193 532 213q-43 242 -288 242q-166 0 -375 -111.5t-389 -302.5q-4 -4 -11 -4q-8 0 -8 10q0 4 4 9q184 193 397.5 306t383.5 113q272 0 305 -260q20 2 55 2q164 0 311 -53q111 -49 219 -98q92 35 175 35q102 0 102 -52 q0 -51 -102 -51q-76 0 -158 31q-152 -88 -346 -373q-47 -68 -371 -596q-250 -403 -444 -643q-4 -4 -4 -8q0 -2 2 -2t8 4q78 74 604 662q422 469 719 692q421 321 778 321h2q119 0 184 -28q53 -23 54 -49q0 -20 -27 -21q-18 0 -68.5 34t-152.5 34q-350 0 -787 -346 q-279 -223 -745 -736q-477 -522 -647 -661q-8 -6 -17 -6q-14 0 -14 12q0 8 14 20q117 125 306 480q279 520 335 616q291 481 570 614q-109 47 -219 97q-139 51 -281 51q-35 0 -51 -2q6 -51 6 -90q0 -246 -180 -518q-158 -242 -388.5 -414t-385.5 -172q-154 0 -154 182z M20 737q0 -166 142 -166q147 0 370.5 170t378.5 406q176 268 176 508q0 51 -6 88q-268 -25 -532 -217q-227 -168 -381 -408q-147 -227 -148 -381zM1731 1597q59 -24 122 -24h5q72 0 71 26q0 27 -71 27q-64 0 -127 -29z" />
<glyph unicode="W" horiz-adv-x="1523" d="M-246 733q0 168 152 400q158 242 391 411q264 195 537 219q-43 242 -289 242q-166 0 -375 -111.5t-389 -302.5q-4 -4 -10 -4q-4 0 -4 19q184 193 397 306t383 113q266 0 305 -260q18 2 55 2q164 0 314 -55q109 -49 219 -98q90 37 172 37q102 0 102 -52q0 -51 -102 -51 q-82 0 -160 33q-152 -86 -344 -371q-39 -57 -371 -598q-248 -403 -444 -645q-4 -4 -4 -8q0 -2 2 -2t8 4q223 211 834 879q430 471 643 590q14 8 26 8q27 0 27 -19q0 -16 -31 -37q-143 -92 -270 -307q-129 -238 -258 -475q-195 -342 -430 -633q-4 -4 -4 -8q0 -2 2 -2t8 4 q100 94 747 801q528 580 893 856q522 399 942 399q119 0 185 -28q53 -23 53 -50q0 -20 -27 -20q-18 0 -68 34t-153 34q-414 0 -948 -426q-344 -272 -920 -897q-588 -635 -790 -801q-8 -6 -17 -6q-14 0 -14 12q0 8 14 20q117 125 412 656q301 543 457 721q0 14 -13 14 q-223 -195 -671 -700q-424 -477 -715 -717q-8 -6 -16 -6q-14 0 -15 12q0 8 15 20q111 121 299 480q262 500 340 628q285 469 571 602q-109 47 -217 97q-139 51 -283 51q-39 0 -51 -2q6 -39 6 -90q0 -246 -180 -518q-158 -242 -388.5 -414t-385.5 -172q-154 0 -154 182z M-225 737q0 -166 141 -166q147 0 370.5 170t379.5 406q176 268 176 508q0 51 -6 90q-272 -29 -535 -221q-227 -166 -381 -404q-145 -225 -145 -383zM1485 1597q67 -24 123 -24h4q72 0 71 26q0 27 -71 27q-64 0 -127 -29z" />
<glyph unicode="X" horiz-adv-x="1812" d="M-143 199q0 35 6 65q2 12 12 12q8 0 8 -12q-6 -33 -6 -63q0 -180 242 -181q340 0 663 259q285 227 475 581q-109 0 -184 -29q-14 0 -14 7q0 4 6 6q100 41 207 41q55 106 94 209q80 215 80 372q0 164 -86 248q-80 76 -217 76q-229 0 -492 -182q-217 -152 -356 -387 q-131 -223 -131 -408q0 -227 203 -235q-2 14 -2 43q0 227 120 450q109 205 278 339t316 134q166 0 166 -168q0 -137 -112 -325q-121 -203 -304 -336q-213 -156 -442 -158q12 -100 68 -174q0 -16 -9 -16q-8 0 -12 10q-53 82 -65 180q-225 8 -226 262q0 188 131 414 q137 242 359 395q272 190 549 191q166 0 260 -82q106 -90 106 -262q0 -178 -106 -414q-43 -96 -96 -184q29 -6 84 -21q246 338 520 565q309 256 526 256q49 0 76 -14q88 135 254 135q16 0 16 -16t-16 -17q-150 0 -236 -110q49 -35 49 -96q0 -78 -59 -78q-51 0 -51 69 q0 45 31 95q-27 10 -64 10q-213 0 -494 -250q-248 -219 -479 -563q16 -2 41 -2q43 0 94 18q14 0 15 -4q0 -6 -8 -10q-70 -27 -158 -27q-152 -225 -245 -438t-93 -332q0 -102 76 -102q248 0 583 362l15 -14q-342 -369 -600 -369q-158 0 -158 154q0 272 346 749q-27 8 -82 21 q-213 -352 -522 -586q-348 -262 -684 -262q-266 0 -266 199zM383 625q0 -33 2 -47q195 0 399 157q178 137 308 340q123 193 122 318q0 131 -139 131q-137 0 -301 -133.5t-272 -331.5q-119 -219 -119 -434zM2529 1552q0 -45 31 -45q37 0 37 56q0 48 -39 73q-29 -47 -29 -84z " />
<glyph unicode="Y" horiz-adv-x="2138" d="M-410 -68q0 272 205 543q219 289 578 440q287 121 616 134q193 281 445 467q271 200 495 200h2q139 0 140 -129q0 -231 -449 -663q96 -47 178 -119q248 199 656 575q147 137 246.5 196.5t191.5 59.5q33 0 33 -20q0 -23 -41 -23q-150 0 -299 -151q-117 -117 -285 -383 q-155 -254 -311 -508q43 -111 43 -223q0 -229 -166 -455q-2 -10 -13 -10q-10 0 -10 16q164 223 164 447q0 106 -37 198q-332 -514 -665 -772q-459 -354 -1049 -354q-330 0 -506 156q-162 143 -162 378zM-383 -66q0 -223 150 -358q162 -147 462 -147q532 0 983 366 q305 250 717 821q-51 90 -127 160q-442 -356 -612 -356q-57 0 -57 67q0 84 354 469q-199 72 -438 72h-54q-238 -348 -237 -637q0 -336 297 -454q10 0 10 -9q0 -10 -18 -10q-307 121 -308 471q0 287 236 637q-307 -12 -615 -145q-326 -143 -522 -373q-221 -260 -221 -574z M1010 1049h39q251 0 454 -76q285 303 352 381q166 195 166 258q0 82 -88 82q-213 0 -477 -191q-252 -180 -446 -454zM1163 467q0 -27 27 -27q152 1 594 351q-82 70 -178 114q-150 -139 -301 -276q-141 -131 -142 -162zM1819 788q78 -73 125 -151q129 182 256 362 q145 203 256 338q4 4 4 9q0 4 -13 4q-338 -328 -628 -562z" />
<glyph unicode="Z" horiz-adv-x="1398" d="M-205 1241q113 256 299 404q202 161 460 161h3q168 0 256 -92q61 10 133 10q199 0 307.5 -71.5t108.5 -202.5q0 -133 -105 -272q-59 -78 -196 -201q-104 -96 -105 -123q0 -27 27 -27q158 0 442 185q215 139 342 264q117 115 170 213q33 63 48 63q23 0 22 -30 q0 -66 -98 -172q-74 -80 -250 -228q-209 -176 -682 -501q-440 -303 -559 -412q-10 -10 -10 -16q0 -4 4 -5q8 0 16 13q96 86 379 276q350 238 448 238q74 0 74 -74q0 -96 -96 -240q-39 -57 -182 -227q-96 -119 -97 -154q0 -27 25 -26q61 0 184 96q119 90 232 217l14 -14 q-119 -133 -238 -223q-127 -96 -194 -97q-74 0 -74 99q0 94 188.5 312t188.5 273q0 35 -33 35q-102 0 -469 -256q-340 -236 -497 -393q-53 -53 -177 -207q-76 -96 -112 -96q-20 0 -21 27q0 31 84 120q207 221 504 449q106 80 539 381q334 231 532 401q0 10 -8 10 q-400 -321 -638 -321h-1q-57 0 -57 67q0 92 94 205q86 94 174 191q94 113 94 213q0 221 -342 221q-66 0 -117 -8q74 -92 74 -275q0 -297 -262 -565q-254 -258 -502 -258q-190 0 -190 209q0 309 262 582q253 266 577 323q-80 74 -231 74q-233 0 -424 -137 q-199 -145 -319 -416q-6 -8 -13 -8q-6 0 -6 16zM-31 807q0 -184 158 -184q141 0 318.5 129t297.5 315q129 205 129 389q1 166 -67 238q-322 -49 -576 -314q-260 -270 -260 -573z" />
<glyph unicode="[" horiz-adv-x="739" d="M-442 -670l1695 2210h682v-27h-604l-1655 -2156h562v-27h-680z" />
<glyph unicode="\" horiz-adv-x="4855" d="M86 362q0 233 246 398q283 186 778 186q526 0 1110 -264q463 -244 928 -487q505 -265 839 -265q565 0 891 398l15 -15q-340 -408 -924 -407q-436 0 -948 266q-440 246 -881 494q-537 266 -1028 266q-487 0 -768 -184q-244 -162 -244 -388q0 -193 173 -310.5t442 -117.5 q256 0 427 89.5t171 236.5q0 123 -106.5 191.5t-291.5 68.5q-109 0 -213 -43q-113 -45 -153 -110q-6 -6 -10 -3q-6 4 0 13q43 68 154.5 121t221.5 53q188 0 300 -82t112 -207q0 -141 -153 -242q-172 -113 -459 -112q-287 0 -465 139q-164 129 -164 317z" />
<glyph unicode="]" horiz-adv-x="739" d="M-950 -641h604l1655 2157h-561v26h679l-1697 -2210h-680v27z" />
<glyph unicode="_" horiz-adv-x="1292" d="M0 -147h1300v-80h-1300v80z" />
<glyph unicode="`" horiz-adv-x="696" d="M680 1174q0 53 29 53q25 0 24 -51q0 -190 80 -314l-14 -8q-119 166 -119 320z" />
<glyph unicode="a" horiz-adv-x="712" d="M-18 39q0 209 204 416q0 4 -4 4q-90 -70 -174 -168l-14 14q186 217 469 330q139 55 270 55q27 0 80 -4q-156 -195 -311 -389q-178 -231 -178 -272q0 -25 22 -25q45 0 182 123q113 102 181 184l14 -14q-74 -84 -178 -180q-154 -139 -215 -140q-41 0 -41 45q0 90 227 383 l-4 5q-381 -432 -483 -433q-47 0 -47 66zM14 25q0 -25 21 -25q70 0 346 293q187 199 334 379q-254 0 -504 -303q-197 -238 -197 -344z" />
<glyph unicode="b" horiz-adv-x="632" d="M-31 39q0 68 101 207q53 76 342 434q0 4 -4 6q-203 -178 -400 -395l-14 14q199 238 481 461q203 258 408 518q348 424 430 424q37 0 37 -41q0 -109 -209 -354q-236 -279 -553 -494q-152 -201 -344 -450q-229 -299 -230 -349q0 -27 25 -26q59 0 178 100q104 86 209 211 q121 141 145 191q10 70 39 134t52 64q16 0 16 -22q0 -88 -180 -316q-10 -20 -11 -55q0 -53 48 -53q43 0 94 59l14 -14q-55 -66 -115 -66q-61 0 -61 72q0 16 2 25q-291 -350 -432 -351q-68 0 -68 66zM629 877q0 -5 6 -5q317 231 522 486q168 209 168 299q0 24 -18 24h-2 q-76 0 -676 -804z" />
<glyph unicode="c" d="M-37 37q0 162 217 414q0 2 -4 2q-100 -74 -168 -160l-14 14q49 59 196 185q170 139 279 194q55 29 88 29q49 0 49 -62q0 -66 -34.5 -112.5t-79.5 -46.5q-39 0 -39 36q0 31 31.5 61t80.5 30q18 18 19 41q0 35 -33 34q-27 0 -72 -32q-61 -43 -264 -293q-217 -266 -217 -342 q0 -35 31 -35q82 0 233 110q135 98 225 205l15 -14q-100 -115 -248 -218.5t-221 -103.5q-70 0 -70 64z" />
<glyph unicode="d" horiz-adv-x="712" d="M-18 39q0 205 204 416q0 4 -4 4q-90 -70 -174 -168l-14 14q186 217 469 330q139 55 270 55l512 649h86l-518 -653q-156 -195 -311 -389q-178 -231 -178 -272q0 -25 22 -25q43 0 164 106q104 92 199 201l14 -14q-74 -84 -178 -180q-154 -139 -215 -140q-41 0 -41 45 q0 90 227 383l-4 5q-381 -432 -483 -433q-47 0 -47 66zM14 25q0 -25 21 -25q70 0 346 293q187 199 334 379q-254 0 -504 -303q-197 -238 -197 -344z" />
<glyph unicode="e" d="M-37 37q0 160 217 414q0 4 -2 4q-94 -74 -170 -162l-14 14q74 84 266 236q219 172 285 172q41 0 41 -43q0 -72 -109 -185q-133 -137 -375 -264q-104 -150 -104 -194q0 -35 31 -35q78 0 229 108q137 100 229 207l15 -14q-100 -115 -248 -218.5t-221 -103.5q-70 0 -70 64z M125 254q203 113 332 250q106 111 106 168q0 22 -20 22q-53 0 -152 -108q-14 -16 -176 -215q-33 -41 -90 -117z" />
<glyph unicode="f" horiz-adv-x="438" d="M-682 -739q209 266 823 1022q-10 41 -10 90q0 29 2 45q-86 -82 -125 -127l-14 14q43 53 145 146q18 86 65.5 147t104.5 61q33 0 43 -28l174 133q199 260 398 518q342 426 428 426q37 0 37 -41q0 -109 -209 -354q-236 -279 -553 -494q-68 -94 -443 -577q27 -39 76 -39 q74 0 174 104l15 -14q-100 -109 -189 -109q-55 0 -88 41l-750 -964h-104zM150 377q0 -47 8 -74l331 404q0 4 -4 4q-156 -111 -329 -273q-6 -31 -6 -61zM164 473q33 29 106 90q-33 4 -53 19q-33 -37 -53 -109zM657 858q1 -1 2.5 -1t2.5 1q319 240 528 496q174 215 174 303 q0 24 -19 24h-2q-88 0 -686 -819q-1 -1 -1 -2t1 -2z" />
<glyph unicode="g" horiz-adv-x="630" d="M-674 -946q0 111 215 346q147 162 582 489q178 242 393 512l-4 5q-381 -432 -483 -433q-47 0 -47 66q0 88 51 197q55 121 153 219q0 4 -4 4q-90 -70 -174 -168l-14 14q186 217 469 330q139 55 270 55q27 0 80 -4q-143 -184 -557 -686q2 -4 6 -4q211 156 363 311l14 -14 q-88 -90 -285 -248q-180 -143 -198 -166q-94 -121 -308 -387q-205 -254 -292 -350q-131 -141 -181 -141q-49 0 -49 53zM-647 -936q0 -33 22 -33q45 0 168 140q63 76 269 333q147 187 256 318q0 2 -5 2q-289 -207 -507 -442q-203 -217 -203 -318zM14 25q0 -25 21 -25 q70 0 346 293q187 199 334 379q-254 0 -504 -303q-197 -238 -197 -344z" />
<glyph unicode="h" horiz-adv-x="675" d="M-137 0q215 266 540 674q2 2 0 4q-2 4 -4 2q-182 -152 -391 -389l-14 14q176 211 475 461q199 258 397 518q342 424 428 424q37 0 37 -41q0 -109 -209 -354q-236 -279 -553 -494l-397 -540l4 -5q395 440 494 441q43 0 43 -64q0 -90 -115 -233q-39 -47 -213 -232 q-115 -123 -115 -159q0 -27 27 -27q55 0 184 115q102 90 191 192l14 -14q-90 -102 -194 -195q-136 -118 -194 -118h-1q-57 0 -57 67q0 80 114 219q4 8 211 234q115 125 115 170q0 23 -18 22q-57 0 -293 -241q-201 -207 -402 -451h-104zM600 862q0 -4 6 -4q324 242 531 498 q170 211 170 301q0 24 -19 24h-2q-80 0 -686 -819z" />
<glyph unicode="i" horiz-adv-x="366" d="M-43 18q0 82 106 240q29 41 228 301q6 6 2 10q-6 4 -10 -4q-80 -76 -275 -274l-14 14q160 154 383 381h106q-154 -195 -309 -387q-180 -236 -180 -283q0 -18 16 -18q37 0 137.5 88t212.5 221l15 -14q-266 -319 -377 -320q-41 0 -41 45zM715 1153q0 35 25.5 64.5 t52.5 29.5q30 0 30 -38q0 -33 -24.5 -63t-50.5 -30q-33 0 -33 37z" />
<glyph unicode="j" horiz-adv-x="335" d="M-997 -956q0 113 223 358q236 256 567 487q187 250 498 670q6 6 2 10q-6 4 -10 -4q-80 -76 -275 -274l-14 14q160 154 383 381h106q-233 -289 -577 -717q0 -4 4 -4q170 127 217 164q119 94 203 178l14 -14q-119 -119 -321 -266q-184 -133 -199 -152q-188 -242 -377 -483 q-322 -389 -408 -389q-37 0 -36 41zM-973 -946q0 -25 21 -25q55 0 262 250q100 121 418 533q4 4 2 6t-6 -2q-332 -250 -527 -475q-170 -195 -170 -287zM715 1153q0 35 25.5 64.5t52.5 29.5q30 0 30 -38q0 -34 -24.5 -63.5t-50.5 -29.5q-33 0 -33 37z" />
<glyph unicode="k" horiz-adv-x="614" d="M-137 0q213 262 540 674q0 6 -6 6q-193 -166 -389 -389l-14 14q176 211 475 461q199 258 397 518q342 424 428 424q37 0 37 -41q0 -109 -209 -354q-236 -279 -553 -494q-145 -201 -409 -545l4 -4q385 444 575 445q78 0 78 -49q0 -33 -47 -33q-18 0 -43 7t-33 7 q-109 0 -309 -180q47 -23 47 -84q0 -80 -102.5 -205t-102.5 -151q0 -27 27 -27q92 0 356 307l15 -14q-274 -313 -371 -313q-55 0 -55 67q0 84 101 211t101 154q1 33 -26 47q-193 -172 -408 -459h-104zM598 856q1 -1 2 -1l2 1q328 246 535 500q170 211 170 301q0 24 -19 24 h-2q-74 0 -688 -821q-1 -1 -1 -2t1 -2z" />
<glyph unicode="l" horiz-adv-x="430" d="M-31 39q0 68 97 203q59 82 342 432q4 4 2 8q-2 2 -7 -2q-211 -186 -395 -389l-14 14q193 227 479 461q205 258 412 518q352 424 428 424q37 0 37 -41q0 -109 -209 -354q-236 -279 -553 -494q-152 -201 -344 -450q-229 -299 -230 -349q0 -27 25 -26q121 0 387 313l14 -14 q-272 -319 -403 -320q-68 0 -68 66zM627 874q0 -4 6 -4q313 233 520 488q172 211 172 299q0 24 -18 24h-2q-64 0 -678 -807z" />
<glyph unicode="m" horiz-adv-x="1116" d="M-16 0q485 610 485 668q0 25 -20 24q-37 0 -185 -137q-137 -127 -256 -264l-14 14q362 410 473 410q41 0 41 -45t-51 -131q-23 -39 -183 -281l5 -4q395 461 507 461q41 0 41 -45t-51 -131q-20 -37 -184 -287l4 -4q414 467 508 467q39 0 39 -64q0 -90 -109 -233 q-37 -47 -203 -232q-108 -122 -108 -158q0 -28 27 -28q47 0 174 115q102 94 188 192l14 -14q-274 -313 -381 -313q-57 0 -57 67q0 82 111 223q29 39 202 236q111 125 111 162q0 27 -25 26q-49 0 -315 -282q-205 -215 -373 -412h-96q485 610 485 668q0 25 -22 24 q-100 0 -686 -692h-96z" />
<glyph unicode="n" horiz-adv-x="796" d="M-16 0q285 356 309 391q178 231 178 281q0 18 -16 18q-43 0 -177.5 -120.5t-269.5 -278.5l-14 14q362 410 473 410q41 0 41 -45t-49 -129q-16 -29 -166 -262l4 -5q395 440 487 441q43 0 43 -64q0 -90 -110 -233q-37 -47 -205 -232q-111 -123 -111 -159q0 -27 27 -27 q100 0 365 307l14 -14q-274 -313 -379 -313q-57 0 -57 67q0 80 110 219q4 8 203 234q111 125 111 170q0 23 -19 22q-57 0 -289 -241q-192 -201 -399 -451h-104z" />
<glyph unicode="o" horiz-adv-x="565" d="M-27 63q0 68 50 164q57 109 153 209q2 4 -4 4q-92 -68 -164 -149l-14 14q76 86 270 234q231 176 316 176q59 0 59 -62q0 -123 -162 -319q-10 -12 -10 -39q0 -33 29 -33t65 45l14 -14q-45 -51 -79 -51q-45 0 -45 47q0 12 2 16q-274 -332 -404 -332q-76 0 -76 90zM23 31 q-1 -33 32 -33q115 0 400 342q4 57 30.5 105.5t51.5 48.5q10 0 16 -11q61 104 61 164q0 43 -34 43q-102 0 -369 -321q-188 -227 -188 -338z" />
<glyph unicode="p" horiz-adv-x="677" d="M-727 -739q434 528 1182 1474l-4 4q-123 -117 -443 -448l-14 14q33 35 340 340q240 238 422 467q10 12 18 12q14 0 14 -14q0 -10 -10 -23q-152 -174 -620 -819l4 -4q408 451 495 451q43 0 43 -64q0 -90 -108 -233q-37 -47 -201 -232q-108 -122 -108 -158q0 -28 26 -28 q100 0 365 307l14 -14q-274 -313 -379 -313q-57 0 -57 67q0 80 108 219q4 8 199 234q109 125 109 170q0 23 -19 22q-37 0 -174 -127q-145 -137 -342 -362q-274 -315 -756 -942h-104z" />
<glyph unicode="q" horiz-adv-x="690" d="M-463 -969q0 104 348 572q102 137 627 803l-4 4q-131 -158 -264 -285q-160 -152 -215 -152q-47 0 -47 66q0 88 49 192q53 117 153 213q2 4 -4 5q-82 -49 -172 -158l-14 14q59 78 184 170q141 102 285 160q137 55 270 55q27 0 80 -4q-698 -864 -960 -1204 q-297 -389 -297 -449q0 -12 12 -12q39 0 145 152q115 172 232 344q254 375 374 489q68 66 196 163t171 138l14 -14q-57 -51 -174.5 -141.5t-165.5 -131.5q-154 -139 -389 -505q-330 -514 -403 -514q-31 0 -31 30zM14 25q0 -25 21 -25q70 0 346 291q187 199 332 377 q-256 0 -502 -299q-197 -238 -197 -344z" />
<glyph unicode="r" horiz-adv-x="520" d="M-6 305q59 59 239 244q94 96 179 188q-2 10 -2 31q0 45 22.5 74.5t52.5 29.5q25 0 25 -26q0 -29 -78 -111q10 -74 94 -135q-72 -72 -241 -295q-182 -242 -183 -282q0 -23 23 -23q49 0 164 90q102 80 184 168q14 14 43 49l14 -14q-80 -92 -194 -189q-144 -124 -210 -124 h-1q-59 0 -59 67q0 158 405 571q-45 49 -55 97q-154 -160 -408 -424zM430 758q57 59 57 86q0 8 -8 8q-18 0 -33.5 -28.5t-15.5 -65.5z" />
<glyph unicode="s" horiz-adv-x="409" d="M-74.5 149.5q31.5 45.5 74.5 45.5t43 -39q0 -53 -53 -54q-27 0 -46.5 -18t-19.5 -45q0 -43 45 -43q72 0 167 115.5t147 291.5q57 193 98 261q0 14 -8 6q-137 -143 -365 -379l-14 14q59 59 239 244q78 80 177.5 187.5t111.5 107.5q16 0 17 -17q0 -10 -11 -18 q-100 -76 -141 -178q-12 -33 -17 -131.5t-32 -171.5q-53 -152 -180 -260q-111 -94 -189 -95q-75 0 -75 78q0 53 31.5 98.5z" />
<glyph unicode="t" horiz-adv-x="393" d="M-31 12q0 76 105 230q76 115 317 422l-4 4q-158 -154 -379 -377l-14 14q16 18 268 260q229 221 289 303q-33 6 -68 6q-96 0 -170 -90q-2 -4 -10 -4q-14 0 -14 11q0 2 4 6q106 127 223 127q27 0 72 -9l258 326h86l-273 -344q29 -6 56 -6q63 0 108 57q6 6 11 6q10 0 10 -22 q-70 -88 -160 -88q-36 0 -61 8l-129 -166q-156 -197 -310 -393q-180 -233 -180 -275q0 -25 23 -24q45 0 182 127q111 102 180 186l14 -14q-78 -90 -178 -184q-154 -141 -215 -142q-41 0 -41 45z" />
<glyph unicode="u" horiz-adv-x="669" d="M-51 31q0 80 125 254q39 53 219 274q6 6 2 10q-6 4 -10 -4q-76 -74 -277 -274l-14 14q317 309 383 381h106q-254 -303 -309 -375q-192 -241 -192 -296q0 -19 16 -19q104 0 682 690h104q-487 -600 -487 -670q0 -18 16 -18q37 0 137.5 88t213.5 221l14 -14 q-266 -319 -377 -320q-41 0 -41 45t49 129q20 37 166 265l-4 4q-207 -229 -299 -320q-129 -123 -180 -123q-43 0 -43 58z" />
<glyph unicode="v" horiz-adv-x="716" d="M-6 305q150 174 289 295q129 115 172 115t43 -64q0 -90 -109 -235q-39 -49 -205 -236q-108 -124 -108 -161q0 -28 26 -27q92 0 291 192q184 181 262 322q0 68 29 128t57 60q18 0 19 -30q0 -80 -180 -308q-10 -20 -11 -55q0 -53 47 -53q43 0 95 59l14 -14 q-55 -66 -115 -66q-61 0 -61 72q0 16 2 23q-121 -143 -238 -238q-135 -111 -211 -111q-57 0 -57 68q0 80 109 221q6 6 202 236q109 127 109 172q0 23 -14 22q-39 0 -171.5 -120.5t-271.5 -280.5z" />
<glyph unicode="w" horiz-adv-x="1034" d="M-6 305q150 174 289 295q129 115 172 115t43 -64q0 -90 -107 -233q-33 -43 -196 -234q-106 -123 -107 -161q0 -25 16 -25q106 0 682 688h105q-487 -600 -488 -670q0 -23 17 -22q92 0 291 192q184 179 262 320q12 68 39.5 128t48.5 60q16 0 16 -22q0 -88 -180 -316 q-10 -20 -10 -55q0 -53 47 -53q43 0 94 59l14 -14q-55 -66 -114 -66q-61 0 -62 72q0 10 4 27q-119 -141 -239 -240q-137 -113 -213 -113q-51 0 -51 45t49 129q20 37 166 265l-4 4q-397 -442 -478 -443q-51 0 -51 62q0 84 109 225q10 14 198 238q109 127 109 172q0 23 -14 22 q-39 0 -171.5 -120.5t-271.5 -280.5z" />
<glyph unicode="x" horiz-adv-x="716" d="M-88 39q0 55 32.5 105.5t82.5 50.5q39 0 39 -37t-48 -62q-31 -14 -61 -30q-18 -14 -18 -35q0 -35 26 -35q66 0 152 94q88 109 176 217q78 96 145 201q74 115 74 149q0 37 -29 37q-59 0 -202 -125q-129 -113 -273 -278l-14 14q362 410 495 410q51 0 52 -62q0 -94 -72 -213 q-2 -2 0 -2q2 -2 4 0q205 276 307 277q53 0 54 -66q0 -55 -31 -102q-35 -53 -84 -53q-39 0 -39 36q0 37 47 62q31 16 61 31q18 14 19 34q0 37 -29 37q-63 0 -164 -110q-86 -106 -174 -215q-217 -266 -217 -340q0 -35 31 -35q82 0 233 110q135 96 226 203l14 -14 q-98 -115 -246.5 -217.5t-222.5 -102.5q-63 0 -63 58q0 92 47 178q2 2 0 2q-2 2 -4 0q-173 -238 -273 -238q-53 0 -53 66z" />
<glyph unicode="y" horiz-adv-x="710" d="M-616 -956q0 113 223 358q236 256 567 487q174 229 381 519l-4 4q-393 -438 -479 -439q-43 0 -43 64q0 90 110 233q37 49 205 238q111 123 111 160q0 27 -19 26q-49 0 -186 -139q-121 -133 -242 -264l-14 14q205 225 242 264q145 145 202 146q47 0 47 -60 q0 -84 -110 -227q-12 -16 -203 -238q-111 -127 -111 -172q0 -23 19 -22q57 0 285 242q184 190 395 448h104q-236 -289 -579 -719q0 -4 4 -4q248 176 418 344l14 -14q-131 -133 -328 -277q-180 -131 -188 -141q-188 -242 -377 -483q-322 -389 -408 -389q-37 0 -36 41z M-592 -946q0 -25 21 -25q55 0 262 250q88 106 420 535q-1 2 -5 4q-334 -250 -530 -477q-168 -195 -168 -287z" />
<glyph unicode="z" horiz-adv-x="647" d="M-45 -12q0 23 53 75q61 63 158 121q57 35 227 197q-12 -8 -31 -8q-61 0 -61 57q0 47 88 136t88 110q0 16 -12 16q-41 0 -217 -162q-158 -143 -240 -239l-14 14q102 115 248 246q178 160 229 160q47 0 47 -54q0 -53 -86 -141t-86 -110q0 -20 21 -21q20 0 45 14l290 265 q53 51 74 51q8 0 8 -8q0 -23 -53 -76q-63 -61 -160 -121q-88 -54 -227 -197q12 8 31 9q61 0 61 -58q0 -47 -90 -139t-90 -113q0 -14 12 -14q53 0 181 113q102 90 192 196l14 -14q-92 -106 -198 -197q-134 -116 -194 -116h-1q-47 0 -47 53t88 143t88 113q0 20 -20 20t-49 -16 q-115 -104 -285 -262q-55 -51 -76 -51q-6 0 -6 8z" />
<glyph unicode="{" horiz-adv-x="739" d="M-100 -479q0 109 116 262q109 129 217 258q117 147 117 238q0 113 -133 149q-8 -4 -22 -4t-15 8q0 12 21 12q8 0 20 -4q264 51 473 222q135 111 320 346q219 279 327 366q203 166 467 166v-20q-299 0 -505 -248q-182 -246 -365 -492q-262 -285 -666 -348 q160 -33 160 -168l-475 -762q0 -154 236 -153v-21q-293 0 -293 193z" />
<glyph unicode="|" horiz-adv-x="538" d="M25 0l1103 1434h60l-1104 -1434h-59z" />
<glyph unicode="}" horiz-adv-x="739" d="M-842 -651q299 0 506 248q182 246 365 491q262 285 665 348q-160 35 -159 168l475 762q0 154 -236 154v20q293 0 293 -192q0 -109 -117 -263q-109 -129 -217 -258q-117 -147 -117 -237q0 -113 134 -150q8 4 22 4t14 -8q0 -12 -20 -12q-8 0 -21 4q-264 -51 -473 -221 q-135 -111 -319 -346q-219 -279 -328 -367q-203 -166 -467 -166v21z" />
<glyph unicode="~" horiz-adv-x="610" d="M55 465q47 119 127 119q59 0 134 -80t120 -80q61 0 101 96l18 -10q-47 -121 -121 -121q-59 0 -137 79t-125 79q-61 0 -98 -92z" />
<glyph unicode="&#xa1;" horiz-adv-x="628" d="M51 53q560 611 953 1123q6 10 18 4q14 -8 8 -17q-627 -809 -870 -1159q-49 0 -90 -24q8 51 -19 73zM1083 1391q0 59 60 59q59 0 59 -59q0 -60 -59 -60t-60 60z" />
<glyph unicode="&#xa2;" horiz-adv-x="643" d="M-223 -268l342 424q-16 16 -17 43q0 123 115 290q78 111 174 205q78 74 168 128.5t139 54.5h7l286 354h25l-295 -361q25 -18 24 -59q0 -55 -30 -102q-35 -53 -84 -54q-39 0 -39 37q0 31 31.5 60.5t81.5 29.5q14 12 14 37q0 37 -25 37q-61 0 -164 -108q-14 -18 -176 -216 q-217 -266 -217 -342q0 -35 31 -34q82 0 233 110q135 98 226 205l14 -14q-100 -115 -247.5 -218.5t-221.5 -103.5q-27 0 -37 8l-334 -411h-24z" />
<glyph unicode="&#xa3;" horiz-adv-x="804" d="M-682 -739q209 266 823 1022q-10 41 -10 90q0 29 2 45q-86 -82 -125 -127l-14 14q43 53 145 146q18 86 65.5 147t104.5 61q33 0 43 -28l174 133q199 260 398 518q342 426 428 426q37 0 37 -41q0 -109 -209 -354q-236 -279 -553 -494q-68 -94 -443 -577q27 -39 76 -39 q76 0 174 104q158 154 381 379h107q-154 -195 -310 -387q-180 -236 -180 -283q0 -18 17 -18q37 0 137 88t213 221l14 -14q-266 -319 -377 -320q-41 0 -41 45q0 82 107 240q29 41 227 301q6 6 2 10q-6 4 -10 -4q-79 -73 -272 -272q-100 -109 -189 -109q-55 0 -88 41 l-750 -964h-104zM150 377q0 -47 8 -74l331 404q0 4 -4 4q-156 -111 -329 -273q-6 -31 -6 -61zM164 473q33 29 106 90q-33 4 -53 19q-33 -37 -53 -109zM657 858q3 -2 5 0q319 240 528 496q174 215 174 303q0 25 -21 24q-88 0 -686 -819q-2 -2 0 -4zM1153 1153q0 35 25.5 64.5 t52.5 29.5q31 0 31 -41q0 -31 -25 -60.5t-51 -29.5q-33 0 -33 37z" />
<glyph unicode="&#xa4;" horiz-adv-x="1910" d="M-209 348q0 174 175 297t419 123q346 0 612 -258q92 111 308 410q193 270 311 401q182 201 360 293q-53 104 -163.5 164.5t-256.5 60.5q-27 0 -40 -2q23 -57 22 -141q0 -326 -231 -572q-215 -229 -449 -229q-193 0 -192 211q0 162 102 321q94 150 254 256 q211 141 465 172q-61 141 -242 142q-164 0 -352 -119q-197 -125 -320 -322q-139 -221 -139 -466q0 -10 -8 -11q-8 0 -8 11q0 256 141 481q125 199 326 323q190 121 362 121q195 0 262 -157h43q315 0 455 -232q78 37 170 55q10 0 10 -12q0 -8 -6 -8q-86 -16 -164 -53 q51 -96 51 -205q0 -172 -114 -340q-103 -150 -281 -195q18 -43 19 -104q0 -143 -104.5 -432t-104.5 -312q0 -27 24 -26q90 0 400 313l14 -14q-315 -319 -416 -320q-74 0 -73 99q0 104 106.5 381.5t106.5 365.5q0 16 -5 41q-51 -10 -81 -10q-106 0 -107 53q0 47 84 47 q86 0 125 -57q141 61 246 215q113 164 112 328q0 90 -32 157q-168 -88 -332 -299q-90 -119 -279 -426q-184 -297 -299 -442q248 -299 332 -807q0 -14 -6 -14t-10 4q-92 504 -334 797q-346 -418 -815 -418q-186 0 -316 96q-137 102 -137 264zM-186 346q0 -137 105.5 -217 t303.5 -80q387 1 758 443q-258 256 -602 256q-231 0 -398 -119t-167 -283zM686 1106q0 -188 172 -188q190 0 420 253q240 266 240 525q0 80 -23 141q-248 -25 -461 -170q-156 -106 -250 -254q-98 -154 -98 -307zM1477 903q0 -35 82 -35q34 1 73 13q-23 53 -102 53 q-53 0 -53 -31zM2021 1743q0 6 9 22q59 119 59 215q0 14 -4 23l14 14q14 -25 15 -73q0 -68 -29 -138q72 70 183.5 135.5t176.5 75.5l2 -18q-72 -18 -178 -87t-176 -140q-41 -41 -55 -41q-16 0 -17 12z" />
<glyph unicode="&#xa5;" horiz-adv-x="886" d="M39 0l14 20h82l250 349h-192l18 26h195l114 160h-192l16 25h203l141 532h-78l13 21h247l-14 -21h-94l-150 -520l488 422l30 98h-65l14 21h269l-13 -21h-45l-153 -98l-500 -434h176l-16 -25h-195l-115 -160h195l-20 -26h-195l-250 -349h82l-14 -20h-246z" />
<glyph unicode="&#xa6;" horiz-adv-x="385" d="M135 -410v832h111v-832h-111zM135 913v725h111v-725h-111z" />
<glyph unicode="&#xa7;" horiz-adv-x="962" d="M-238 -279q0 188 109 189q43 0 43 -45q0 -31 -31 -60q-37 -35 -88 -34q-12 -12 -12 -52q0 -63 40 -106t109 -43q176 0 248 145q35 72 35 174q0 63 -19.5 201.5t-19.5 210.5q0 125 47 219q133 270 422 271q47 -1 86 -17v62q0 197 74 301q113 158 276 157q78 0 127 -45 t49 -121q0 -193 -106 -192q-43 0 -43 47q0 29 33 59.5t84 30.5q12 16 12 55q0 145 -156 146q-154 0 -227 -162q-47 -100 -47 -229q0 -51 9 -152.5t9 -150.5q0 -131 -52 -235.5t-161.5 -165t-236.5 -60.5q-55 0 -101 22q10 -154 11 -176q0 -162 -66 -256q-113 -160 -287 -160 q-76 0 -123 49.5t-47 122.5zM270 254q0 -16 2 -45v-45q45 -27 111 -27q207 0 309 248q43 102 43 258v53q-2 38 -2 54q-39 20 -98 20q-129 0 -227 -106q-82 -92 -117 -232q-20 -78 -21 -178z" />
<glyph unicode="&#xa8;" horiz-adv-x="1009" d="M647 1008q0 33 24.5 60.5t49.5 27.5q29 0 29 -39q0 -29 -24 -56.5t-48 -27.5q-31 0 -31 35zM891 1008q0 33 24.5 60.5t49.5 27.5q29 0 28 -39q0 -29 -23.5 -56.5t-47.5 -27.5q-31 0 -31 35z" />
<glyph unicode="&#xa9;" horiz-adv-x="1335" d="M72 567q0 248 174 422t422 174t422 -174t174 -422t-174.5 -422t-421.5 -174q-248 0 -422 174t-174 422zM92 567q0 -240 168 -407.5t408 -167.5t407.5 168t167.5 407q0 240 -167.5 408t-407.5 168t-408 -168t-168 -408zM334 580q0 156 99 261t249 105q129 0 197 -59 q59 -53 59 -129q0 -94 -86 -94q-74 0 -74 69q0 37 30 65.5t30 43.5q0 84 -156 84q-125 0 -175 -82t-50 -264t50 -264.5t175 -82.5q223 0 236 246l20 -2q-12 -264 -256 -264q-150 0 -249 105.5t-99 261.5z" />
<glyph unicode="&#xaa;" horiz-adv-x="1683" d="M-143 49q0 106 225 107q139 0 324 -54q258 164 651 652q-195 -72 -453 -72q-190 0 -297 72q-121 80 -121 237q0 231 284 400.5t704 169.5q258 0 483 -72q184 190 313 190q78 0 78 -71q0 -100 -111 -250q168 -106 244 -260q0 -14 -6 -15q-6 0 -8 11q-70 141 -238 252 q-250 -328 -696 -527q-389 -547 -733 -743q221 -68 274 -82q162 -39 299 -39q190 0 342 100q102 70 264 252l15 -14q-348 -406 -678 -406q-135 0 -295 54q-49 16 -272 106q-193 -98 -408 -98q-184 0 -184 100zM-123 49q0 -74 160 -74q155 1 325 105q-162 57 -280 57 q-205 0 -205 -88zM207 991q0 -291 397 -291q236 0 469 76q147 188 295 377q168 211 274 322q-209 68 -468 67q-401 0 -680 -156q-287 -160 -287 -395zM1249 844q135 59 275 155q256 177 391 355q-82 51 -223 106q-80 -90 -207 -274q-119 -172 -236 -342zM1704 1475 q108 -37 221 -109q106 143 107 242q0 51 -52 51q-119 0 -276 -184zM1774 1743q0 8 8 22q27 49 45 125q14 57 14 90q0 14 -4 23l14 14q14 -25 15 -73q0 -68 -29 -138q72 70 183.5 135.5t177.5 75.5l2 -18q-72 -18 -178.5 -87t-176.5 -140q-41 -41 -55 -41q-16 0 -16 12z" />
<glyph unicode="&#xab;" horiz-adv-x="1302" d="M162 328q0 16 29.5 35.5t82.5 25.5q141 16 357 92q223 78 297 144l8 -7q-80 -82 -279 -163q-188 -80 -352 -109q94 -43 167 -114.5t73 -131.5l-23 -6q-8 43 -106 107q-111 74 -234 98q-20 4 -20 29zM537 328q0 16 29.5 35.5t84.5 25.5q139 16 355 92q223 78 297 144l8 -7 q-80 -82 -279 -163q-188 -80 -352 -109q96 -43 169 -114.5t73 -131.5l-23 -6q-8 43 -108 107q-111 74 -232 98q-23 4 -22 29z" />
<glyph unicode="&#xad;" horiz-adv-x="661" d="M143 338l15 37h420l-15 -37h-420z" />
<glyph unicode="&#xae;" horiz-adv-x="894" d="M86 805q0 147 105.5 252.5t252.5 105.5q150 0 254.5 -104.5t104.5 -253.5q0 -147 -104.5 -251.5t-254.5 -104.5t-254 104t-104 252zM106 805q0 -139 98.5 -237.5t239.5 -98.5t239.5 98.5t98.5 237.5q0 141 -98.5 239.5t-239.5 98.5t-239.5 -98.5t-98.5 -239.5zM250 606 v19h74v374h-74v19h203q172 0 172 -105q0 -98 -142 -100v-2q113 -10 113 -96v-41q-2 -29 -2 -41q0 -23 20 -23q25 0 25 43v27h18v-27q0 -66 -57 -65q-68 0 -68 67q0 8 3 29v29q0 53 -23 71.5t-82 18.5h-45v-178h74v-19h-209zM385 821h64q111 0 110 92q0 86 -110 86h-64v-178z " />
<glyph unicode="&#xaf;" horiz-adv-x="2156" d="M-410 -68q0 272 205 543q219 289 578 440q287 121 616 134q193 281 445 467q272 201 497 200q139 0 140 -129q0 -231 -449 -663q96 -47 178 -119q248 199 656 575q147 137 246.5 196.5t191.5 59.5q33 0 33 -20q0 -23 -41 -23q-150 0 -299 -151q-117 -117 -285 -383 q-155 -254 -311 -508q43 -111 43 -223q0 -229 -166 -455q-2 -10 -13 -10q-10 0 -10 16q164 223 164 447q0 106 -37 198q-332 -514 -665 -772q-459 -354 -1049 -354q-330 0 -506 156q-162 143 -162 378zM-383 -66q0 -223 150 -358q162 -147 462 -147q532 0 983 366 q305 250 717 821q-51 90 -127 160q-442 -356 -612 -356q-57 0 -57 67q0 84 354 469q-199 72 -438 72h-54q-238 -348 -237 -637q0 -336 297 -454q10 0 10 -9q0 -10 -18 -10q-307 121 -308 471q0 287 236 637q-307 -12 -615 -145q-326 -143 -522 -373q-221 -260 -221 -574z M1010 1049h39q251 0 454 -76q285 303 352 381q166 195 166 258q0 82 -88 82q-213 0 -477 -191q-252 -180 -446 -454zM1163 467q0 -27 27 -27q152 1 594 351q-82 70 -178 114q-150 -139 -301 -276q-141 -131 -142 -162zM1819 788q78 -73 125 -151q129 182 256 362 q145 203 256 338q4 4 4 9q0 4 -13 4q-338 -328 -628 -562zM2339 1724q186 61 350 228q41 41 59 41q16 0 17 -13q0 -26 -43 -63q-176 -152 -381 -211z" />
<glyph unicode="&#xb0;" horiz-adv-x="894" d="M557 899q0 182 205 373q198 182 364 182q96 0 97 -86q0 -147 -212 -354t-360 -207q-94 0 -94 92zM582 899q0 -72 69 -72q139 0 345 204t206 337q0 66 -76 66q-111 0 -323 -199q-221 -205 -221 -336z" />
<glyph unicode="&#xb1;" horiz-adv-x="978" d="M-31 0l45 57h754l-45 -57h-754zM303 432l43 57h348l269 349h57l-268 -349h348l-43 -57h-348l-269 -348h-57l268 348h-348z" />
<glyph unicode="&#xb2;" horiz-adv-x="679" d="M231 553q0 18 48 61q63 59 170 117q186 100 301 219q104 106 104 174q0 53 -55 54q-100 0 -199.5 -89.5t-99.5 -187.5q0 -39 28 -39q63 0 137 67.5t103 143.5l16 -6q-33 -84 -115.5 -154.5t-142.5 -70.5q-49 0 -49 61q0 104 106.5 199.5t213.5 95.5q41 0 68.5 -27.5 t27.5 -66.5q0 -78 -86 -172q-68 -74 -234 -158q-203 -106 -239 -131q-6 -4 -8 -8v-2l12 4q88 55 139 55q41 0 75 -48t54 -48q43 0 113 72l10 -13q-100 -109 -168 -108q-31 0 -63.5 54t-65.5 54q-74 0 -151 -69q-41 -37 -45 -37t-5 4z" />
<glyph unicode="&#xb3;" horiz-adv-x="755" d="M119 371q0 45 22.5 72.5t51.5 27.5q23 0 22 -20q0 -18 -18.5 -37t-49.5 -19q-8 -6 -8 -20q0 -45 56 -45q141 0 325.5 147.5t184.5 276.5q0 59 -54 59q-37 0 -102 -35q-51 -51 -84 -51q-8 0 -8 8q0 18 26 37q41 27 113 49q158 74 270 191q102 109 103 176q0 53 -60 53 q-74 0 -153 -57q-92 -68 -92 -158q0 -49 47 -49q41 0 84 31q57 41 88 118l16 -10q-27 -70 -86 -114t-108 -44q-63 0 -64 66q0 90 94 166q88 72 178 72q35 0 59.5 -24t24.5 -56q0 -98 -51 -160q-63 -76 -311 -197q20 4 31 4q90 0 90 -112q0 -137 -181.5 -273.5t-377.5 -136.5 q-78 0 -78 64z" />
<glyph unicode="&#xb4;" horiz-adv-x="475" d="M508 932q186 61 350 227q41 41 60 41q16 0 16 -12q0 -27 -43 -64q-176 -152 -381 -211z" />
<glyph unicode="&#xb6;" horiz-adv-x="1112" d="M37 219q0 143 121 303q127 172 331 279q233 123 504 123h486l-15 -27h-225l-664 -870h209l-16 -27h-467q-264 0 -264 219zM317 27h185l661 870h-182z" />
<glyph unicode="&#xb7;" horiz-adv-x="1519" d="M-307 199q0 8 6 8q119 18 238 49q-8 35 -9 78q0 215 205 371.5t518 156.5q250 0 479 -117q162 90 312 189q219 549 403 772q150 182 293 182q121 0 121 -123q0 -121 -139 -282q-217 -254 -582 -506q-70 -213 -156 -412q119 -123 156 -248q0 -25 -8 -24q-10 0 -10 16 q-35 123 -148 236q-152 -324 -358 -467q-215 -147 -549 -148q-199 0 -339 85t-183 223q-129 -31 -236 -50q-14 0 -14 11zM-49 338q0 -35 10 -76q532 131 1151 473q-209 106 -461 107q-309 0 -512 -162q-188 -150 -188 -342zM-33 244q84 -248 479 -248q522 0 846 622 q-70 55 -159 107q-588 -331 -1166 -481zM1151 735q95 -51 152 -98q72 137 122 264q-139 -90 -274 -166zM1548 1008q358 252 555 485q133 160 133 270q0 104 -98 105q-129 0 -270 -180q-173 -217 -320 -680zM2294 1817q0 6 8 22q59 119 59 215q0 14 -4 23l15 14 q14 -25 14 -74q0 -67 -29 -137q72 70 183.5 135.5t177.5 75.5l2 -18q-72 -18 -178.5 -87t-176.5 -141q-41 -41 -55 -41q-16 0 -16 13z" />
<glyph unicode="&#xb8;" horiz-adv-x="696" d="M106 -426l15 23q49 -33 127 -33q84 0 149 43q78 51 78 139q0 98 -104 98q-43 0 -70 -23.5t-47 -23.5q-10 0 -10 15q0 10 10 16l207 115h39l-142 -80q14 2 41 2q145 0 146 -113q0 -102 -99 -160q-84 -49 -198 -49q-89 0 -142 31z" />
<glyph unicode="&#xb9;" horiz-adv-x="737" d="M283 565l434 496l-2 2q-63 -57 -156 -100q-82 -37 -127 -37q-8 0 -8 12t8 12q68 0 187.5 70t191.5 162l35 -11l-475 -606h-88z" />
<glyph unicode="&#xba;" horiz-adv-x="430" d="M-31 39q0 68 97 203q59 82 342 432q4 4 2 8q-2 2 -7 -2q-211 -186 -395 -389l-14 14q193 227 479 461q205 258 412 518q352 424 428 424q37 0 37 -41q0 -109 -209 -354q-236 -279 -553 -494q-152 -201 -344 -450q-229 -299 -230 -349q0 -27 25 -26q121 0 387 313l14 -14 q-272 -319 -403 -320q-68 0 -68 66zM627 874q0 -4 6 -4q313 233 520 488q172 211 172 299q0 25 -20 24q-64 0 -678 -807zM1026 1096q66 27 130.5 92t94.5 135q16 41 39 41q29 0 29 -33q0 -20 -14 -43q-92 -152 -267 -211z" />
<glyph unicode="&#xbb;" horiz-adv-x="1302" d="M96 100q80 82 279 164q186 80 350 109q-94 43 -167 114.5t-73 130.5l23 7q8 -43 106 -107q111 -74 234 -98q23 -4 22 -29q0 -16 -26 -33q-35 -23 -88 -28q-141 -16 -355 -92q-223 -78 -297 -144zM471 100q80 82 279 164q188 80 352 109q-94 43 -167 114.5t-73 130.5l21 7 q10 -43 108 -109q111 -72 232 -96q23 -4 22 -29q0 -16 -26 -33q-33 -23 -86 -28q-141 -16 -357 -92q-223 -78 -297 -144z" />
<glyph unicode="&#xbc;" horiz-adv-x="1306" d="M18 0l1244 1133h51l-1243 -1133h-52zM283 565l434 496l-2 2q-63 -57 -156 -100q-82 -37 -127 -37q-8 0 -8 12t8 12q68 0 187.5 70t191.5 162l35 -11l-475 -606h-88zM428 -283l360 424q-41 20 -77 21q-80 0 -146.5 -43t-56.5 -43q-12 0 -12 14q0 20 131 109 q293 199 293 374q0 29 -23 56q88 0 88 -82q0 -168 -383 -385q0 -4 4 -6q59 33 135 32q35 0 70 -20l360 430l50 6l-363 -457q70 -45 103 -45q74 0 147 62v-19q-92 -72 -168 -71q-29 0 -106 47l-314 -404h-92z" />
<glyph unicode="&#xbd;" horiz-adv-x="1306" d="M18 0l1244 1133h51l-1243 -1133h-52zM283 565l434 496l-2 2q-63 -57 -156 -100q-82 -37 -127 -37q-8 0 -8 12t8 12q68 0 187.5 70t191.5 162l35 -11l-475 -606h-88zM573 -8q0 18 48 61q63 59 170 117q186 100 301 219q104 106 104 174q0 53 -55 53q-100 0 -199.5 -89 t-99.5 -187q0 -39 28 -39q63 0 137 67.5t103 143.5l16 -6q-33 -84 -115.5 -154.5t-142.5 -70.5q-49 0 -49 61q0 104 106.5 199.5t213.5 95.5q41 0 68.5 -27.5t27.5 -66.5q0 -78 -86 -172q-68 -74 -234 -158q-203 -106 -239 -131q-6 -4 -8 -8v-2l12 4q88 55 139 55 q41 0 75 -48t54 -48q43 0 113 71l10 -12q-100 -109 -168 -108q-31 0 -63.5 54t-65.5 54q-74 0 -151 -69q-41 -37 -45 -37t-5 4z" />
<glyph unicode="&#xbe;" horiz-adv-x="1409" d="M119 371q0 45 22.5 72.5t51.5 27.5q23 0 22 -20q0 -18 -18.5 -37t-49.5 -19q-8 -6 -8 -20q0 -45 56 -45q141 0 325.5 147.5t184.5 276.5q0 59 -54 59q-37 0 -102 -35q-51 -51 -84 -51q-8 0 -8 8q0 18 26 37q41 27 113 49q158 74 270 191q102 109 103 176q0 53 -60 53 q-74 0 -153 -57q-92 -68 -92 -158q0 -49 47 -49q41 0 84 31q57 41 88 118l16 -10q-27 -70 -86 -114t-108 -44q-63 0 -64 66q0 90 94 166q88 72 178 72q35 0 59.5 -24t24.5 -56q0 -98 -51 -160q-63 -76 -311 -197q20 4 31 4q90 0 90 -112q0 -137 -181.5 -273.5t-377.5 -136.5 q-78 0 -78 64zM233 0l1244 1133h51l-1243 -1133h-52zM643 -283l361 424q-41 20 -78 21q-80 0 -146.5 -43t-56.5 -43q-12 0 -12 14q0 20 131 109q293 199 293 374q0 29 -23 56q88 0 88 -82q0 -168 -383 -385q0 -4 4 -6q59 33 135 32q35 0 70 -20l360 430l50 6l-363 -457 q70 -45 103 -45q74 0 147 62v-19q-92 -72 -168 -71q-29 0 -106 47l-314 -404h-92z" />
<glyph unicode="&#xbf;" horiz-adv-x="778" d="M53 125q0 145 129 285q109 119 576 368q332 178 332 297q0 37 -31 37q-25 0 -45 -12q-31 -23 -56 -70q-18 -35 -40 -35q-23 0 -23 27q0 39 49 75t109 36q57 0 57 -58q0 -135 -336 -319q-322 -176 -512 -375q-166 -176 -166 -293q0 -88 94 -88q170 0 338 143.5t168 307.5 q0 72 -55 71q-47 0 -129 -51q-74 -47 -135 -109l-10 19q164 160 276 160q74 0 74 -90q0 -170 -174 -320.5t-353 -150.5q-137 0 -137 145zM1153 1350q0 59 59 59t60 -59q-1 -60 -60 -60t-59 60z" />
<glyph unicode="&#xc0;" horiz-adv-x="796" d="M-16 0q285 356 309 391q178 231 178 281q0 18 -16 18q-43 0 -177.5 -120.5t-269.5 -278.5l-14 14q362 410 473 410q41 0 41 -45t-49 -129q-16 -29 -166 -262l4 -5q395 440 487 441q43 0 43 -64q0 -90 -110 -233q-37 -47 -205 -232q-111 -123 -111 -159q0 -27 27 -27 q100 0 365 307l14 -14q-274 -313 -379 -313q-57 0 -57 67q0 80 110 219q4 8 203 234q111 125 111 170q0 23 -19 22q-57 0 -289 -241q-192 -201 -399 -451h-104zM713 926q0 8 8 22q59 129 59 209q0 27 -4 35l15 8q14 -25 14 -74q0 -67 -29 -137q72 70 183.5 135.5t177.5 75.5 l2 -16q-72 -18 -177.5 -88t-177.5 -142q-41 -41 -55 -41q-16 0 -16 13z" />
<glyph unicode="&#xc1;" horiz-adv-x="2068" d="M-102 287q0 236 174 463q164 215 427 352t523 137q342 0 342 -252q0 -53 -21 -119q129 -37 386 -108q225 233 450 467q272 279 481 450q10 6 17 6q14 0 14 -12q0 -8 -14 -20q-268 -295 -631 -944q201 2 321 100q4 4 9 4q8 0 8 -8q0 -4 -6 -8q-136 -123 -355 -127 q-219 -395 -344 -570q-201 -276 -422 -403q-10 0 -10 4q2 6 6 10q205 152 394 418q113 160 333 543q-80 4 -208 41q-344 -397 -609 -570q-367 -238 -817 -237q-225 0 -342 110q-106 100 -106 273zM-80 299q0 -152 96 -240q102 -96 297 -96q369 0 736 225q280 172 653 545 q-117 41 -369 115q-82 -217 -332 -402q-262 -193 -505 -192q-199 0 -199 154q0 170 186 321q215 176 549 176q139 0 287 -33q25 61 24 121q0 225 -321 226q-256 0 -513 -134.5t-419 -343.5q-170 -219 -170 -442zM315 410q0 -135 181 -136q184 0 453.5 187.5t361.5 392.5 q-156 33 -277 33q-326 0 -536 -170q-182 -145 -183 -307zM1798 741q113 -26 205 -32q326 557 577 864q4 4 5 8q0 2 -2 2q-4 0 -9 -4q-190 -168 -409 -414q-184 -211 -367 -424zM2617 1731q186 61 351 227q41 41 59 41q16 0 16 -12q0 -27 -43 -64q-176 -152 -381 -211z" />
<glyph unicode="&#xc2;" horiz-adv-x="2068" d="M-102 287q0 236 174 463q164 215 427 352t523 137q342 0 342 -252q0 -53 -21 -119q129 -37 386 -108q225 233 450 467q272 279 481 450q10 6 17 6q14 0 14 -12q0 -8 -14 -20q-268 -295 -631 -944q201 2 321 100q4 4 9 4q8 0 8 -8q0 -4 -6 -8q-136 -123 -355 -127 q-219 -395 -344 -570q-201 -276 -422 -403q-10 0 -10 4q2 6 6 10q205 152 394 418q113 160 333 543q-80 4 -208 41q-344 -397 -609 -570q-367 -238 -817 -237q-225 0 -342 110q-106 100 -106 273zM-80 299q0 -152 96 -240q102 -96 297 -96q369 0 736 225q280 172 653 545 q-117 41 -369 115q-82 -217 -332 -402q-262 -193 -505 -192q-199 0 -199 154q0 170 186 321q215 176 549 176q139 0 287 -33q25 61 24 121q0 225 -321 226q-256 0 -513 -134.5t-419 -343.5q-170 -219 -170 -442zM315 410q0 -135 181 -136q184 0 453.5 187.5t361.5 392.5 q-156 33 -277 33q-326 0 -536 -170q-182 -145 -183 -307zM1798 741q113 -26 205 -32q326 557 577 864q4 4 5 8q0 2 -2 2q-4 0 -9 -4q-190 -168 -409 -414q-184 -211 -367 -424zM2499 1749q72 18 178 87t176 140q41 41 55 41q16 0 17 -12q0 -6 -9 -23q-27 -49 -45 -124 q-14 -57 -14 -91q0 -14 4 -22l-14 -14q-14 25 -15 73q0 68 29 138q-72 -70 -183.5 -135.5t-176.5 -75.5z" />
<glyph unicode="&#xc3;" horiz-adv-x="2068" d="M-102 287q0 236 174 463q164 215 427 352t523 137q342 0 342 -252q0 -53 -21 -119q129 -37 386 -108q225 233 450 467q272 279 481 450q10 6 17 6q14 0 14 -12q0 -8 -14 -20q-268 -295 -631 -944q201 2 321 100q4 4 9 4q8 0 8 -8q0 -4 -6 -8q-136 -123 -355 -127 q-219 -395 -344 -570q-201 -276 -422 -403q-10 0 -10 4q2 6 6 10q205 152 394 418q113 160 333 543q-80 4 -208 41q-344 -397 -609 -570q-367 -238 -817 -237q-225 0 -342 110q-106 100 -106 273zM-80 299q0 -152 96 -240q102 -96 297 -96q369 0 736 225q280 172 653 545 q-117 41 -369 115q-82 -217 -332 -402q-262 -193 -505 -192q-199 0 -199 154q0 170 186 321q215 176 549 176q139 0 287 -33q25 61 24 121q0 225 -321 226q-256 0 -513 -134.5t-419 -343.5q-170 -219 -170 -442zM315 410q0 -135 181 -136q184 0 453.5 187.5t361.5 392.5 q-156 33 -277 33q-326 0 -536 -170q-182 -145 -183 -307zM1798 741q113 -26 205 -32q326 557 577 864q4 4 5 8q0 2 -2 2q-4 0 -9 -4q-190 -168 -409 -414q-184 -211 -367 -424zM2445 1698q96 98 181 98q51 0 132 -49t124 -49q68 0 137 76l8 -9q-94 -113 -172 -112 q-49 0 -134 51t-130 51q-70 0 -133 -65z" />
<glyph unicode="&#xc4;" horiz-adv-x="2068" d="M-102 287q0 236 174 463q164 215 427 352t523 137q342 0 342 -252q0 -53 -21 -119q129 -37 386 -108q225 233 450 467q272 279 481 450q10 6 17 6q14 0 14 -12q0 -8 -14 -20q-268 -295 -631 -944q201 2 321 100q4 4 9 4q8 0 8 -8q0 -4 -6 -8q-136 -123 -355 -127 q-219 -395 -344 -570q-201 -276 -422 -403q-10 0 -10 4q2 6 6 10q205 152 394 418q113 160 333 543q-80 4 -208 41q-344 -397 -609 -570q-367 -238 -817 -237q-225 0 -342 110q-106 100 -106 273zM-80 299q0 -152 96 -240q102 -96 297 -96q369 0 736 225q280 172 653 545 q-117 41 -369 115q-82 -217 -332 -402q-262 -193 -505 -192q-199 0 -199 154q0 170 186 321q215 176 549 176q139 0 287 -33q25 61 24 121q0 225 -321 226q-256 0 -513 -134.5t-419 -343.5q-170 -219 -170 -442zM315 410q0 -135 181 -136q184 0 453.5 187.5t361.5 392.5 q-156 33 -277 33q-326 0 -536 -170q-182 -145 -183 -307zM1798 741q113 -26 205 -32q326 557 577 864q4 4 5 8q0 2 -2 2q-4 0 -9 -4q-190 -168 -409 -414q-184 -211 -367 -424zM2421 1714q0 31 33.5 55.5t68.5 24.5q41 0 41 -35q0 -27 -33.5 -52.5t-66.5 -25.5q-43 0 -43 33 zM2763 1714q0 31 33.5 55.5t68.5 24.5q41 0 41 -35q0 -27 -33.5 -52.5t-66.5 -25.5q-43 0 -43 33z" />
<glyph unicode="&#xc5;" horiz-adv-x="2068" d="M-102 287q0 236 174 463q164 215 427 352t523 137q342 0 342 -252q0 -53 -21 -119q129 -37 386 -108q223 231 446 465q272 276 481 448q-8 10 -8 29q0 45 44 107.5t110.5 108.5t113.5 46q51 0 52 -49q0 -45 -44.5 -107.5t-111 -108.5t-113.5 -46q-14 0 -18 2q-2 0 -4 -4 q-268 -293 -631 -944q201 2 321 100q4 4 9 4q8 0 8 -8q0 -4 -6 -8q-135 -123 -355 -127q-219 -395 -344 -570q-201 -276 -422 -403q-10 0 -10 4q2 6 6 10q205 152 394 418q113 160 333 543q-80 4 -208 41q-344 -397 -609 -570q-367 -238 -817 -237q-225 0 -342 110 q-106 100 -106 273zM-80 299q0 -152 96 -240q102 -96 297 -96q369 0 736 225q280 172 653 545q-117 41 -369 115q-82 -217 -332 -402q-262 -193 -505 -192q-199 0 -199 154q0 170 186 321q215 176 549 176q139 0 287 -33q25 61 24 121q0 225 -321 226q-256 0 -513 -134.5 t-419 -343.5q-170 -219 -170 -442zM315 410q0 -135 181 -136q184 0 453.5 187.5t361.5 392.5q-156 33 -277 33q-326 0 -536 -170q-182 -145 -183 -307zM1798 741q113 -26 205 -32q326 557 577 864q4 4 5 8q0 2 -2 2q-4 0 -9 -4q-190 -168 -409 -414q-184 -211 -367 -424z M2681 1710q0 -27 29 -27q31 0 86 39q63 43 104 105q37 55 37 84q0 22 -27 22q-37 0 -94 -41t-100 -102q-35 -49 -35 -80z" />
<glyph unicode="&#xc6;" horiz-adv-x="2668" d="M-4 287q0 238 178 467q166 211 424 347t498 136q35 0 84 -4q113 147 348 235q244 92 549 93q258 0 473 -68q88 80 190 135q92 51 133 51q78 0 78 -71q0 -98 -110 -252q170 -109 243 -258q0 -14 -6 -15q-6 0 -8 11q-70 141 -238 252q-193 -252 -526 -439q0 -45 12 -80 q76 16 136 17q129 0 129 -76q0 -68 -111 -68q-106 0 -168 97q-242 -88 -412 -377q-84 -143 -84 -277q0 -190 201 -190q315 0 655 354l15 -14q-340 -360 -668 -361q-305 0 -305 271q0 223 190 401q167 156 394 217q-16 35 -23 64q-186 -100 -383 -150q-352 -412 -614 -585 q-371 -246 -826 -246q-225 0 -342 110q-106 100 -106 273zM18 299q0 -152 97 -240q102 -96 297 -96q365 0 725 219q277 169 637 527q-133 -27 -267 -27q-78 0 -151 20q-129 -184 -344 -311q-231 -137 -457 -137q-160 0 -160 154q0 100 80 208q86 121 236 197l10 -16 q-143 -72 -229 -187q-78 -104 -78 -200q0 -135 141 -136q172 0 399.5 132.5t368.5 308.5q-233 86 -233 280q0 121 79 226q-10 0 -34 2h-37q-229 0 -483.5 -135.5t-417.5 -339.5q-178 -223 -179 -449zM1110 995q0 -115 98 -196q55 -45 127 -68q106 139 107 262 q0 197 -250 226q-82 -111 -82 -224zM1202 1231q258 -33 258 -248q0 -119 -94 -262q74 -18 145 -19q147 0 283 27q239 252 739 752q-209 61 -456 61q-399 0 -680 -156q-123 -68 -195 -155zM1901 754q190 51 364 145q-4 33 -4 45q0 193 127 371q-129 -135 -487 -561zM2306 924 q51 29 121 75q254 172 391 355q-98 63 -209 100q-59 -63 -117 -135q-178 -227 -186 -395zM2329 805q41 -86 143 -86q88 0 88 49q0 57 -106 57q-57 0 -125 -20zM2623 1468q107 -41 203 -102q109 145 109 242q0 51 -51 51q-76 0 -261 -191z" />
<glyph unicode="&#xc7;" horiz-adv-x="1787" d="M0 758q0 236 282.5 400.5t704.5 164.5q115 0 230 -14q209 186 423 303q203 111 318 110q195 0 194 -211q0 -264 -219 -557q33 -35 62 -94q6 -8 -2 -14q-10 -4 -13 10q-10 25 -55 90q-133 -178 -302 -299t-277 -121q-135 0 -166 123q-174 -98 -367 -147q-59 -158 -59 -281 q0 -152 123 -219q82 -47 190 -47q326 0 715 352l14 -14q-393 -353 -721 -359l-127 -71q14 2 41 2q145 0 146 -113q0 -102 -99 -160q-84 -49 -198 -49q-88 0 -142 31l15 23q49 -33 127 -33q84 0 149 43q78 51 78 139q0 98 -104 98q-43 0 -70 -23.5t-47 -23.5q-10 0 -10 15 q0 10 10 16l192 106q-350 16 -350 404q0 59 10 135q-115 -29 -278 -29q-162 0 -283 82q-135 90 -135 232zM20 758q0 -115 99 -197q117 -96 303 -96q133 0 278 27q80 406 498 800q-100 12 -211 13q-401 0 -680 -156q-287 -160 -287 -391zM819 518q180 49 359 144q-6 25 -7 53 q0 279 273 528q-86 23 -137 33q-133 -143 -265 -342q-151 -228 -223 -416zM1196 674q74 43 141 88q256 176 392 354q-78 53 -218 107q-66 -66 -122 -142q-193 -253 -193 -407zM1198 659q18 -117 148 -116q104 0 271 120.5t298 294.5q-74 88 -172 150q-201 -265 -545 -449z M1321 1290q47 -10 137 -35q96 82 199 138q92 49 137 49q68 0 68 -72q0 -98 -111 -250q102 -65 170 -151q215 283 215 542q0 190 -178 191q-115 0 -287 -110.5t-350 -301.5zM1522 1233q121 -44 217 -105q106 145 106 242q0 51 -51 51q-84 0 -272 -188z" />
<glyph unicode="&#xc8;" horiz-adv-x="393" d="M-31 12q0 76 105 230q76 115 317 422l-4 4q-158 -154 -379 -377l-14 14q16 18 268 260q229 221 289 303q-33 6 -68 6q-96 0 -170 -90q-2 -4 -10 -4q-14 0 -14 11q0 2 4 6q106 127 223 127q27 0 72 -9l258 326h86l-273 -344q29 -6 56 -6q219 0 329 268q16 41 39 41 q29 0 29 -33q0 -18 -14 -43q-76 -125 -203 -206q-115 -74 -211 -74q-37 0 -61 8l-129 -166q-156 -197 -310 -393q-180 -233 -180 -275q0 -25 23 -24q45 0 182 127q111 102 180 186l14 -14q-78 -90 -178 -184q-154 -141 -215 -142q-41 0 -41 45z" />
<glyph unicode="&#xc9;" horiz-adv-x="1374" d="M-205 995q0 236 282.5 401t704.5 165q258 0 473 -68q92 82 193 137q90 49 131 49q78 0 78 -71q0 -104 -111 -250q170 -113 244 -260q0 -14 -6 -15q-6 0 -8 11q-70 139 -240 249q-197 -252 -524 -436q0 -39 12 -80q80 16 135 17q129 0 129 -76q0 -68 -110 -68 q-107 1 -168 97q-174 -63 -328 -256q-168 -205 -168 -398q0 -190 201 -190q315 0 655 354l14 -14q-340 -360 -667 -361q-305 0 -305 271q0 231 213 420q176 158 372 196q-14 31 -24 68q-379 -205 -760 -205q-162 0 -283 82q-135 90 -135 231zM-184 995q0 -125 114.5 -209 t286.5 -84q392 0 754 197q-4 29 -4 45q0 293 272 537q-209 61 -457 61q-416 0 -696 -166q-270 -160 -270 -381zM1012 924q338 199 512 430q-113 72 -209 100q-293 -317 -303 -530zM1034 805q41 -86 144 -86q88 0 88 49q0 57 -107 57q-66 0 -125 -20zM1329 1468 q105 -43 205 -102q106 145 106 242q0 51 -51 51q-76 0 -260 -191zM1618 1761q186 61 350 228q41 41 60 41q16 0 16 -13q0 -26 -43 -63q-176 -152 -381 -211z" />
<glyph unicode="&#xca;" horiz-adv-x="1374" d="M-205 995q0 236 282.5 401t704.5 165q258 0 473 -68q92 82 193 137q90 49 131 49q78 0 78 -71q0 -104 -111 -250q170 -113 244 -260q0 -14 -6 -15q-6 0 -8 11q-70 139 -240 249q-197 -252 -524 -436q0 -39 12 -80q80 16 135 17q129 0 129 -76q0 -68 -110 -68 q-107 1 -168 97q-174 -63 -328 -256q-168 -205 -168 -398q0 -190 201 -190q315 0 655 354l14 -14q-340 -360 -667 -361q-305 0 -305 271q0 231 213 420q176 158 372 196q-14 31 -24 68q-379 -205 -760 -205q-162 0 -283 82q-135 90 -135 231zM-184 995q0 -125 114.5 -209 t286.5 -84q392 0 754 197q-4 29 -4 45q0 293 272 537q-209 61 -457 61q-416 0 -696 -166q-270 -160 -270 -381zM1012 924q338 199 512 430q-113 72 -209 100q-293 -317 -303 -530zM1034 805q41 -86 144 -86q88 0 88 49q0 57 -107 57q-66 0 -125 -20zM1329 1468 q105 -43 205 -102q106 145 106 242q0 51 -51 51q-76 0 -260 -191zM1401 1749q72 18 178.5 87t175.5 140q41 41 55 41q16 0 17 -12q0 -6 -8 -23q-27 -49 -45 -124q-14 -57 -15 -91q0 -14 4 -22l-14 -14q-14 25 -14 73q-1 68 28 138q-72 -70 -183.5 -135.5t-176.5 -75.5z" />
<glyph unicode="&#xcb;" horiz-adv-x="1726" d="M-205 309q0 86 41 170q78 160 264.5 269.5t452.5 150.5q23 256 198 540.5t423 469.5q270 199 530 198q258 0 305 -223q33 4 62 4q223 0 395 -100q70 -41 192 -150q86 -78 140 -77q20 0 34.5 10t22.5 10q10 0 12 -12q2 -14 -8 -19q-31 -14 -61 -14q-63 0 -177 86 q-162 123 -225 158q-158 86 -328 86q-33 0 -53 -2q10 -55 10 -111q0 -223 -186 -510t-428 -428q55 -27 164 -88q203 281 403 561q211 276 361 334q12 6 16 -4q2 -10 -8 -14q-178 -82 -365 -371q-166 -279 -331 -559q131 -104 207 -230q2 -4 2 -6q0 -14 -13 -14q-8 0 -8 10 q-76 127 -199 223q-227 -350 -479 -526q-326 -227 -764 -227q-283 0 -448 121q-154 111 -154 284zM-184 311q0 -156 135 -254q145 -106 405 -106q367 0 695 233q246 177 512 527q-90 59 -174 92q-145 -78 -267 -78q-162 0 -161 172q-78 4 -121 4q-143 0 -271 -18v-27 q-2 -16 -2 -27q0 -336 297 -454q10 0 8 -10t-10 -11q-4 0 -6 2q-307 121 -307 471q0 33 2 52q-344 -53 -549 -226q-186 -156 -186 -342zM571 903q123 18 269 19q41 0 123 -4q4 152 153 370q154 227 373 389q252 185 498 205q-20 92 -95 148.5t-188 56.5q-258 0 -543 -217 q-295 -225 -467 -572q-104 -211 -123 -395zM981 895q0 -150 137 -150q80 0 207 80q-152 55 -344 70zM983 918q197 -16 365 -76q240 156 428 395q223 283 223 516q0 66 -8 109q-387 -31 -742 -437q-256 -293 -266 -507zM2580 1774q0 6 9 22q59 119 59 215q0 14 -4 23l14 14 q14 -25 15 -74q0 -67 -29 -137q72 70 183.5 135.5t176.5 75.5l2 -18q-72 -18 -178 -87t-176 -141q-41 -41 -55 -41q-16 0 -17 13z" />
<glyph unicode="&#xcc;" horiz-adv-x="1710" d="M-205 401q0 182 176 308q197 139 531 139q565 0 897 -377q25 25 114 123q-23 109 -22 205q0 248 119 489q106 215 268 356.5t295 141.5q74 0 74 -84q0 -145 -207 -514q-174 -307 -418 -647q-27 -37 -53 -70q49 -129 129 -242q0 -16 -10 -16q-2 0 -7 4q-78 117 -127 236 q-2 -2 -77 -84q66 -96 133 -246q0 -10 -8 -10q-6 2 -9 6q-66 145 -131 235q-193 -193 -441.5 -302t-494.5 -109q-346 0 -549 143q-182 129 -182 315zM-184 416q0 -188 186 -305q180 -111 459 -111q470 0 923 457q-315 371 -882 370q-315 0 -510 -131q-176 -119 -176 -280z M1513 795q0 -100 17 -183q315 369 508 686q176 289 176 408q0 53 -41 53q-152 0 -328 -174q-182 -180 -272 -440q-59 -172 -60 -350zM2165 2126q0 53 28 53q25 0 25 -51q0 -190 80 -313l-14 -9q-119 166 -119 320z" />
<glyph unicode="&#xcd;" horiz-adv-x="1724" d="M-141 389q0 213 194 371q215 174 557 174q428 0 764 -238q41 287 164 539q119 246 289 399q178 162 313 162q90 0 90 -102q0 -90 -73 -258q-233 -535 -566 -936q80 -86 154 -197q0 -16 -8 -16q-2 0 -6 4q-80 119 -152 192q-107 -123 -203 -207q12 -154 47 -280 q0 -16 -10 -16q-2 0 -6 4q-39 141 -47 278q-383 -319 -838 -319q-322 0 -502 137q-162 123 -161 309zM-113 397q0 -168 140 -276q156 -121 434 -121q459 0 893 424q0 121 18 246q-338 244 -762 243q-330 0 -536 -165q-186 -150 -187 -351zM1372 442q39 43 121 129 q-66 57 -104 86q-17 -111 -17 -215zM1391 682q69 -53 116 -94q406 457 611 866q82 164 82 244q0 74 -66 74q-121 0 -290 -155t-288 -396q-123 -252 -165 -539zM1987 1829q186 61 350 227q41 41 59 41q16 0 17 -12q0 -27 -43 -64q-176 -152 -381 -211z" />
<glyph unicode="&#xce;" horiz-adv-x="1398" d="M-205 1241q113 256 299 404q203 162 463 161q168 0 256 -92q61 10 133 10q199 0 307.5 -71.5t108.5 -202.5q0 -133 -105 -272q-59 -78 -196 -201q-104 -96 -105 -123q0 -27 27 -27q158 0 442 185q215 139 342 264q117 115 170 213q33 63 48 63q23 0 22 -30 q0 -66 -98 -172q-74 -80 -250 -228q-209 -176 -682 -501q-440 -303 -559 -412q-10 -10 -10 -16q0 -4 4 -5q8 0 16 13q96 86 379 276q350 238 448 238q74 0 74 -74q0 -96 -96 -240q-39 -57 -182 -227q-96 -119 -97 -154q0 -27 25 -26q61 0 184 96q119 90 232 217l14 -14 q-119 -133 -238 -223q-127 -96 -194 -97q-74 0 -74 99q0 94 188.5 312t188.5 273q0 35 -33 35q-102 0 -469 -256q-340 -236 -497 -393q-53 -53 -177 -207q-76 -96 -112 -96q-20 0 -21 27q0 31 84 120q207 221 504 449q106 80 539 381q334 231 532 401q0 10 -8 10 q-401 -322 -639 -321q-57 0 -57 67q0 92 94 205q86 94 174 191q94 113 94 213q0 221 -342 221q-66 0 -117 -8q74 -92 74 -275q0 -297 -262 -565q-254 -258 -502 -258q-190 0 -190 209q0 309 262 582q253 266 577 323q-80 74 -231 74q-233 0 -424 -137q-199 -145 -319 -416 q-6 -8 -13 -8q-6 0 -6 16zM-31 807q0 -184 158 -184q141 0 318.5 129t297.5 315q129 205 129 389q1 166 -67 238q-322 -49 -576 -314q-260 -270 -260 -573zM1665 1726q0 6 8 23q59 119 60 215q0 14 -4 23l14 14q14 -25 14 -74q1 -67 -28 -137q72 70 183 135.5t177 75.5 l2 -19q-72 -18 -178.5 -86.5t-175.5 -140.5q-41 -41 -56 -41q-16 0 -16 12z" />
<glyph unicode="&#xcf;" horiz-adv-x="647" d="M-45 -12q0 23 53 75q61 63 158 121q57 35 227 197q-12 -8 -31 -8q-61 0 -61 57q0 47 88 136t88 110q0 16 -12 16q-41 0 -217 -162q-158 -143 -240 -239l-14 14q102 115 248 246q178 160 229 160q47 0 47 -54q0 -53 -86 -141t-86 -110q0 -20 21 -21q20 0 45 14l290 265 q53 51 74 51q8 0 8 -8q0 -23 -53 -76q-63 -61 -160 -121q-88 -54 -227 -197q12 8 31 9q61 0 61 -58q0 -47 -90 -139t-90 -113q0 -14 12 -14q53 0 181 113q102 90 192 196l14 -14q-92 -106 -198 -197q-135 -117 -195 -116q-47 0 -47 53t88 143t88 113q0 20 -20 20t-49 -16 q-115 -104 -285 -262q-55 -51 -76 -51q-6 0 -6 8zM713 926q0 8 8 22q59 129 59 209q0 27 -4 35l15 8q14 -25 14 -74q0 -67 -29 -137q72 70 183.5 135.5t177.5 75.5l2 -16q-72 -18 -177.5 -88t-177.5 -142q-41 -41 -55 -41q-16 0 -16 13z" />
<glyph unicode="&#xd0;" horiz-adv-x="2095" d="M0 49q0 106 182 107q154 0 353 -70q215 131 522 510h-234l15 37h249q158 197 316 395q184 223 336 356q-137 145 -367 177q-74 -307 -326.5 -569.5t-480.5 -262.5q-160 0 -159 160q0 244 247 461q270 236 633 235q47 0 72 -2q12 49 12 127q0 227 -254 227 q-244 0 -493 -180q-233 -168 -387 -429t-154 -499q0 -287 264 -358q6 -2 6 -8q0 -10 -12 -10q-276 78 -277 376q0 248 158 517q156 262 393 432q254 180 502 180q272 0 273 -248q0 -76 -13 -129q254 -20 408 -160q172 143 354 217q14 0 14 -10q-2 -6 -8 -6 q-182 -80 -334 -223q221 -219 222 -580q0 -342 -209 -590q-254 -297 -715 -297q-227 0 -516 109q-174 -92 -408 -92q-184 0 -184 100zM20 49q0 -74 160 -74q152 1 324 97q-197 66 -322 65q-162 0 -162 -88zM422 889q0 -141 143 -141q201 0 465 284q256 275 322 531 q-20 2 -66 2q-248 0 -461 -117q-184 -102 -297 -268q-106 -154 -106 -291zM627 53q279 -98 481 -98q401 0 629 278q197 240 196 578q0 350 -170 547q-127 -127 -280 -342q-133 -190 -266 -383h313l-14 -37h-326q-291 -399 -563 -543z" />
<glyph unicode="&#xd1;" horiz-adv-x="2021" d="M-207 375q0 236 207 401q262 211 774 211q410 0 758 -182q27 39 309 467q178 270 299 405q6 6 14 6q16 0 17 -16q0 -6 -6 -16q-109 -188 -180 -402q-49 -141 -119 -422l-56 -221q61 -55 113 -123q121 211 245 421t230 302q131 117 291 117q156 0 156 -70q0 -25 -25 -24 q-23 0 -65.5 25.5t-100.5 25.5q-131 0 -246 -102q-94 -86 -219 -285l-254 -426q55 -72 95 -164q4 -4 4 -8q0 -12 -13 -12q-6 0 -6 10q-39 88 -90 156q-199 -324 -395 -572q-6 -6 -12 -6q-18 0 -19 16q0 8 6 15q170 260 275 706q-80 70 -174 131q-223 -389 -461 -579 q-317 -256 -754 -256q-219 0 -389 108q-209 131 -209 363zM-184 375q0 -168 129 -283q145 -129 401 -129q348 0 664 248q242 190 512 577q-336 178 -748 179q-496 0 -754 -205q-205 -164 -204 -387zM1610 37q2 0 5 -4l3 -4q141 184 293 438q-49 63 -107 117 q-94 -371 -194 -547zM1616 756q102 -66 170 -127q76 319 108 428q80 266 201 516q-2 0 -4 4t-4 2q-100 -123 -234 -375q-119 -223 -237 -448zM2269 1657q96 98 180 98q51 0 132 -49t124 -49q68 0 138 76l8 -9q-94 -113 -172 -112q-49 0 -134 51t-130 51q-70 0 -134 -65z" />
<glyph unicode="&#xd2;" horiz-adv-x="1626" d="M102 936q0 240 146 465q131 203 336 334q199 129 368 129q201 0 256 -166q291 -14 291 -314q0 -221 -239 -479q-82 -90 -535 -504q-293 -270 -293 -358q0 -51 51 -51q176 0 789 616q340 354 678 709q150 137 243 194q102 61 195 62q33 0 33 -21q0 -23 -41 -22 q-221 0 -471 -350q-698 -981 -699 -1160q0 -27 25 -26q121 0 387 313l14 -14q-272 -319 -403 -320q-68 0 -68 66q0 203 297 620q139 197 488 615q4 4 4 8t-12 4q-319 -340 -642 -678q-625 -637 -817 -637q-80 0 -80 86q0 141 279 432q256 254 514 508q260 270 260 453 q0 215 -244 233q14 -49 15 -118q0 -299 -242 -555q-227 -242 -457 -242q-197 0 -196 215q0 285 295 508q268 203 547 207q-45 150 -224 149q-164 0 -358 -127q-201 -131 -330 -329q-143 -223 -143 -455q0 -156 78 -262q4 -4 4 -8q0 -8 -11 -9q-4 0 -8 5q-80 109 -80 274z M352 983q0 -90 48.5 -142.5t129.5 -52.5q197 0 431 285q229 279 229 498q0 63 -10 112q-270 -2 -533 -196q-295 -215 -295 -504zM1796 1608q0 45 44 107.5t110.5 108.5t113.5 46q51 0 52 -49q0 -45 -44 -107.5t-111 -108.5t-114 -46q-51 0 -51 49zM1829 1616q0 -27 29 -27 q31 0 86 39q63 43 104 105q37 55 37 84q0 22 -27 22q-37 0 -94 -41t-100 -102q-35 -49 -35 -80z" />
<glyph unicode="&#xd3;" horiz-adv-x="1908" d="M-20 266q0 25 8 25q4 0 6 -8q57 -160 282 -160q59 0 117 14q-29 74 -28 170q0 326 253 686q238 336 594 563q369 233 689 234q213 0 213 -172q0 -115 -107 -272q41 -78 41 -201q0 -326 -221 -627q-197 -264 -506 -436q-297 -164 -553 -164q-279 0 -367 201 q-63 -14 -122 -15q-236 0 -299 162zM444 264q1 -65 15 -110q186 57 440 211q-96 63 -96 204q0 217 153 443q143 207 359.5 346t400.5 139q203 0 283 -133q96 147 96 254q0 152 -170 151q-223 0 -573 -223q-369 -233 -619 -557q-289 -375 -289 -725zM465 135 q66 -190 323 -190q242 0 529 159q301 168 493 428q217 293 218 613q0 111 -33 182q-162 -233 -458 -502.5t-599 -457.5q49 -18 104 -19q213 0 396 189q6 6 10 6q8 0 8 -15q-195 -199 -418 -198q-66 0 -118 24q-267 -164 -455 -219zM842 526q0 -102 78 -149q315 199 614 471 t453 498q-70 133 -271 133q-172 0 -387 -170q-199 -160 -340 -383q-147 -231 -147 -400zM1950 1872q186 61 350 227q41 41 59 41q16 0 17 -12q0 -27 -43 -64q-176 -152 -381 -211z" />
<glyph unicode="&#xd4;" horiz-adv-x="1908" d="M-20 266q0 25 8 25q4 0 6 -8q57 -160 282 -160q59 0 117 14q-29 74 -28 170q0 326 253 686q238 336 594 563q369 233 689 234q213 0 213 -172q0 -115 -107 -272q41 -78 41 -201q0 -326 -221 -627q-197 -264 -506 -436q-297 -164 -553 -164q-279 0 -367 201 q-63 -14 -122 -15q-236 0 -299 162zM444 264q1 -65 15 -110q186 57 440 211q-96 63 -96 204q0 217 153 443q143 207 359.5 346t400.5 139q203 0 283 -133q96 147 96 254q0 152 -170 151q-223 0 -573 -223q-369 -233 -619 -557q-289 -375 -289 -725zM465 135 q66 -190 323 -190q242 0 529 159q301 168 493 428q217 293 218 613q0 111 -33 182q-162 -233 -458 -502.5t-599 -457.5q49 -18 104 -19q213 0 396 189q6 6 10 6q8 0 8 -15q-195 -199 -418 -198q-66 0 -118 24q-267 -164 -455 -219zM842 526q0 -102 78 -149q315 199 614 471 t453 498q-70 133 -271 133q-172 0 -387 -170q-199 -160 -340 -383q-147 -231 -147 -400zM1763 1853q72 18 178.5 87t176.5 141q41 41 55 41q16 0 16 -13q0 -6 -8 -22q-27 -49 -45 -125q-14 -57 -14 -90q0 -14 4 -23l-15 -14q-14 25 -14 74q0 67 29 137 q-72 -70 -183.5 -135.5t-177.5 -75.5z" />
<glyph unicode="&#xd5;" horiz-adv-x="1908" d="M-20 266q0 25 8 25q4 0 6 -8q57 -160 282 -160q59 0 117 14q-29 74 -28 170q0 326 253 686q238 336 594 563q369 233 689 234q213 0 213 -172q0 -115 -107 -272q41 -78 41 -201q0 -326 -221 -627q-197 -264 -506 -436q-297 -164 -553 -164q-279 0 -367 201 q-63 -14 -122 -15q-236 0 -299 162zM444 264q1 -65 15 -110q186 57 440 211q-96 63 -96 204q0 217 153 443q143 207 359.5 346t400.5 139q203 0 283 -133q96 147 96 254q0 152 -170 151q-223 0 -573 -223q-369 -233 -619 -557q-289 -375 -289 -725zM465 135 q66 -190 323 -190q242 0 529 159q301 168 493 428q217 293 218 613q0 111 -33 182q-162 -233 -458 -502.5t-599 -457.5q49 -18 104 -19q213 0 396 189q6 6 10 6q8 0 8 -15q-195 -199 -418 -198q-66 0 -118 24q-267 -164 -455 -219zM842 526q0 -102 78 -149q315 199 614 471 t453 498q-70 133 -271 133q-172 0 -387 -170q-199 -160 -340 -383q-147 -231 -147 -400zM1753 1903q96 98 180 98q51 0 132 -49t124 -49q68 0 138 75l8 -8q-94 -113 -172 -112q-49 0 -134 51t-131 51q-70 0 -133 -66z" />
<glyph unicode="&#xd6;" horiz-adv-x="1908" d="M-20 266q0 25 8 25q4 0 6 -8q57 -160 282 -160q59 0 117 14q-29 74 -28 170q0 326 253 686q238 336 594 563q369 233 689 234q213 0 213 -172q0 -115 -107 -272q41 -78 41 -201q0 -326 -221 -627q-197 -264 -506 -436q-297 -164 -553 -164q-279 0 -367 201 q-63 -14 -122 -15q-236 0 -299 162zM444 264q1 -65 15 -110q186 57 440 211q-96 63 -96 204q0 217 153 443q143 207 359.5 346t400.5 139q203 0 283 -133q96 147 96 254q0 152 -170 151q-223 0 -573 -223q-369 -233 -619 -557q-289 -375 -289 -725zM465 135 q66 -190 323 -190q242 0 529 159q301 168 493 428q217 293 218 613q0 111 -33 182q-162 -233 -458 -502.5t-599 -457.5q49 -18 104 -19q213 0 396 189q6 6 10 6q8 0 8 -15q-195 -199 -418 -198q-66 0 -118 24q-267 -164 -455 -219zM842 526q0 -102 78 -149q315 199 614 471 t453 498q-70 133 -271 133q-172 0 -387 -170q-199 -160 -340 -383q-147 -231 -147 -400zM1806 1894q0 31 34 55.5t69 24.5q41 0 41 -35q0 -27 -34 -52t-67 -25q-43 0 -43 32zM2148 1894q0 31 34 55.5t69 24.5q41 0 41 -35q0 -27 -34 -52t-67 -25q-43 0 -43 32z" />
<glyph unicode="&#xd7;" horiz-adv-x="675" d="M94 94l189 264l-82 269l32 45l82 -266l177 249l22 -34l-186 -263l84 -266l-35 -49l-82 270l-178 -252z" />
<glyph unicode="&#xd8;" horiz-adv-x="2021" d="M63 -172l312 276q-43 80 -43 203q0 385 293 754q250 315 635 530q356 201 606 201q215 0 221 -160l272 244l23 -12l-297 -265q-8 -102 -111 -253q41 -78 41 -201q0 -326 -221 -627q-197 -264 -506 -436q-297 -164 -553 -164q-250 0 -348 164l-299 -266zM412 264 q0 -55 14 -112l362 323q-18 49 -18 121q0 217 154 436q141 201 357 333t402 132q123 0 199 -47l184 164q0 154 -174 153q-221 0 -571 -223q-371 -233 -621 -557q-289 -373 -288 -723zM436 125q72 -180 320 -180q242 0 528 159q301 168 494 428q217 293 217 613 q0 109 -31 182q-59 -84 -115 -149l-14 12q43 53 119 156q-23 44 -66 77l-266 -237q117 -27 117 -168q0 -215 -271 -447q-264 -223 -485 -223q-131 0 -184 103zM809 553q0 -20 4 -57l754 680q-139 0 -262 -123q-6 -6 -13 -6q-6 0 -6 6t6 12q133 127 273 127q16 0 24 -2 l279 248q-70 41 -185 41q-172 0 -387 -164q-199 -152 -340 -371q-147 -223 -147 -391zM821 471q33 -102 160 -102q211 0 471 217q272 223 272 432q1 135 -116 153zM1903 1436q33 -25 63 -72q84 129 98 217z" />
<glyph unicode="&#xd9;" horiz-adv-x="1626" d="M102 936q0 240 146 465q131 203 336 334q199 129 368 129q201 0 256 -166q291 -14 291 -314q0 -221 -239 -479q-82 -90 -535 -504q-293 -270 -293 -358q0 -51 51 -51q176 0 789 616q340 354 678 709q150 137 243 194q102 61 195 62q33 0 33 -21q0 -23 -41 -22 q-221 0 -471 -350q-698 -981 -699 -1160q0 -27 25 -26q121 0 387 313l14 -14q-272 -319 -403 -320q-68 0 -68 66q0 203 297 620q139 197 488 615q4 4 4 8t-12 4q-319 -340 -642 -678q-625 -637 -817 -637q-80 0 -80 86q0 141 279 432q256 254 514 508q260 270 260 453 q0 215 -244 233q14 -49 15 -118q0 -299 -242 -555q-227 -242 -457 -242q-197 0 -196 215q0 285 295 508q268 203 547 207q-45 150 -224 149q-164 0 -358 -127q-201 -131 -330 -329q-143 -223 -143 -455q0 -156 78 -262q4 -4 4 -8q0 -8 -11 -9q-4 0 -8 5q-80 109 -80 274z M352 983q0 -90 48.5 -142.5t129.5 -52.5q197 0 431 285q229 279 229 498q0 63 -10 112q-270 -2 -533 -196q-295 -215 -295 -504zM1864 2021q0 53 28 54q25 0 25 -52q0 -190 80 -313l-15 -8q-118 165 -118 319z" />
<glyph unicode="&#xda;" horiz-adv-x="1626" d="M102 936q0 240 146 465q131 203 336 334q199 129 368 129q201 0 256 -166q291 -14 291 -314q0 -221 -239 -479q-82 -90 -535 -504q-293 -270 -293 -358q0 -51 51 -51q176 0 789 616q340 354 678 709q150 137 243 194q102 61 195 62q33 0 33 -21q0 -23 -41 -22 q-221 0 -471 -350q-698 -981 -699 -1160q0 -27 25 -26q121 0 387 313l14 -14q-272 -319 -403 -320q-68 0 -68 66q0 203 297 620q139 197 488 615q4 4 4 8t-12 4q-319 -340 -642 -678q-625 -637 -817 -637q-80 0 -80 86q0 141 279 432q256 254 514 508q260 270 260 453 q0 215 -244 233q14 -49 15 -118q0 -299 -242 -555q-227 -242 -457 -242q-197 0 -196 215q0 285 295 508q268 203 547 207q-45 150 -224 149q-164 0 -358 -127q-201 -131 -330 -329q-143 -223 -143 -455q0 -156 78 -262q4 -4 4 -8q0 -8 -11 -9q-4 0 -8 5q-80 109 -80 274z M352 983q0 -90 48.5 -142.5t129.5 -52.5q197 0 431 285q229 279 229 498q0 63 -10 112q-270 -2 -533 -196q-295 -215 -295 -504zM1821 1761q186 61 350 228q41 41 59 41q16 0 17 -13q0 -26 -43 -63q-176 -152 -381 -211z" />
<glyph unicode="&#xdb;" horiz-adv-x="669" d="M-51 31q0 80 125 254q39 53 219 274q6 6 2 10q-6 4 -10 -4q-76 -74 -277 -274l-14 14q317 309 383 381h106q-254 -303 -309 -375q-193 -242 -192 -297q0 -18 16 -18q104 0 682 690h104q-487 -600 -487 -670q0 -18 16 -18q37 0 137.5 88t213.5 221l14 -14 q-266 -319 -377 -320q-41 0 -41 45t49 129q20 37 166 265l-4 4q-207 -229 -299 -320q-129 -123 -180 -123q-43 0 -43 58zM631 936q0 45 44 107.5t110.5 108.5t113.5 46q51 0 51 -49q0 -45 -44 -107.5t-110.5 -108.5t-113.5 -46q-51 0 -51 49zM664 944q0 -27 28 -26 q31 0 86 38q63 43 105 105q37 55 37 84q0 22 -27 22q-37 0 -94.5 -41t-100.5 -102q-35 -49 -34 -80z" />
<glyph unicode="&#xdc;" horiz-adv-x="1626" d="M102 936q0 240 146 465q131 203 336 334q199 129 368 129q201 0 256 -166q291 -14 291 -314q0 -221 -239 -479q-82 -90 -535 -504q-293 -270 -293 -358q0 -51 51 -51q176 0 789 616q340 354 678 709q150 137 243 194q102 61 195 62q33 0 33 -21q0 -23 -41 -22 q-221 0 -471 -350q-698 -981 -699 -1160q0 -27 25 -26q121 0 387 313l14 -14q-272 -319 -403 -320q-68 0 -68 66q0 203 297 620q139 197 488 615q4 4 4 8t-12 4q-319 -340 -642 -678q-625 -637 -817 -637q-80 0 -80 86q0 141 279 432q256 254 514 508q260 270 260 453 q0 215 -244 233q14 -49 15 -118q0 -299 -242 -555q-227 -242 -457 -242q-197 0 -196 215q0 285 295 508q268 203 547 207q-45 150 -224 149q-164 0 -358 -127q-201 -131 -330 -329q-143 -223 -143 -455q0 -156 78 -262q4 -4 4 -8q0 -8 -11 -9q-4 0 -8 5q-80 109 -80 274z M352 983q0 -90 48.5 -142.5t129.5 -52.5q197 0 431 285q229 279 229 498q0 63 -10 112q-270 -2 -533 -196q-295 -215 -295 -504zM1735 1714q0 31 33.5 55.5t68.5 24.5q41 0 41 -35q0 -27 -34 -52.5t-66 -25.5q-43 0 -43 33zM2077 1714q0 31 33.5 55.5t68.5 24.5q41 0 41 -35 q0 -27 -34 -52.5t-66 -25.5q-43 0 -43 33z" />
<glyph unicode="&#xdd;" horiz-adv-x="2156" d="M-410 -68q0 272 205 543q219 289 578 440q287 121 616 134q193 281 445 467q272 201 497 200q139 0 140 -129q0 -231 -449 -663q96 -47 178 -119q248 199 656 575q147 137 246.5 196.5t191.5 59.5q33 0 33 -20q0 -23 -41 -23q-150 0 -299 -151q-117 -117 -285 -383 q-155 -254 -311 -508q43 -111 43 -223q0 -229 -166 -455q-2 -10 -13 -10q-10 0 -10 16q164 223 164 447q0 106 -37 198q-332 -514 -665 -772q-459 -354 -1049 -354q-330 0 -506 156q-162 143 -162 378zM-383 -66q0 -223 150 -358q162 -147 462 -147q532 0 983 366 q305 250 717 821q-51 90 -127 160q-442 -356 -612 -356q-57 0 -57 67q0 84 354 469q-199 72 -438 72h-54q-238 -348 -237 -637q0 -336 297 -454q10 0 10 -9q0 -10 -18 -10q-307 121 -308 471q0 287 236 637q-307 -12 -615 -145q-326 -143 -522 -373q-221 -260 -221 -574z M1010 1049h39q251 0 454 -76q285 303 352 381q166 195 166 258q0 82 -88 82q-213 0 -477 -191q-252 -180 -446 -454zM1163 467q0 -27 27 -27q152 1 594 351q-82 70 -178 114q-150 -139 -301 -276q-141 -131 -142 -162zM1819 788q78 -73 125 -151q129 182 256 362 q145 203 256 338q4 4 4 9q0 4 -13 4q-338 -328 -628 -562zM2339 1724q186 61 350 228q41 41 59 41q16 0 17 -13q0 -26 -43 -63q-176 -152 -381 -211z" />
<glyph unicode="&#xde;" horiz-adv-x="1378" d="M-205 266q0 129 106.5 240.5t295.5 169.5q37 238 289.5 438.5t535.5 202.5q-59 143 -256 143v17q215 0 278 -160q291 -6 400 -213q211 242 479 291q-86 0 -244.5 45t-246.5 45q-115 0 -236 -58l-6 13q154 72 280 71q86 0 230.5 -47t241.5 -47q29 0 28 -18q0 -23 -35 -27 q-180 -25 -358 -168q-66 -53 -123 -125q47 -98 47 -209q0 -260 -178 -442q-158 -164 -338 -164q-47 -51 -111 -106q-260 -223 -626 -224q-182 0 -317.5 94.5t-135.5 237.5zM-182 266q0 -119 102 -192q111 -78 307 -78q178 0 332 72q145 70 307 223q-68 35 -67 104 q0 51 37.5 92t91.5 41q18 0 37 -6q6 0 6 -8q0 -10 -13 -10q-10 4 -30 4q-39 0 -72 -29q-37 -35 -37 -84q0 -57 60 -90q94 92 260 357q186 297 284 415q-91 213 -372 223q18 -55 18 -120q0 -332 -231 -564q-207 -209 -437 -208q-209 0 -208 206q0 27 2 41 q-176 -55 -276.5 -159.5t-100.5 -229.5zM213 610q0 -176 180 -176q203 0 402 219q254 281 254 525q-1 69 -21 122q-268 -2 -518 -196.5t-291 -421.5q150 41 313 41q4 0 5 -10q0 -8 -5 -8q-164 0 -315 -43q-4 -37 -4 -52zM999 285q123 6 287 196q172 201 172 414 q1 88 -24 156q-82 -113 -197 -349q-150 -307 -238 -417z" />
<glyph unicode="&#xdf;" horiz-adv-x="643" d="M-682 -739q778 979 1126 1392q-123 -96 -245 -192q-137 -109 -191 -170l-14 14q74 86 237 213q129 98 258 197q209 272 416 542q360 451 447 451q37 0 37 -41q0 -86 -138 -274q-152 -203 -409 -449q-172 -162 -203 -313q-10 -49 -21 -156q-6 -82 -28 -147 q-49 -152 -178 -260q-111 -94 -191 -95q-76 0 -76 80q0 51 32 96.5t75 45.5t43 -39q0 -53 -53 -54q-27 0 -46.5 -18t-19.5 -45q0 -43 45 -43q72 0 164 113q98 121 150 294q29 98 73 228q37 104 72 160q43 66 149 172q537 537 537 698q0 25 -16 25q-84 0 -723 -867 q-516 -668 -1205 -1558h-104z" />
<glyph unicode="&#xe0;" horiz-adv-x="712" d="M-18 39q0 209 204 416q6 4 -4 4q-90 -70 -174 -168l-14 14q186 217 469 330q139 55 270 55q27 0 80 -4q-156 -195 -311 -389q-178 -231 -178 -272q0 -25 22 -25q45 0 182 123q113 102 181 184l14 -14q-74 -84 -178 -180q-154 -139 -215 -140q-41 0 -41 45q0 90 227 383 l-4 5q-381 -432 -483 -433q-47 0 -47 66zM14 25q0 -25 21 -25q70 0 346 293q187 199 334 379q-254 0 -504 -303q-197 -238 -197 -344zM680 1174q0 53 29 53q25 0 24 -51q0 -190 80 -314l-14 -8q-119 166 -119 320z" />
<glyph unicode="&#xe1;" horiz-adv-x="712" d="M-18 39q0 209 204 416q0 4 -4 4q-90 -70 -174 -168l-14 14q186 217 469 330q139 55 270 55q27 0 80 -4q-156 -195 -311 -389q-178 -231 -178 -272q0 -25 22 -25q45 0 182 123q113 102 181 184l14 -14q-74 -84 -178 -180q-154 -139 -215 -140q-41 0 -41 45q0 90 227 383 l-4 5q-381 -432 -483 -433q-47 0 -47 66zM14 25q0 -25 21 -25q70 0 346 293q187 199 334 379q-254 0 -504 -303q-197 -238 -197 -344zM682 932q186 61 350 227q41 41 60 41q16 0 16 -12q0 -27 -43 -64q-176 -152 -381 -211z" />
<glyph unicode="&#xe2;" horiz-adv-x="1583" d="M-205 758q0 236 282.5 400.5t704.5 164.5q115 0 230 -14q209 186 424 303q203 111 317 110q195 0 195 -211q0 -264 -219 -557q33 -35 61 -94q6 -8 -2 -14q-10 -4 -12 10q-10 25 -56 90q-133 -178 -302 -299t-277 -121q-135 0 -166 123q-174 -98 -367 -147 q-59 -158 -59 -281q0 -152 123 -219q82 -47 190 -47q326 0 715 352l14 -14q-397 -358 -729 -359q-381 0 -381 404q1 59 11 135q-115 -29 -279 -29q-162 0 -283 82q-135 90 -135 232zM-184 758q0 -115 98 -197q117 -96 303 -96q134 0 279 27q80 406 497 800q-100 12 -211 13 q-401 0 -680 -156q-287 -160 -286 -391zM614 518q180 49 359 144q-6 25 -6 53q0 279 272 528q-86 23 -137 33q-133 -143 -264 -342q-152 -228 -224 -416zM991 674q74 43 142 88q256 176 391 354q-78 53 -217 107q-66 -66 -123 -142q-193 -253 -193 -407zM993 659 q18 -117 148 -116q104 0 271 120.5t298 294.5q-74 88 -172 150q-201 -265 -545 -449zM1116 1290q47 -10 137 -35q96 82 199 138q92 49 137 49q68 0 68 -72q0 -98 -111 -250q102 -65 170 -151q215 283 215 542q0 190 -178 191q-115 0 -287 -110.5t-350 -301.5zM1317 1233 q121 -44 217 -105q106 145 106 242q0 51 -51 51q-84 0 -272 -188zM1831 1792q0 6 8 23q59 119 59 215q0 14 -4 22l15 14q14 -25 14 -73q0 -68 -29 -138q72 70 183.5 135.5t177.5 75.5l2 -18q-72 -18 -178.5 -87t-175.5 -140q-41 -41 -56 -41q-16 0 -16 12z" />
<glyph unicode="&#xe3;" d="M-37 37q0 162 217 414q0 2 -4 2q-100 -74 -168 -160l-14 14q49 59 196 185q170 139 279 194q55 29 88 29q49 0 49 -62q0 -66 -34.5 -112.5t-79.5 -46.5q-39 0 -39 36q0 31 31.5 61t80.5 30q18 18 19 41q0 35 -33 34q-27 0 -72 -32q-61 -43 -264 -293q-217 -266 -217 -342 q0 -35 31 -35q82 0 233 110q135 98 225 205l15 -14q-100 -115 -248 -218.5t-221 -103.5q-70 0 -70 64zM625 926q0 8 8 22q59 129 59 209q0 27 -4 35l14 8q14 -25 15 -74q0 -67 -29 -137q72 70 183.5 135.5t177.5 75.5l2 -16q-72 -18 -177.5 -88t-177.5 -142q-41 -41 -55 -41 q-16 0 -16 13z" />
<glyph unicode="&#xe4;" horiz-adv-x="712" d="M-18 39q0 209 204 416q0 4 -4 4q-90 -70 -174 -168l-14 14q186 217 469 330q139 55 270 55q27 0 80 -4q-156 -195 -311 -389q-178 -231 -178 -272q0 -25 22 -25q45 0 182 123q113 102 181 184l14 -14q-74 -84 -178 -180q-154 -139 -215 -140q-41 0 -41 45q0 90 227 383 l-4 5q-381 -432 -483 -433q-47 0 -47 66zM14 25q0 -25 21 -25q70 0 346 293q187 199 334 379q-254 0 -504 -303q-197 -238 -197 -344zM647 1008q0 33 24.5 60.5t49.5 27.5q29 0 29 -39q0 -29 -24 -56.5t-48 -27.5q-31 0 -31 35zM891 1008q0 33 24.5 60.5t49.5 27.5 q29 0 28 -39q0 -29 -23.5 -56.5t-47.5 -27.5q-31 0 -31 35z" />
<glyph unicode="&#xe5;" horiz-adv-x="712" d="M-18 39q0 209 204 416q0 4 -4 4q-90 -70 -174 -168l-14 14q186 217 469 330q139 55 270 55q27 0 80 -4q-156 -195 -311 -389q-178 -231 -178 -272q0 -25 22 -25q45 0 182 123q113 102 181 184l14 -14q-74 -84 -178 -180q-154 -139 -215 -140q-41 0 -41 45q0 90 227 383 l-4 5q-381 -432 -483 -433q-47 0 -47 66zM14 25q0 -25 21 -25q70 0 346 293q187 199 334 379q-254 0 -504 -303q-197 -238 -197 -344zM678 936q0 45 44 107.5t110.5 108.5t113.5 46q51 0 51 -49q0 -45 -44 -107.5t-110.5 -108.5t-113.5 -46q-51 0 -51 49zM711 944 q0 -27 28 -26q31 0 86 38q63 43 105 105q37 55 37 84q0 22 -27 22q-37 0 -94.5 -41t-100.5 -102q-35 -49 -34 -80z" />
<glyph unicode="&#xe6;" horiz-adv-x="430" d="M-31 39q0 68 97 203q59 82 342 432q4 4 2 8q-2 2 -7 -2q-211 -186 -395 -389l-14 14q193 227 479 461q205 258 412 518q352 424 428 424q37 0 37 -41q0 -109 -209 -354q-236 -279 -553 -494q-152 -201 -344 -450q-229 -299 -230 -349q0 -27 25 -26q121 0 387 313l14 -14 q-272 -319 -403 -320q-68 0 -68 66zM627 874q0 -4 6 -4q313 233 520 488q172 211 172 299q0 25 -20 24q-64 0 -678 -807zM1323 1829q186 61 350 227q41 41 60 41q16 0 16 -12q0 -27 -43 -64q-176 -152 -381 -211z" />
<glyph unicode="&#xe7;" d="M-301 -377l10 23q27 -33 80 -33q88 0 156.5 61.5t68.5 137.5q0 74 -65 73q-35 0 -50.5 -23.5t-29.5 -23.5q-8 0 -8 15q0 10 8 16l149 106q-55 6 -55 62q0 162 217 414q0 2 -4 2q-100 -74 -168 -160l-14 14q49 59 196 185q170 139 279 194q55 29 88 29q49 0 49 -62 q0 -66 -34.5 -112.5t-79.5 -46.5q-39 0 -39 36q0 31 31.5 61t80.5 30q18 18 19 41q0 35 -33 34q-27 0 -72 -32q-61 -43 -264 -293q-217 -266 -217 -342q0 -35 31 -35q82 0 233 110q135 98 225 205l15 -14q-96 -113 -238 -213q-147 -102 -223 -109l-94 -69q8 2 24 2 q82 0 82 -99q0 -74 -71 -141q-78 -74 -193 -74q-55 0 -90 31z" />
<glyph unicode="&#xe8;" d="M-37 37q0 160 217 414q0 4 -2 4q-94 -74 -170 -162l-14 14q74 84 266 236q219 172 285 172q41 0 41 -43q0 -72 -109 -185q-133 -137 -375 -264q-104 -150 -104 -194q0 -35 31 -35q78 0 229 108q137 100 229 207l15 -14q-100 -115 -248 -218.5t-221 -103.5q-70 0 -70 64z M125 254q203 113 332 250q106 111 106 168q0 22 -20 22q-53 0 -152 -108q-14 -16 -176 -215q-33 -41 -90 -117zM506 1174q0 53 29 53q25 0 24 -51q0 -190 80 -314l-14 -8q-119 166 -119 320z" />
<glyph unicode="&#xe9;" d="M-37 37q0 160 217 414q0 4 -2 4q-94 -74 -170 -162l-14 14q74 84 266 236q219 172 285 172q41 0 41 -43q0 -72 -109 -185q-133 -137 -375 -264q-104 -150 -104 -194q0 -35 31 -35q78 0 229 108q137 100 229 207l15 -14q-100 -115 -248 -218.5t-221 -103.5q-70 0 -70 64z M125 254q203 113 332 250q106 111 106 168q0 22 -20 22q-53 0 -152 -108q-14 -16 -176 -215q-33 -41 -90 -117zM537 932q186 61 350 227q41 41 59 41q16 0 17 -12q0 -27 -43 -64q-176 -152 -381 -211z" />
<glyph unicode="&#xea;" d="M-37 37q0 160 217 414q0 4 -2 4q-94 -74 -170 -162l-14 14q74 84 266 236q219 172 285 172q41 0 41 -43q0 -72 -109 -185q-133 -137 -375 -264q-104 -150 -104 -194q0 -35 31 -35q78 0 229 108q137 100 229 207l15 -14q-100 -115 -248 -218.5t-221 -103.5q-70 0 -70 64z M125 254q203 113 332 250q106 111 106 168q0 22 -20 22q-53 0 -152 -108q-14 -16 -176 -215q-33 -41 -90 -117zM401 930q72 18 177.5 87.5t177.5 141.5q41 41 55 41q16 0 16 -12q0 -8 -8 -23q-59 -129 -59 -209q0 -27 4 -34l-14 -9q-14 25 -15 74q0 67 29 137 q-72 -70 -183.5 -135t-177.5 -76z" />
<glyph unicode="&#xeb;" horiz-adv-x="2095" d="M0 49q0 106 182 107q154 0 353 -70q178 109 399 363q23 27 389 481q242 299 416 454q-138 146 -367 177q-74 -307 -326.5 -569.5t-480.5 -262.5q-160 0 -159 160q0 244 247 461q270 236 633 235q47 0 72 -2q12 49 12 127q0 227 -254 227q-244 0 -493 -180 q-233 -168 -387 -429t-154 -499q0 -287 264 -358q6 -2 6 -8q0 -10 -12 -10q-276 78 -277 376q0 248 158 517q156 262 393 432q254 180 502 180q272 0 273 -248q0 -76 -13 -129q254 -20 408 -160q172 143 354 217q14 0 14 -10q-2 -6 -8 -6q-182 -80 -334 -223 q221 -219 222 -580q0 -342 -209 -590q-254 -297 -715 -297q-227 0 -516 109q-174 -92 -408 -92q-184 0 -184 100zM20 49q0 -74 160 -74q152 1 324 97q-197 66 -322 65q-162 0 -162 -88zM422 889q0 -141 143 -141q201 0 465 284q256 275 322 531q-20 2 -66 2 q-248 0 -461 -117q-184 -102 -297 -268q-106 -154 -106 -291zM627 53q279 -98 481 -98q401 0 629 278q197 240 196 578q0 350 -170 547q-147 -147 -360 -457q-254 -367 -350 -483q-209 -252 -426 -365zM1692 1571q0 6 8 22q59 119 59 215q0 14 -4 23l14 14q14 -25 15 -73 q0 -68 -29 -138q72 70 183.5 135.5t177.5 75.5l2 -18q-72 -18 -178.5 -87t-176.5 -141q-41 -41 -55 -40q-16 0 -16 12z" />
<glyph unicode="&#xec;" horiz-adv-x="712" d="M-18 39q0 205 204 416q0 4 -4 4q-90 -70 -174 -168l-14 14q186 217 469 330q139 55 270 55l512 649h86l-518 -653q-156 -195 -311 -389q-178 -231 -178 -272q0 -25 22 -25q43 0 164 106q104 92 199 201l14 -14q-74 -84 -178 -180q-154 -139 -215 -140q-41 0 -41 45 q0 90 227 383l-4 5q-381 -432 -483 -433q-47 0 -47 66zM14 25q0 -25 21 -25q70 0 346 293q187 199 334 379q-254 0 -504 -303q-197 -238 -197 -344zM1075 932q66 27 130.5 92.5t94.5 134.5q16 41 39 41q29 0 29 -33q0 -20 -14 -43q-92 -152 -267 -211z" />
<glyph unicode="&#xed;" horiz-adv-x="366" d="M-43 18q0 82 106 240q29 41 228 301q6 6 2 10q-6 4 -10 -4q-80 -76 -275 -274l-14 14q160 154 383 381h106q-154 -195 -309 -387q-180 -236 -180 -283q0 -18 16 -18q37 0 137.5 88t212.5 221l15 -14q-266 -319 -377 -320q-41 0 -41 45zM465 932q186 61 350 227 q41 41 59 41q16 0 17 -12q0 -27 -43 -64q-176 -152 -381 -211z" />
<glyph unicode="&#xee;" horiz-adv-x="366" d="M-43 18q0 82 106 240q29 41 228 301q6 6 2 10q-6 4 -10 -4q-80 -76 -275 -274l-14 14q160 154 383 381h106q-154 -195 -309 -387q-180 -236 -180 -283q0 -18 16 -18q37 0 137.5 88t212.5 221l15 -14q-266 -319 -377 -320q-41 0 -41 45zM365 930q72 18 177 87.5t177 141.5 q41 41 55 41q16 0 17 -12q0 -8 -9 -23q-59 -129 -59 -209q0 -27 4 -34l-14 -9q-14 25 -15 74q0 67 29 137q-72 -70 -183.5 -135t-176.5 -76z" />
<glyph unicode="&#xef;" horiz-adv-x="366" d="M-43 18q0 82 106 240q29 41 228 301q6 6 2 10q-6 4 -10 -4q-80 -76 -275 -274l-14 14q160 154 383 381h106q-154 -195 -309 -387q-180 -236 -180 -283q0 -18 16 -18q37 0 137.5 88t212.5 221l15 -14q-266 -319 -377 -320q-41 0 -41 45zM451 1008q0 33 24 60.5t49 27.5 q29 0 29 -39q0 -29 -23.5 -56.5t-48.5 -27.5q-31 0 -30 35zM694 1008q0 33 24.5 60.5t49.5 27.5q29 0 29 -39q0 -29 -23.5 -56.5t-48.5 -27.5q-31 0 -31 35z" />
<glyph unicode="&#xf0;" horiz-adv-x="851" d="M51 176q0 236 174 469q182 244 389 244q84 0 84 -98q0 -180 -217 -388l-12 11q213 215 213 372q0 76 -64 76q-154 0 -345 -275.5t-191 -467.5q0 -106 76 -107q96 0 276 170q188 182 346 443q180 301 248 604h-266v33h270q14 72 15 159q0 279 -129 328q-10 4 -11 10 q0 16 11 17q8 0 12 -2q143 -94 143 -392q0 -55 -6 -120h121v-33h-123q-33 -303 -191 -604q-145 -279 -343.5 -459t-362.5 -180q-117 0 -117 190z" />
<glyph unicode="&#xf1;" horiz-adv-x="796" d="M-16 0q285 356 309 391q178 231 178 281q0 18 -16 18q-43 0 -177.5 -120.5t-269.5 -278.5l-14 14q362 410 473 410q41 0 41 -45t-49 -129q-16 -29 -166 -262l4 -5q395 440 487 441q43 0 43 -64q0 -90 -110 -233q-37 -47 -205 -232q-111 -123 -111 -159q0 -27 27 -27 q100 0 365 307l14 -14q-274 -313 -379 -313q-57 0 -57 67q0 80 110 219q4 8 203 234q111 125 111 170q0 23 -19 22q-57 0 -289 -241q-192 -201 -399 -451h-104zM610 995q74 98 140 99q39 0 101 -49.5t97 -49.5q53 0 107 76l6 -8q-72 -113 -137 -113q-39 0 -105.5 51.5 t-101.5 51.5q-49 0 -99 -66z" />
<glyph unicode="&#xf2;" horiz-adv-x="565" d="M-27 63q0 68 50 164q57 109 153 209q2 4 -4 4q-92 -68 -164 -149l-14 14q76 86 270 234q231 176 316 176q59 0 59 -62q0 -123 -162 -319q-10 -12 -10 -39q0 -33 29 -33t65 45l14 -14q-45 -51 -79 -51q-45 0 -45 47q0 12 2 16q-274 -332 -404 -332q-76 0 -76 90zM23 31 q-1 -33 32 -33q115 0 400 342q4 57 30.5 105.5t51.5 48.5q10 0 16 -11q61 104 61 164q0 43 -34 43q-102 0 -369 -321q-188 -227 -188 -338zM573 1174q0 53 29 53q25 0 25 -51q0 -190 80 -314l-15 -8q-119 166 -119 320z" />
<glyph unicode="&#xf3;" horiz-adv-x="565" d="M-27 63q0 68 50 164q57 109 153 209q2 4 -4 4q-92 -68 -164 -149l-14 14q76 86 270 234q231 176 316 176q59 0 59 -62q0 -123 -162 -319q-10 -12 -10 -39q0 -33 29 -33t65 45l14 -14q-45 -51 -79 -51q-45 0 -45 47q0 12 2 16q-274 -332 -404 -332q-76 0 -76 90zM23 31 q-1 -33 32 -33q115 0 400 342q4 57 30.5 105.5t51.5 48.5q10 0 16 -11q61 104 61 164q0 43 -34 43q-102 0 -369 -321q-188 -227 -188 -338zM588 932q186 61 350 227q41 41 59 41q16 0 17 -12q0 -27 -43 -64q-176 -152 -381 -211z" />
<glyph unicode="&#xf4;" horiz-adv-x="565" d="M-27 63q0 68 50 164q57 109 153 209q2 4 -4 4q-92 -68 -164 -149l-14 14q76 86 270 234q231 176 316 176q59 0 59 -62q0 -123 -162 -319q-10 -12 -10 -39q0 -33 29 -33t65 45l14 -14q-45 -51 -79 -51q-45 0 -45 47q0 12 2 16q-274 -332 -404 -332q-76 0 -76 90zM23 31 q-1 -33 32 -33q115 0 400 342q4 57 30.5 105.5t51.5 48.5q10 0 16 -11q61 104 61 164q0 43 -34 43q-102 0 -369 -321q-188 -227 -188 -338zM446 930q72 18 177.5 87.5t177.5 141.5q41 41 55 41q16 0 16 -12q0 -8 -8 -23q-59 -129 -59 -209q0 -27 4 -34l-14 -9q-14 25 -15 74 q0 67 29 137q-72 -70 -183.5 -135t-176.5 -76z" />
<glyph unicode="&#xf5;" horiz-adv-x="565" d="M-27 63q0 68 50 164q57 109 153 209q2 4 -4 4q-92 -68 -164 -149l-14 14q76 86 270 234q231 176 316 176q59 0 59 -62q0 -123 -162 -319q-10 -12 -10 -39q0 -33 29 -33t65 45l14 -14q-45 -51 -79 -51q-45 0 -45 47q0 12 2 16q-274 -332 -404 -332q-76 0 -76 90zM23 31 q-1 -33 32 -33q115 0 400 342q4 57 30.5 105.5t51.5 48.5q10 0 16 -11q61 104 61 164q0 43 -34 43q-102 0 -369 -321q-188 -227 -188 -338zM504 995q74 98 139 99q39 0 101.5 -49.5t97.5 -49.5q53 0 106 76l6 -8q-72 -113 -137 -113q-39 0 -105.5 51.5t-101.5 51.5 q-49 0 -98 -66z" />
<glyph unicode="&#xf6;" horiz-adv-x="565" d="M-27 63q0 68 50 164q57 109 153 209q2 4 -4 4q-92 -68 -164 -149l-14 14q76 86 270 234q231 176 316 176q59 0 59 -62q0 -123 -162 -319q-10 -12 -10 -39q0 -33 29 -33t65 45l14 -14q-45 -51 -79 -51q-45 0 -45 47q0 12 2 16q-274 -332 -404 -332q-76 0 -76 90zM23 31 q-1 -33 32 -33q115 0 400 342q4 57 30.5 105.5t51.5 48.5q10 0 16 -11q61 104 61 164q0 43 -34 43q-102 0 -369 -321q-188 -227 -188 -338zM565 1008q0 33 24.5 60.5t49.5 27.5q29 0 29 -39q0 -29 -23.5 -56.5t-48.5 -27.5q-31 0 -31 35zM809 1008q0 33 24.5 60.5t49.5 27.5 q29 0 28 -39q0 -29 -23.5 -56.5t-47.5 -27.5q-31 0 -31 35z" />
<glyph unicode="&#xf7;" horiz-adv-x="958" d="M106 338l46 57h753l-45 -57h-754zM229 92q0 20 23 49q61 80 141 80q41 0 41 -31q0 -20 -22 -49q-61 -80 -142 -80q-41 0 -41 31zM578 543q0 20 22 49q61 80 141 80q41 0 41 -31q0 -20 -22 -49q-61 -80 -142 -80q-41 0 -40 31z" />
<glyph unicode="&#xf8;" horiz-adv-x="565" d="M-416 -305l391 348q-2 6 -2 20q0 68 50 164q55 106 147 203q6 4 -4 4q-96 -68 -158 -143l-14 14q74 86 270 230q74 55 146 108q104 72 170 72q59 0 59 -62q0 -14 -2 -20l309 276l15 -20l-334 -299q-33 -111 -150 -256q-10 -12 -10 -39q0 -33 29 -33t65 45l14 -14 q-45 -51 -79 -51q-45 0 -45 47q0 12 2 16q-274 -332 -404 -332q-51 0 -67 41l-383 -342zM25 33q0 -33 30 -33q113 0 371 305q119 139 166 254l-565 -504q-2 -8 -2 -22zM41 102l567 506q4 29 4 35q0 43 -37 43q-70 0 -178 -106q-61 -59 -185 -210t-171 -268z" />
<glyph unicode="&#xf9;" horiz-adv-x="1374" d="M-205 995q0 236 282.5 401t704.5 165q258 0 473 -68q92 82 193 137q90 49 131 49q78 0 78 -71q0 -104 -111 -250q170 -113 244 -260q0 -14 -6 -15q-6 0 -8 11q-70 139 -240 249q-197 -252 -524 -436q0 -39 12 -80q80 16 135 17q129 0 129 -76q0 -68 -110 -68 q-107 1 -168 97q-174 -63 -328 -256q-168 -205 -168 -398q0 -190 201 -190q315 0 655 354l14 -14q-340 -360 -667 -361q-305 0 -305 271q0 231 213 420q176 158 372 196q-14 31 -24 68q-379 -205 -760 -205q-162 0 -283 82q-135 90 -135 231zM-184 995q0 -125 114.5 -209 t286.5 -84q392 0 754 197q-4 29 -4 45q0 293 272 537q-209 61 -457 61q-416 0 -696 -166q-270 -160 -270 -381zM1012 924q338 199 512 430q-113 72 -209 100q-293 -317 -303 -530zM1034 805q41 -86 144 -86q88 0 88 49q0 57 -107 57q-66 0 -125 -20zM1329 1468 q105 -43 205 -102q106 145 106 242q0 51 -51 51q-76 0 -260 -191zM1653 1743q0 6 8 22q59 119 59 215q0 14 -4 23l15 14q14 -25 14 -73q0 -68 -29 -138q72 70 183.5 135.5t177.5 75.5l2 -18q-72 -18 -178.5 -87t-176.5 -140q-41 -41 -55 -41q-16 0 -16 12z" />
<glyph unicode="&#xfa;" horiz-adv-x="669" d="M-51 31q0 80 125 254q39 53 219 274q6 6 2 10q-6 4 -10 -4q-76 -74 -277 -274l-14 14q317 309 383 381h106q-254 -303 -309 -375q-193 -242 -192 -297q0 -18 16 -18q104 0 682 690h104q-487 -600 -487 -670q0 -18 16 -18q37 0 137.5 88t213.5 221l14 -14 q-266 -319 -377 -320q-41 0 -41 45t49 129q20 37 166 265l-4 4q-207 -229 -299 -320q-129 -123 -180 -123q-43 0 -43 58zM600 932q186 61 350 227q41 41 60 41q16 0 16 -12q0 -27 -43 -64q-176 -152 -381 -211z" />
<glyph unicode="&#xfb;" d="M-37 37q0 160 217 414q0 4 -2 4q-94 -74 -170 -162l-14 14q74 84 266 236q219 172 285 172q41 0 41 -43q0 -72 -109 -185q-133 -137 -375 -264q-104 -150 -104 -194q0 -35 31 -35q78 0 229 108q137 100 229 207l15 -14q-100 -115 -248 -218.5t-221 -103.5q-70 0 -70 64z M125 254q203 113 332 250q106 111 106 168q0 22 -20 22q-53 0 -152 -108q-14 -16 -176 -215q-33 -41 -90 -117zM629 926q0 8 8 22q59 129 59 209q0 27 -4 35l15 8q14 -25 14 -74q0 -67 -29 -137q72 70 183.5 135.5t177.5 75.5l2 -16q-72 -18 -177.5 -88t-177.5 -142 q-41 -41 -55 -41q-16 0 -16 13z" />
<glyph unicode="&#xfc;" horiz-adv-x="669" d="M-51 31q0 80 125 254q39 53 219 274q6 6 2 10q-6 4 -10 -4q-76 -74 -277 -274l-14 14q317 309 383 381h106q-254 -303 -309 -375q-193 -242 -192 -297q0 -18 16 -18q104 0 682 690h104q-487 -600 -487 -670q0 -18 16 -18q37 0 137.5 88t213.5 221l14 -14 q-266 -319 -377 -320q-41 0 -41 45t49 129q20 37 166 265l-4 4q-207 -229 -299 -320q-129 -123 -180 -123q-43 0 -43 58zM621 1008q0 33 24 60.5t49 27.5q29 0 29 -39q0 -29 -23.5 -56.5t-48.5 -27.5q-31 0 -30 35zM864 1008q0 33 24.5 60.5t49.5 27.5q29 0 29 -39 q0 -29 -23.5 -56.5t-48.5 -27.5q-31 0 -31 35z" />
<glyph unicode="&#xfd;" horiz-adv-x="710" d="M-616 -956q0 113 223 358q236 256 567 487q174 229 381 519l-4 4q-393 -438 -479 -439q-43 0 -43 64q0 90 110 233q37 49 205 238q111 123 111 160q0 27 -19 26q-49 0 -186 -139q-121 -133 -242 -264l-14 14q205 225 242 264q145 145 202 146q47 0 47 -60 q0 -84 -110 -227q-12 -16 -203 -238q-111 -127 -111 -172q0 -23 19 -22q57 0 285 242q184 190 395 448h104q-236 -289 -579 -719q0 -4 4 -4q248 176 418 344l14 -14q-131 -133 -328 -277q-180 -131 -188 -141q-188 -242 -377 -483q-322 -389 -408 -389q-37 0 -36 41z M-592 -946q0 -25 21 -25q55 0 262 250q88 106 420 535q-1 2 -5 4q-334 -250 -530 -477q-168 -195 -168 -287zM682 932q186 61 350 227q41 41 60 41q16 0 16 -12q0 -27 -43 -64q-176 -152 -381 -211z" />
<glyph unicode="&#xfe;" horiz-adv-x="677" d="M-727 -739q434 528 1483 1824l-4 5q-262 -293 -463 -504q-268 -281 -281 -295l-14 14q244 258 485 516q381 406 568 641q10 12 18 13q14 0 14 -15q0 -12 -10 -22q-471 -561 -911 -1170l4 -4q408 451 495 451q43 0 43 -64q0 -90 -108 -233q-37 -47 -201 -232 q-109 -123 -108 -159q0 -27 26 -27q100 0 365 307l14 -14q-274 -313 -379 -313q-57 0 -57 67q0 80 108 219q4 8 199 234q109 125 109 170q0 23 -19 22q-37 0 -174 -127q-145 -137 -342 -362q-274 -315 -756 -942h-104z" />
<glyph unicode="&#xff;" horiz-adv-x="710" d="M-616 -956q0 113 223 358q236 256 567 487q174 229 381 519l-4 4q-393 -438 -479 -439q-43 0 -43 64q0 90 110 233q37 49 205 238q111 123 111 160q0 27 -19 26q-49 0 -186 -139q-121 -133 -242 -264l-14 14q205 225 242 264q145 145 202 146q47 0 47 -60 q0 -84 -110 -227q-12 -16 -203 -238q-111 -127 -111 -172q0 -23 19 -22q57 0 285 242q184 190 395 448h104q-236 -289 -579 -719q0 -4 4 -4q248 176 418 344l14 -14q-131 -133 -328 -277q-180 -131 -188 -141q-188 -242 -377 -483q-322 -389 -408 -389q-37 0 -36 41z M-592 -946q0 -25 21 -25q55 0 262 250q88 106 420 535q-1 2 -5 4q-334 -250 -530 -477q-168 -195 -168 -287zM647 1008q0 33 24.5 60.5t49.5 27.5q29 0 29 -39q0 -29 -24 -56.5t-48 -27.5q-31 0 -31 35zM891 1008q0 33 24.5 60.5t49.5 27.5q29 0 28 -39q0 -29 -23.5 -56.5 t-47.5 -27.5q-31 0 -31 35z" />
<glyph unicode="&#x152;" horiz-adv-x="2197" d="M393 307q0 236 115 465q-72 66 -72 166q0 207 248 376t627 222q342 176 592 176q238 0 245 -170q178 137 273 137q70 0 69 -71q0 -97 -127 -242q-92 -106 -288 -252q-4 -129 -50 -272q94 -12 95 -74q0 -68 -111 -68q-16 0 -41 5q-72 -168 -240.5 -335t-375.5 -286 q27 -131 194 -131q315 0 656 354l14 -14q-340 -360 -668 -361q-195 0 -266 117q-252 -131 -485 -131q-184 0 -289 92q-115 100 -115 297zM457 938q0 -89 61 -150q217 434 748 723q-350 -61 -579.5 -224t-229.5 -349zM473 264q0 -160 96 -241q90 -78 248 -78q205 0 455 123 q-29 55 -29 135q0 131 68 248q-158 -74 -273 -74q-207 0 -207 219q0 25 5 70q-135 4 -242 49q-121 -223 -121 -451zM602 733q94 -45 236 -49q45 305 348 563q291 246 563 246q168 0 248 -88q31 39 131 123q-6 158 -197 158q-180 0 -434 -130q18 0 57 3h60q88 0 162 -7 l-2 -16q-82 6 -160 6t-156 -6q-258 -133 -481 -336q-244 -223 -375 -467zM870 553q0 -160 168 -160q125 0 287 84q119 188 363 295q8 4 26 10q43 20 113 39q-29 58 -29 119q-487 -264 -911 -274q-16 -61 -17 -113zM891 684q415 13 907 277q8 219 187 430q-74 84 -236 84 q-231 0 -510 -267q-270 -258 -348 -524zM1346 143q0 -25 2 -37q203 113 368.5 278t231.5 327q-62 20 -107 86q-242 -88 -411 -377q-84 -143 -84 -277zM1843 907q0 -45 12 -80q76 16 136 17h14q43 133 51 256q-86 -59 -207 -133q-6 -25 -6 -60zM1853 991q117 66 203 127v27 q0 102 -28 172q-142 -183 -175 -326zM1866 805q31 -59 90 -78q31 57 43 98h-8q-66 0 -125 -20zM1976 721q10 -2 33 -2q88 0 88 49q0 47 -78 55q-18 -57 -43 -102zM2042 1333q35 -76 35 -188v-15q154 106 274.5 242t120.5 236q0 51 -51 51q-80 0 -275 -205q-45 -47 -104 -121 z" />
<glyph unicode="&#x153;" horiz-adv-x="854" d="M-27 63q0 68 50 164q57 109 153 209q6 4 -4 4q-92 -68 -164 -149l-14 14q76 86 270 234q231 176 316 176q59 0 59 -62q0 -55 -39 -133q229 195 307 195q41 0 41 -43q0 -72 -108 -185q-133 -137 -375 -264q-104 -150 -105 -194q0 -35 31 -35q78 0 230 108q137 100 229 207 l14 -14q-100 -115 -247.5 -218.5t-221.5 -103.5q-70 0 -69 64q0 78 51 180q-221 -244 -328 -244q-76 0 -76 90zM23 31q-1 -33 32 -33q111 0 371 307q188 223 188 342q0 43 -34 43q-102 0 -369 -321q-188 -227 -188 -338zM487 254q203 113 332 250q104 111 105 168 q-1 22 -21 22q-53 0 -151 -108q-4 -6 -174 -215q-33 -41 -91 -117z" />
<glyph unicode="&#x178;" horiz-adv-x="1910" d="M-209 348q0 174 175 297t419 123q346 0 612 -258q92 111 308 410q193 270 311 401q182 201 360 293q-53 104 -163.5 164.5t-256.5 60.5q-27 0 -40 -2q23 -57 22 -141q0 -326 -231 -572q-215 -229 -449 -229q-193 0 -192 211q0 162 102 317q94 143 254 252 q223 152 465 180q-61 141 -242 142q-164 0 -352 -119q-197 -125 -320 -322q-139 -221 -139 -466q0 -10 -8 -11q-8 0 -8 11q0 256 141 481q125 199 326 323q190 121 362 121q195 0 262 -157h43q315 0 455 -232q78 37 170 55q10 0 10 -12q0 -8 -6 -8q-86 -16 -164 -53 q51 -96 51 -205q0 -172 -114 -340q-103 -150 -281 -195q18 -43 19 -104q0 -143 -101.5 -432t-101.5 -312q0 -27 24 -26q121 0 388 313l14 -14q-272 -319 -404 -320q-74 0 -73 99q0 104 103.5 381.5t103.5 365.5q0 16 -5 41q-51 -10 -81 -10q-106 0 -107 53q0 47 84 47 q86 0 125 -57q141 61 246 215q113 164 112 328q0 90 -32 157q-168 -88 -332 -299q-90 -119 -279 -426q-184 -297 -299 -442q248 -299 332 -807q0 -14 -6 -14t-10 4q-92 504 -334 797q-346 -418 -815 -418q-186 0 -316 96q-137 102 -137 264zM-186 346q0 -137 105.5 -217 t303.5 -80q387 1 758 443q-258 256 -602 256q-231 0 -398 -119t-167 -283zM686 1106q0 -188 172 -188q190 0 420 253q240 266 240 525q0 80 -23 141q-227 -23 -457 -180q-158 -109 -252 -250q-100 -150 -100 -301zM1477 903q0 -35 82 -35q34 1 73 13q-23 53 -102 53 q-53 0 -53 -31zM2046 1724q186 61 350 228q41 41 60 41q16 0 16 -13q0 -26 -43 -63q-176 -152 -381 -211z" />
<glyph unicode="&#x2c6;" horiz-adv-x="696" d="M279 930q72 18 177 87.5t177 141.5q41 41 55 41q16 0 17 -12q0 -8 -9 -23q-59 -129 -59 -209q0 -27 4 -34l-14 -9q-14 25 -15 74q0 67 29 137q-72 -70 -183.5 -135t-176.5 -76z" />
<glyph unicode="&#x2dc;" horiz-adv-x="696" d="M610 995q74 98 140 99q39 0 101 -49.5t97 -49.5q53 0 107 76l6 -8q-72 -113 -137 -113q-39 0 -105.5 51.5t-101.5 51.5q-49 0 -99 -66z" />
<glyph unicode="&#x2000;" horiz-adv-x="1089" />
<glyph unicode="&#x2001;" horiz-adv-x="2179" />
<glyph unicode="&#x2002;" horiz-adv-x="1089" />
<glyph unicode="&#x2003;" horiz-adv-x="2179" />
<glyph unicode="&#x2004;" horiz-adv-x="726" />
<glyph unicode="&#x2005;" horiz-adv-x="544" />
<glyph unicode="&#x2006;" horiz-adv-x="363" />
<glyph unicode="&#x2007;" horiz-adv-x="363" />
<glyph unicode="&#x2008;" horiz-adv-x="272" />
<glyph unicode="&#x2009;" horiz-adv-x="435" />
<glyph unicode="&#x200a;" horiz-adv-x="121" />
<glyph unicode="&#x2010;" horiz-adv-x="661" d="M143 338l15 37h420l-15 -37h-420z" />
<glyph unicode="&#x2011;" horiz-adv-x="661" d="M143 338l15 37h420l-15 -37h-420z" />
<glyph unicode="&#x2012;" horiz-adv-x="661" d="M143 338l15 37h420l-15 -37h-420z" />
<glyph unicode="&#x2013;" horiz-adv-x="927" d="M133 338l14 37h687l-15 -37h-686z" />
<glyph unicode="&#x2014;" horiz-adv-x="1632" d="M-12 305q213 238 430 238q137 0 311 -105q145 -96 291 -194q168 -104 291 -105q167 0 329 180q4 4 11 5q6 0 6 -17q-182 -205 -373 -205q-131 0 -303 103q-147 96 -295 192q-172 102 -305 103q-193 0 -377 -207q-4 -4 -10 -4t-6 16z" />
<glyph unicode="&#x2018;" horiz-adv-x="700" d="M762 1237q0 94 78 159.5t174 65.5v-18q-82 0 -147.5 -56.5t-73.5 -117.5q14 8 30 8q57 0 58 -59q0 -59 -60 -60q-59 0 -59 78z" />
<glyph unicode="&#x2019;" horiz-adv-x="700" d="M737 1167v19q82 0 147.5 56.5t73.5 117.5q-14 -8 -30 -8q-57 0 -58 59q0 59 60 59q59 0 59 -77q0 -94 -77.5 -160t-174.5 -66z" />
<glyph unicode="&#x201a;" horiz-adv-x="372" d="M-82 -186q82 0 147.5 56.5t73.5 117.5q-14 -8 -30 -8q-57 0 -58 59q0 59 60 59q59 0 59 -78q0 -94 -78 -159.5t-174 -65.5v19z" />
<glyph unicode="&#x201c;" horiz-adv-x="700" d="M629 1237q0 94 77.5 159.5t174.5 65.5v-18q-82 0 -148 -56.5t-74 -117.5q14 8 31 8q57 0 58 -59q0 -59 -60 -60q-59 0 -59 78zM842 1237q0 94 77.5 159.5t174.5 65.5v-18q-82 0 -148 -56.5t-74 -117.5q14 8 31 8q57 0 58 -59q0 -59 -60 -60q-59 0 -59 78z" />
<glyph unicode="&#x201d;" horiz-adv-x="700" d="M737 1167v19q82 0 147.5 56.5t73.5 117.5q-14 -8 -30 -8q-57 0 -58 59q0 59 60 59q59 0 59 -77q0 -94 -77.5 -160t-174.5 -66zM950 1167v19q82 0 147.5 56.5t73.5 117.5q-14 -8 -30 -8q-57 0 -58 59q0 59 60 59q59 0 59 -77q0 -94 -77.5 -160t-174.5 -66z" />
<glyph unicode="&#x201e;" horiz-adv-x="628" d="M-82 -186q82 0 147.5 56.5t73.5 117.5q-14 -8 -30 -8q-57 0 -58 59q0 59 60 59q59 0 59 -78q0 -94 -78 -159.5t-174 -65.5v19zM131 -186q82 0 147.5 56.5t73.5 117.5q-14 -8 -30 -8q-57 0 -58 59q0 59 60 59q59 0 59 -78q0 -94 -78 -159.5t-174 -65.5v19z" />
<glyph unicode="&#x2022;" horiz-adv-x="837" d="M41 479q0 156 109.5 265.5t267.5 109.5q162 0 270.5 -108.5t108.5 -266.5q0 -166 -101.5 -262t-277.5 -96q-174 0 -275.5 97t-101.5 261z" />
<glyph unicode="&#x2026;" horiz-adv-x="1114" d="M51 39q1 59 60 59t59 -59t-59 -59t-60 59zM424 39q0 59 59 59t60 -59q0 -59 -60 -59q-59 0 -59 59zM797 39q0 59 59 59t59 -59t-59 -59t-59 59z" />
<glyph unicode="&#x202f;" horiz-adv-x="435" />
<glyph unicode="&#x2039;" horiz-adv-x="1009" d="M242 326q0 16 29.5 35.5t82.5 25.5q141 16 357 92q223 78 297 144l8 -7q-80 -82 -279 -163q-188 -80 -352 -109q94 -43 168 -114.5t74 -131.5l-23 -6q-10 43 -108 107q-111 74 -232 98q-23 4 -22 29z" />
<glyph unicode="&#x203a;" horiz-adv-x="1009" d="M147 100q80 82 279 164q186 80 350 109q-94 43 -166.5 114.5t-72.5 130.5l22 7q8 -43 107 -107q111 -74 233 -98q23 -4 23 -29q0 -16 -27 -33q-35 -23 -88 -28q-141 -16 -354 -92q-223 -78 -297 -144z" />
<glyph unicode="&#x205f;" horiz-adv-x="544" />
<glyph unicode="&#x2122;" horiz-adv-x="1611" d="M57 971v162h611v-162h-25v53l-96 84h-148v-631h74v-24h-221v24h74v631h-148l-96 -84v-53h-25zM743 453v24h29l68 55v531l-45 45h-52v25h191l227 -586l205 586h160v-25h-74v-631h74v-24h-221v24h73v608l-223 -632h-35l-256 663v-584l66 -55h31v-24h-218z" />
<glyph unicode="&#xe000;" horiz-adv-x="716" d="M0 0v717h717v-717h-717z" />
</font>
</defs>
</svg>
